<svg width="16" height="16" fill="none" xmlns="http://www.w3.org/2000/svg"><path d="M15.376 3.314c-.577-.67-1.643-.944-3.68-.944H4.304c-2.084 0-3.168.29-3.744 1.005C0 4.071 0 5.097 0 6.517v2.706c0 2.75.666 4.147 4.304 4.147h7.392c1.766 0 2.745-.241 3.378-.833.649-.607.926-1.598.926-3.314V6.517c0-1.497-.043-2.53-.624-3.203zm-5.104 4.93L6.915 9.956a.526.526 0 01-.506-.015.502.502 0 01-.249-.432V6.094c0-.176.094-.34.248-.431a.527.527 0 01.506-.017l3.357 1.703c.17.087.278.259.278.447s-.106.36-.277.447z" fill="#fff"/></svg>