<svg width="16" height="16" fill="none" xmlns="http://www.w3.org/2000/svg"><path d="M15.376 3.314c-.577-.67-1.643-.944-3.68-.944H4.304c-2.083 0-3.168.291-3.743 1.005C0 4.072 0 5.097 0 6.517v2.706c0 2.75.666 4.147 4.304 4.147h7.392c1.766 0 2.745-.241 3.378-.833.649-.607.926-1.598.926-3.314V6.517c0-1.497-.043-2.529-.624-3.203zm-5.104 4.93L6.915 9.958a.525.525 0 01-.506-.016.502.502 0 01-.249-.431V6.094c0-.176.094-.34.248-.43a.527.527 0 01.506-.017l3.357 1.702c.17.087.278.26.278.447 0 .188-.106.36-.277.448z" fill="#FBA73D"/></svg>