<svg width="744" height="340" fill="none" xmlns="http://www.w3.org/2000/svg"><path d="M1.848 316.963c14.586-.313 51.015 2.625 80.045 16.876 36.286 17.814 57.632-16.876 96.053-16.876s58.699 19.689 74.708 19.689 50.161-26.253 83.246-19.689c33.085 6.563 54.43 19.689 75.775 19.689 21.345 0 46.959-24.377 83.246-19.689 36.287 4.687 53.363 19.689 74.708 19.689s54.43-23.44 81.111-19.689c26.682 3.75 53.363 19.689 65.103 19.689h14.942" stroke="#F4F4F4" stroke-width="2" stroke-linecap="round" stroke-linejoin="round"/><path d="M1.848 298.327c14.586-.313 51.015 2.625 80.045 16.876 36.286 17.814 57.632-16.876 96.053-16.876s58.699 19.689 74.708 19.689 50.161-26.252 83.246-19.689c33.085 6.563 54.43 19.689 75.775 19.689 21.345 0 46.959-24.377 83.246-19.689 36.287 4.688 53.363 19.689 74.708 19.689s54.43-23.44 81.111-19.689c26.682 3.75 53.363 19.689 65.103 19.689h14.942" stroke="#F4F4F4" stroke-width="2" stroke-linecap="round" stroke-linejoin="round"/><path d="M1.848 279.575c14.586-.312 51.015 2.625 80.045 16.876 36.286 17.814 57.631-16.876 96.053-16.876 38.421 0 58.699 19.689 74.708 19.689s50.161-26.252 83.246-19.689c33.085 6.563 54.43 19.689 75.775 19.689 21.345 0 46.959-24.377 83.246-19.689 36.287 4.688 53.363 19.689 74.708 19.689s54.43-23.439 81.111-19.689c26.682 3.75 53.363 19.689 65.103 19.689h14.942c21.345 0 46.959-24.376 83.246-19.688 36.286 4.687 53.363 19.689 74.708 19.689s54.43-23.44 81.111-19.689c26.682 3.75 53.36 19.689 65.1 19.689h14.94c21.35 0 46.96-24.377 83.25-19.689 36.29 4.687 53.36 19.689 74.71 19.689" stroke="#F4F4F4" stroke-width="2" stroke-linecap="round" stroke-linejoin="round"/><path d="M1.848 262.699c14.586-.313 51.015 2.625 80.045 16.876 36.286 17.814 57.631-16.876 96.053-16.876 38.421 0 58.699 19.689 74.708 19.689s50.161-26.252 83.246-19.689c33.085 6.563 54.43 19.689 75.775 19.689 21.345 0 46.959-24.377 83.246-19.689 36.287 4.688 53.363 19.689 74.708 19.689s54.43-23.44 81.111-19.689c26.682 3.75 53.363 19.689 65.103 19.689h14.942c21.345 0 46.959-24.377 83.246-19.689 36.286 4.688 53.363 19.689 74.708 19.689s54.43-23.439 81.111-19.689c26.682 3.75 53.36 19.689 65.1 19.689h14.94c21.35 0 46.96-24.377 83.25-19.689 36.29 4.688 53.36 19.689 74.71 19.689" stroke="#F4F4F4" stroke-width="2" stroke-linecap="round" stroke-linejoin="round"/><path d="M1.848 245.823c14.586-.313 51.015 2.625 80.045 16.876 36.286 17.814 57.631-16.876 96.053-16.876 38.421 0 58.699 19.689 74.708 19.689s50.161-26.252 83.246-19.689c33.085 6.563 54.43 19.689 75.775 19.689 21.345 0 46.959-24.377 83.246-19.689 36.287 4.688 53.363 19.689 74.708 19.689s54.43-23.44 81.111-19.689c26.682 3.75 53.363 19.689 65.103 19.689h14.942c21.345 0 46.959-24.377 83.246-19.689 36.286 4.688 53.363 19.689 74.708 19.689s54.43-23.44 81.111-19.689c26.682 3.75 53.36 19.689 65.1 19.689h14.94c21.35 0 46.96-24.377 83.25-19.689 36.29 4.688 53.36 19.689 74.71 19.689" stroke="#F4F4F4" stroke-width="2" stroke-linecap="round" stroke-linejoin="round"/><path d="M1.848 227.071c14.586-.312 51.015 2.625 80.045 16.876 36.286 17.814 57.631-16.876 96.053-16.876 38.421 0 58.699 19.689 74.708 19.689s50.161-26.252 83.246-19.689c33.085 6.563 54.43 19.689 75.775 19.689 21.345 0 46.959-24.377 83.246-19.689 36.287 4.688 53.363 19.689 74.708 19.689s54.43-23.439 81.111-19.689c26.682 3.751 53.363 19.689 65.103 19.689h14.942c21.345 0 46.959-24.377 83.246-19.689 36.286 4.688 53.363 19.689 74.708 19.689s54.43-23.439 81.111-19.689c26.682 3.751 53.36 19.689 65.1 19.689h14.94c21.35 0 46.96-24.377 83.25-19.689 36.29 4.688 53.36 19.689 74.71 19.689 21.34 0 46.96-24.377 83.24-19.689 36.29 4.688 53.37 19.689 74.71 19.689 21.35 0 54.43-23.439 81.11-19.689 26.69 3.751 53.37 19.689 65.11 19.689h14.94c21.34 0 46.96-24.377 83.24-19.689 36.29 4.688 53.37 19.689 74.71 19.689 21.35 0 54.43-23.439 81.11-19.689 26.68 3.751 53.37 19.689 65.11 19.689h14.94c21.34 0 46.96-24.377 83.24-19.689 36.29 4.688 53.37 19.689 74.71 19.689 21.35 0 46.96-24.377 83.25-19.689 36.28 4.688 53.36 19.689 74.71 19.689" stroke="#F4F4F4" stroke-width="2" stroke-linecap="round" stroke-linejoin="round"/><path d="M1.848 212.07c14.586-.312 51.015 2.625 80.045 16.877 36.286 17.813 57.632-16.877 96.053-16.877s58.699 19.689 74.708 19.689 50.161-26.252 83.246-19.689c33.085 6.563 54.43 19.689 75.775 19.689 21.345 0 46.959-24.377 83.246-19.689 36.287 4.688 53.363 19.689 74.708 19.689s54.43-23.439 81.111-19.689c26.682 3.751 53.363 19.689 65.103 19.689h14.942c21.345 0 46.959-24.377 83.246-19.689 36.286 4.688 53.363 19.689 74.708 19.689s54.43-23.439 81.111-19.689c26.682 3.751 53.36 19.689 65.1 19.689h14.94c21.35 0 46.96-24.377 83.25-19.689 36.29 4.688 53.36 19.689 74.71 19.689 21.34 0 46.96-24.377 83.24-19.689 36.29 4.688 53.37 19.689 74.71 19.689 21.35 0 54.43-23.439 81.11-19.689 26.69 3.751 53.37 19.689 65.11 19.689h14.94c21.34 0 46.96-24.377 83.24-19.689 36.29 4.688 53.37 19.689 74.71 19.689 21.35 0 54.43-23.439 81.11-19.689 26.68 3.751 53.37 19.689 65.11 19.689h14.94c21.34 0 46.96-24.377 83.24-19.689 36.29 4.688 53.37 19.689 74.71 19.689 21.35 0 46.96-24.377 83.25-19.689 36.28 4.688 53.36 19.689 74.71 19.689" stroke="#F4F4F4" stroke-width="2" stroke-linecap="round" stroke-linejoin="round"/><path d="M1.848 193.318c14.586-.312 51.015 2.625 80.045 16.877 36.286 17.813 57.632-16.877 96.053-16.877s58.699 19.689 74.708 19.689 50.161-26.252 83.246-19.689c33.085 6.563 54.43 19.689 75.775 19.689 21.345 0 46.959-24.377 83.246-19.689 36.287 4.688 53.363 19.689 74.708 19.689s54.43-23.439 81.111-19.689c26.682 3.751 53.363 19.689 65.103 19.689h14.942c21.345 0 46.959-24.377 83.246-19.689 36.286 4.688 53.363 19.689 74.708 19.689s54.43-23.439 81.111-19.689c26.682 3.751 53.36 19.689 65.1 19.689h14.94c21.35 0 46.96-24.377 83.25-19.689 36.29 4.688 53.36 19.689 74.71 19.689 21.34 0 46.96-24.377 83.24-19.689 36.29 4.688 53.37 19.689 74.71 19.689 21.35 0 54.43-23.439 81.11-19.689 26.69 3.751 53.37 19.689 65.11 19.689h14.94c21.34 0 46.96-24.377 83.24-19.689 36.29 4.688 53.37 19.689 74.71 19.689 21.35 0 54.43-23.439 81.11-19.689 26.68 3.751 53.37 19.689 65.11 19.689h14.94c21.34 0 46.96-24.377 83.24-19.689 36.29 4.688 53.37 19.689 74.71 19.689 21.35 0 46.96-24.377 83.25-19.689 36.28 4.688 53.36 19.689 74.71 19.689" stroke="#F4F4F4" stroke-width="2" stroke-linecap="round" stroke-linejoin="round"/><path d="M1.848 178.318c14.586-.313 51.015 2.625 80.045 16.876 36.286 17.814 57.632-16.876 96.053-16.876s58.699 19.689 74.708 19.689 50.161-26.252 83.246-19.689c33.085 6.563 54.43 19.689 75.775 19.689 21.345 0 46.959-24.377 83.246-19.689 36.287 4.688 53.363 19.689 74.708 19.689s54.43-23.44 81.111-19.689c26.682 3.75 53.363 19.689 65.103 19.689h14.942c21.345 0 46.959-24.377 83.246-19.689 36.286 4.688 53.363 19.689 74.708 19.689s54.43-23.44 81.111-19.689c26.682 3.75 53.36 19.689 65.1 19.689h14.94c21.35 0 46.96-24.377 83.25-19.689 36.29 4.688 53.36 19.689 74.71 19.689 21.34 0 46.96-24.377 83.24-19.689 36.29 4.688 53.37 19.689 74.71 19.689 21.35 0 54.43-23.44 81.11-19.689 26.69 3.75 53.37 19.689 65.11 19.689h14.94c21.34 0 46.96-24.377 83.24-19.689 36.29 4.688 53.37 19.689 74.71 19.689 21.35 0 54.43-23.44 81.11-19.689 26.68 3.75 53.37 19.689 65.11 19.689h14.94c21.34 0 46.96-24.377 83.24-19.689 36.29 4.688 53.37 19.689 74.71 19.689 21.35 0 46.96-24.377 83.25-19.689 36.28 4.688 53.36 19.689 74.71 19.689" stroke="#F4F4F4" stroke-width="2" stroke-linecap="round" stroke-linejoin="round"/><path d="M1.848 159.566c14.586-.313 51.015 2.625 80.045 16.876 36.286 17.814 57.632-16.876 96.053-16.876s58.699 19.689 74.708 19.689 50.161-26.252 83.246-19.689c33.085 6.563 54.43 19.689 75.775 19.689 21.345 0 46.959-24.377 83.246-19.689 36.287 4.688 53.363 19.689 74.708 19.689s54.43-23.44 81.111-19.689c26.682 3.75 53.363 19.689 65.103 19.689h14.942c21.345 0 46.959-24.377 83.246-19.689 36.286 4.688 53.363 19.689 74.708 19.689s54.43-23.44 81.111-19.689c26.682 3.75 53.36 19.689 65.1 19.689h14.94c21.35 0 46.96-24.377 83.25-19.689 36.29 4.688 53.36 19.689 74.71 19.689 21.34 0 46.96-24.377 83.24-19.689 36.29 4.688 53.37 19.689 74.71 19.689 21.35 0 54.43-23.44 81.11-19.689 26.69 3.75 53.37 19.689 65.11 19.689h14.94c21.34 0 46.96-24.377 83.24-19.689 36.29 4.688 53.37 19.689 74.71 19.689 21.35 0 54.43-23.44 81.11-19.689 26.68 3.75 53.37 19.689 65.11 19.689h14.94c21.34 0 46.96-24.377 83.24-19.689 36.29 4.688 53.37 19.689 74.71 19.689 21.35 0 46.96-24.377 83.25-19.689 36.28 4.688 53.36 19.689 74.71 19.689" stroke="#F4F4F4" stroke-width="2" stroke-linecap="round" stroke-linejoin="round"/><path d="M1.848 142.69c14.586-.313 51.015 2.625 80.045 16.876 36.286 17.814 57.632-16.876 96.053-16.876s58.699 19.689 74.708 19.689 50.161-26.252 83.246-19.689c33.085 6.563 54.43 19.689 75.775 19.689 21.345 0 46.959-24.377 83.246-19.689 36.287 4.687 53.363 19.689 74.708 19.689s54.43-23.44 81.111-19.689c26.682 3.75 53.363 19.689 65.103 19.689h14.942c21.345 0 46.959-24.377 83.246-19.689 36.286 4.687 53.363 19.689 74.708 19.689s54.43-23.44 81.111-19.689c26.682 3.75 53.36 19.689 65.1 19.689h14.94c21.35 0 46.96-24.377 83.25-19.689 36.29 4.687 53.36 19.689 74.71 19.689 21.34 0 46.96-24.377 83.24-19.689 36.29 4.688 53.37 19.689 74.71 19.689 21.35 0 54.43-23.44 81.11-19.689 26.69 3.75 53.37 19.689 65.11 19.689h14.94c21.34 0 46.96-24.377 83.24-19.689 36.29 4.688 53.37 19.689 74.71 19.689 21.35 0 54.43-23.44 81.11-19.689 26.68 3.75 53.37 19.689 65.11 19.689h14.94c21.34 0 46.96-24.377 83.24-19.689 36.29 4.687 53.37 19.689 74.71 19.689 21.35 0 46.96-24.377 83.25-19.689 36.28 4.687 53.36 19.689 74.71 19.689" stroke="#F4F4F4" stroke-width="2" stroke-linecap="round" stroke-linejoin="round"/><path d="M1.848 123.938c14.586-.312 51.015 2.625 80.045 16.876 36.286 17.814 57.632-16.876 96.053-16.876s58.699 19.689 74.708 19.689 50.161-26.252 83.246-19.689c33.085 6.563 54.43 19.689 75.775 19.689 21.345 0 46.959-24.377 83.246-19.689 36.287 4.688 53.363 19.689 74.708 19.689s54.43-23.439 81.111-19.689c26.682 3.75 53.363 19.689 65.103 19.689h14.942c21.345 0 46.959-24.377 83.246-19.689 36.286 4.688 53.363 19.689 74.708 19.689s54.43-23.439 81.111-19.689c26.682 3.75 53.36 19.689 65.1 19.689h14.94c21.35 0 46.96-24.377 83.25-19.689 36.29 4.688 53.36 19.689 74.71 19.689 21.34 0 46.96-24.377 83.24-19.689 36.29 4.688 53.37 19.689 74.71 19.689 21.35 0 54.43-23.439 81.11-19.689 26.69 3.75 53.37 19.689 65.11 19.689h14.94c21.34 0 46.96-24.377 83.24-19.689 36.29 4.688 53.37 19.689 74.71 19.689 21.35 0 54.43-23.439 81.11-19.689s53.37 19.689 65.11 19.689h14.94c21.34 0 46.96-24.377 83.24-19.689 36.29 4.688 53.37 19.689 74.71 19.689 21.35 0 46.96-24.377 83.25-19.689 36.28 4.688 53.36 19.689 74.71 19.689" stroke="#F4F4F4" stroke-width="2" stroke-linecap="round" stroke-linejoin="round"/><path d="M1.848 107.062c14.586-.313 51.015 2.625 80.045 16.876 36.286 17.814 57.632-16.876 96.053-16.876s58.699 19.689 74.708 19.689 50.161-26.252 83.246-19.689c33.085 6.563 54.43 19.689 75.775 19.689 21.345 0 46.959-24.377 83.246-19.689 36.287 4.688 53.363 19.689 74.708 19.689s54.43-23.439 81.111-19.689c26.682 3.75 53.363 19.689 65.103 19.689h14.942c21.345 0 46.959-24.377 83.246-19.689 36.286 4.688 53.363 19.689 74.708 19.689s54.43-23.439 81.111-19.689c26.682 3.75 53.36 19.689 65.1 19.689h14.94c21.35 0 46.96-24.377 83.25-19.689 36.29 4.688 53.36 19.689 74.71 19.689 21.34 0 46.96-24.377 83.24-19.689 36.29 4.688 53.37 19.689 74.71 19.689 21.35 0 54.43-23.439 81.11-19.689 26.69 3.75 53.37 19.689 65.11 19.689h14.94c21.34 0 46.96-24.377 83.24-19.689 36.29 4.688 53.37 19.689 74.71 19.689 21.35 0 54.43-23.439 81.11-19.689s53.37 19.689 65.11 19.689h14.94c21.34 0 46.96-24.377 83.24-19.689 36.29 4.688 53.37 19.689 74.71 19.689 21.35 0 46.96-24.377 83.25-19.689 36.28 4.688 53.36 19.689 74.71 19.689" stroke="#F4F4F4" stroke-width="2" stroke-linecap="round" stroke-linejoin="round"/><path d="M1.848 89.428c14.586-.313 51.015 2.625 80.045 16.876 36.286 17.814 57.632-16.876 96.053-16.876s58.699 19.689 74.708 19.689 50.161-26.252 83.246-19.69c33.085 6.564 54.43 19.69 75.775 19.69 21.345 0 46.959-24.377 83.246-19.69 36.287 4.688 53.363 19.69 74.708 19.69s54.43-23.44 81.111-19.69c26.682 3.751 53.363 19.69 65.103 19.69h14.942c21.345 0 46.959-24.377 83.246-19.69 36.286 4.688 53.363 19.69 74.708 19.69s54.43-23.44 81.111-19.69c26.682 3.751 53.36 19.69 65.1 19.69h14.94c21.35 0 46.96-24.377 83.25-19.69 36.29 4.688 53.36 19.69 74.71 19.69 21.34 0 46.96-24.377 83.24-19.69 36.29 4.688 53.37 19.69 74.71 19.69 21.35 0 54.43-23.44 81.11-19.69 26.69 3.75 53.37 19.69 65.11 19.69h14.94c21.34 0 46.96-24.377 83.24-19.69 36.29 4.688 53.37 19.69 74.71 19.69 21.35 0 54.43-23.44 81.11-19.69s53.37 19.69 65.11 19.69h14.94c21.34 0 46.96-24.377 83.24-19.69 36.29 4.688 53.37 19.69 74.71 19.69 21.35 0 46.96-24.377 83.25-19.69 36.28 4.688 53.36 19.69 74.71 19.69" stroke="#F4F4F4" stroke-width="2" stroke-linecap="round" stroke-linejoin="round"/><path d="M1.848 73.309c14.586-.313 51.015 2.625 80.045 16.876C118.179 108 139.525 73.31 177.946 73.31s58.699 19.689 74.708 19.689 50.161-26.252 83.246-19.69c33.085 6.564 54.43 19.69 75.775 19.69 21.345 0 46.959-24.377 83.246-19.69 36.287 4.689 53.363 19.69 74.708 19.69s54.43-23.44 81.111-19.69c26.682 3.751 53.363 19.69 65.103 19.69h14.942c21.345 0 46.959-24.377 83.246-19.69 36.286 4.689 53.363 19.69 74.708 19.69s54.43-23.44 81.111-19.69c26.682 3.751 53.36 19.69 65.1 19.69h14.94c21.35 0 46.96-24.377 83.25-19.69 36.29 4.689 53.36 19.69 74.71 19.69 21.34 0 46.96-24.377 83.24-19.69 36.29 4.689 53.37 19.69 74.71 19.69 21.35 0 54.43-23.44 81.11-19.69 26.69 3.751 53.37 19.69 65.11 19.69h14.94c21.34 0 46.96-24.377 83.24-19.69 36.29 4.689 53.37 19.69 74.71 19.69 21.35 0 54.43-23.44 81.11-19.69 26.68 3.751 53.37 19.69 65.11 19.69h14.94c21.34 0 46.96-24.377 83.24-19.69 36.29 4.689 53.37 19.69 74.71 19.69 21.35 0 46.96-24.377 83.25-19.69 36.28 4.689 53.36 19.69 74.71 19.69" stroke="#F4F4F4" stroke-width="2" stroke-linecap="round" stroke-linejoin="round"/><path d="M1.848 54.557c14.586-.312 51.015 2.625 80.045 16.877 36.286 17.814 57.632-16.877 96.053-16.877s58.699 19.69 74.708 19.69 50.161-26.253 83.246-19.69c33.085 6.563 54.43 19.69 75.775 19.69 21.345 0 46.959-24.378 83.246-19.69 36.287 4.688 53.363 19.69 74.708 19.69s54.43-23.44 81.111-19.69c26.682 3.75 53.363 19.69 65.103 19.69h14.942c21.345 0 46.959-24.378 83.246-19.69 36.286 4.688 53.363 19.69 74.708 19.69s54.43-23.44 81.111-19.69c26.682 3.75 53.36 19.69 65.1 19.69h14.94c21.35 0 46.96-24.378 83.25-19.69 36.29 4.688 53.36 19.69 74.71 19.69 21.34 0 46.96-24.378 83.24-19.69 36.29 4.688 53.37 19.69 74.71 19.69 21.35 0 54.43-23.44 81.11-19.69 26.69 3.75 53.37 19.69 65.11 19.69h14.94c21.34 0 46.96-24.378 83.24-19.69 36.29 4.688 53.37 19.69 74.71 19.69 21.35 0 54.43-23.44 81.11-19.69s53.37 19.69 65.11 19.69h14.94c21.34 0 46.96-24.378 83.24-19.69 36.29 4.688 53.37 19.69 74.71 19.69 21.35 0 46.96-24.378 83.25-19.69 36.28 4.688 53.36 19.69 74.71 19.69" stroke="#F4F4F4" stroke-width="2" stroke-linecap="round" stroke-linejoin="round"/><path d="M1.848 37.68c14.586-.312 51.015 2.626 80.045 16.877 36.286 17.814 57.632-16.876 96.053-16.876s58.699 19.689 74.708 19.689 50.161-26.252 83.246-19.69c33.085 6.564 54.43 19.69 75.775 19.69 21.345 0 46.959-24.377 83.246-19.69 36.287 4.689 53.363 19.69 74.708 19.69s54.43-23.44 81.111-19.69c26.682 3.751 53.363 19.69 65.103 19.69h14.942c21.345 0 46.959-24.377 83.246-19.69 36.286 4.689 53.363 19.69 74.708 19.69s54.43-23.44 81.111-19.69c26.682 3.751 53.36 19.69 65.1 19.69h14.94c21.35 0 46.96-24.377 83.25-19.69 36.29 4.689 53.36 19.69 74.71 19.69 21.34 0 46.96-24.377 83.24-19.69 36.29 4.689 53.37 19.69 74.71 19.69 21.35 0 54.43-23.44 81.11-19.69 26.69 3.751 53.37 19.69 65.11 19.69h14.94c21.34 0 46.96-24.377 83.24-19.69 36.29 4.689 53.37 19.69 74.71 19.69 21.35 0 54.43-23.44 81.11-19.69 26.68 3.751 53.37 19.69 65.11 19.69h14.94c21.34 0 46.96-24.377 83.24-19.69 36.29 4.689 53.37 19.69 74.71 19.69 21.35 0 46.96-24.377 83.25-19.69 36.28 4.689 53.36 19.69 74.71 19.69" stroke="#F4F4F4" stroke-width="2" stroke-linecap="round" stroke-linejoin="round"/><path d="M1.848 20.805c14.586-.313 51.015 2.625 80.045 16.876 36.286 17.814 57.632-16.876 96.053-16.876s58.699 19.69 74.708 19.69 50.161-26.253 83.246-19.69c33.085 6.563 54.43 19.69 75.775 19.69 21.345 0 46.959-24.378 83.246-19.69 36.287 4.688 53.363 19.69 74.708 19.69s54.43-23.44 81.111-19.69c26.682 3.75 53.363 19.69 65.103 19.69h14.942c21.345 0 46.959-24.378 83.246-19.69 36.286 4.688 53.363 19.69 74.708 19.69s54.43-23.44 81.111-19.69c26.682 3.75 53.36 19.69 65.1 19.69h14.94c21.35 0 46.96-24.378 83.25-19.69 36.29 4.688 53.36 19.69 74.71 19.69 21.34 0 46.96-24.378 83.24-19.69 36.29 4.688 53.37 19.69 74.71 19.69 21.35 0 54.43-23.44 81.11-19.69 26.69 3.75 53.37 19.69 65.11 19.69h14.94c21.34 0 46.96-24.378 83.24-19.69 36.29 4.688 53.37 19.69 74.71 19.69 21.35 0 54.43-23.44 81.11-19.69s53.37 19.69 65.11 19.69h14.94c21.34 0 46.96-24.378 83.24-19.69 36.29 4.688 53.37 19.69 74.71 19.69 21.35 0 46.96-24.378 83.25-19.69 36.28 4.688 53.36 19.69 74.71 19.69" stroke="#F4F4F4" stroke-width="2" stroke-linecap="round" stroke-linejoin="round"/><path d="M1.848 2.053C16.434 1.741 52.863 4.68 81.893 18.93c36.286 17.814 57.632-16.877 96.053-16.877s58.699 19.69 74.708 19.69S302.815-4.51 335.9 2.052c33.085 6.563 54.43 19.69 75.775 19.69 21.345 0 46.959-24.378 83.246-19.69 36.287 4.688 53.363 19.69 74.708 19.69s54.43-23.44 81.112-19.69c26.681 3.75 53.362 19.69 65.102 19.69h14.942c21.345 0 46.959-24.378 83.246-19.69 36.286 4.688 53.363 19.69 74.708 19.69s54.43-23.44 81.111-19.69c26.682 3.75 53.36 19.69 65.1 19.69h14.94c21.35 0 46.96-24.378 83.25-19.69 36.29 4.688 53.36 19.69 74.71 19.69" stroke="#F4F4F4" stroke-width="2" stroke-linecap="round" stroke-linejoin="round"/></svg>