<svg width="1920" height="340" fill="none" xmlns="http://www.w3.org/2000/svg"><path d="M-168 316.962c14.586-.312 51.015 2.626 80.044 16.877 36.287 17.814 57.632-16.877 96.053-16.877 38.422 0 58.7 19.69 74.708 19.69 16.01 0 50.161-26.253 83.246-19.69 33.085 6.563 54.43 19.69 75.776 19.69 21.345 0 46.959-24.377 83.246-19.69 36.286 4.688 53.362 19.69 74.708 19.69 21.345 0 54.43-23.44 81.111-19.69 26.681 3.751 53.363 19.69 65.103 19.69h14.941" stroke="#F4F4F4" stroke-width="2" stroke-linecap="round" stroke-linejoin="round"/><path d="M-168 298.327c14.586-.313 51.015 2.625 80.044 16.876 36.287 17.814 57.632-16.876 96.053-16.876 38.422 0 58.7 19.689 74.708 19.689 16.01 0 50.161-26.252 83.246-19.689 33.085 6.563 54.43 19.689 75.776 19.689 21.345 0 46.959-24.377 83.246-19.689 36.286 4.688 53.362 19.689 74.708 19.689 21.345 0 54.43-23.44 81.111-19.689 26.681 3.75 53.363 19.689 65.103 19.689h14.941" stroke="#F4F4F4" stroke-width="2" stroke-linecap="round" stroke-linejoin="round"/><path d="M-168 279.575c14.586-.312 51.015 2.625 80.044 16.876 36.287 17.814 57.632-16.876 96.053-16.876 38.422 0 58.7 19.689 74.708 19.689 16.01 0 50.161-26.252 83.246-19.689 33.085 6.563 54.43 19.689 75.776 19.689 21.345 0 46.959-24.377 83.246-19.689 36.286 4.688 53.362 19.689 74.708 19.689 21.345 0 54.43-23.439 81.111-19.689 26.682 3.75 53.363 19.689 65.103 19.689h14.941c21.345 0 46.96-24.376 83.246-19.688 36.287 4.687 53.363 19.689 74.708 19.689 21.346 0 54.43-23.44 81.112-19.689 26.681 3.75 53.363 19.689 65.102 19.689h14.942c21.345 0 46.959-24.377 83.246-19.689 36.287 4.687 53.358 19.689 74.708 19.689" stroke="#F4F4F4" stroke-width="2" stroke-linecap="round" stroke-linejoin="round"/><path d="M-168 262.699c14.586-.313 51.015 2.625 80.044 16.876 36.287 17.814 57.632-16.876 96.053-16.876 38.422 0 58.7 19.689 74.708 19.689 16.01 0 50.161-26.252 83.246-19.689 33.085 6.563 54.43 19.689 75.776 19.689 21.345 0 46.959-24.377 83.246-19.689 36.286 4.688 53.362 19.689 74.708 19.689 21.345 0 54.43-23.44 81.111-19.689 26.682 3.75 53.363 19.689 65.103 19.689h14.941c21.345 0 46.96-24.377 83.246-19.689 36.287 4.688 53.363 19.689 74.708 19.689 21.346 0 54.43-23.439 81.112-19.689 26.681 3.75 53.363 19.689 65.102 19.689h14.942c21.345 0 46.959-24.377 83.246-19.689 36.287 4.688 53.358 19.689 74.708 19.689" stroke="#F4F4F4" stroke-width="2" stroke-linecap="round" stroke-linejoin="round"/><path d="M-168 245.823c14.586-.313 51.015 2.625 80.044 16.876 36.287 17.814 57.632-16.876 96.053-16.876 38.422 0 58.7 19.689 74.708 19.689 16.01 0 50.161-26.252 83.246-19.689 33.085 6.563 54.43 19.689 75.776 19.689 21.345 0 46.959-24.377 83.246-19.689 36.286 4.688 53.362 19.689 74.708 19.689 21.345 0 54.43-23.44 81.111-19.689 26.682 3.75 53.363 19.689 65.103 19.689h14.941c21.345 0 46.96-24.377 83.246-19.689 36.287 4.688 53.363 19.689 74.708 19.689 21.346 0 54.43-23.44 81.112-19.689 26.681 3.75 53.363 19.689 65.102 19.689h14.942c21.345 0 46.959-24.377 83.246-19.689 36.287 4.688 53.358 19.689 74.708 19.689" stroke="#F4F4F4" stroke-width="2" stroke-linecap="round" stroke-linejoin="round"/><path d="M-168 227.071c14.586-.312 51.015 2.625 80.044 16.876 36.287 17.814 57.632-16.876 96.053-16.876 38.422 0 58.7 19.689 74.708 19.689 16.01 0 50.161-26.252 83.246-19.689 33.085 6.563 54.43 19.689 75.776 19.689 21.345 0 46.959-24.377 83.246-19.689 36.286 4.688 53.362 19.689 74.708 19.689 21.345 0 54.43-23.439 81.111-19.689 26.682 3.75 53.363 19.689 65.103 19.689h14.941c21.345 0 46.96-24.377 83.246-19.689 36.287 4.688 53.363 19.689 74.708 19.689 21.346 0 54.43-23.439 81.112-19.689 26.681 3.75 53.363 19.689 65.102 19.689h14.942c21.345 0 46.959-24.377 83.246-19.689 36.287 4.688 53.358 19.689 74.708 19.689s46.96-24.377 83.25-19.689c36.28 4.688 53.36 19.689 74.7 19.689 21.35 0 54.43-23.439 81.12-19.689 26.68 3.75 53.36 19.689 65.1 19.689h14.94c21.34 0 46.96-24.377 83.25-19.689 36.28 4.688 53.36 19.689 74.7 19.689 21.35 0 54.43-23.439 81.12-19.689 26.68 3.75 53.36 19.689 65.1 19.689h14.94c21.34 0 46.96-24.377 83.25-19.689 36.28 4.688 53.36 19.689 74.7 19.689 21.35 0 46.96-24.377 83.25-19.689 36.29 4.688 53.36 19.689 74.71 19.689" stroke="#F4F4F4" stroke-width="2" stroke-linecap="round" stroke-linejoin="round"/><path d="M-168 212.07c14.586-.312 51.015 2.625 80.044 16.876 36.287 17.814 57.632-16.876 96.053-16.876 38.422 0 58.7 19.689 74.708 19.689 16.01 0 50.161-26.252 83.246-19.689 33.085 6.563 54.43 19.689 75.776 19.689 21.345 0 46.959-24.377 83.246-19.689 36.286 4.688 53.362 19.689 74.708 19.689 21.345 0 54.43-23.439 81.111-19.689 26.682 3.75 53.363 19.689 65.103 19.689h14.941c21.345 0 46.96-24.377 83.246-19.689 36.287 4.688 53.363 19.689 74.708 19.689 21.346 0 54.43-23.439 81.112-19.689 26.681 3.75 53.363 19.689 65.102 19.689h14.942c21.345 0 46.959-24.377 83.246-19.689 36.287 4.688 53.358 19.689 74.708 19.689s46.96-24.377 83.25-19.689c36.28 4.688 53.36 19.689 74.7 19.689 21.35 0 54.43-23.439 81.12-19.689 26.68 3.75 53.36 19.689 65.1 19.689h14.94c21.34 0 46.96-24.377 83.25-19.689 36.28 4.688 53.36 19.689 74.7 19.689 21.35 0 54.43-23.439 81.12-19.689 26.68 3.75 53.36 19.689 65.1 19.689h14.94c21.34 0 46.96-24.377 83.25-19.689 36.28 4.688 53.36 19.689 74.7 19.689 21.35 0 46.96-24.377 83.25-19.689 36.29 4.688 53.36 19.689 74.71 19.689" stroke="#F4F4F4" stroke-width="2" stroke-linecap="round" stroke-linejoin="round"/><path d="M-168 193.318c14.586-.312 51.015 2.625 80.044 16.877 36.287 17.813 57.632-16.877 96.053-16.877 38.422 0 58.7 19.689 74.708 19.689 16.01 0 50.161-26.252 83.246-19.689 33.085 6.563 54.43 19.689 75.776 19.689 21.345 0 46.959-24.377 83.246-19.689 36.286 4.688 53.362 19.689 74.708 19.689 21.345 0 54.43-23.439 81.111-19.689 26.682 3.751 53.363 19.689 65.103 19.689h14.941c21.345 0 46.96-24.377 83.246-19.689 36.287 4.688 53.363 19.689 74.708 19.689 21.346 0 54.43-23.439 81.112-19.689 26.681 3.751 53.363 19.689 65.102 19.689h14.942c21.345 0 46.959-24.377 83.246-19.689 36.287 4.688 53.358 19.689 74.708 19.689s46.96-24.377 83.25-19.689c36.28 4.688 53.36 19.689 74.7 19.689 21.35 0 54.43-23.439 81.12-19.689 26.68 3.751 53.36 19.689 65.1 19.689h14.94c21.34 0 46.96-24.377 83.25-19.689 36.28 4.688 53.36 19.689 74.7 19.689 21.35 0 54.43-23.439 81.12-19.689 26.68 3.751 53.36 19.689 65.1 19.689h14.94c21.34 0 46.96-24.377 83.25-19.689 36.28 4.688 53.36 19.689 74.7 19.689 21.35 0 46.96-24.377 83.25-19.689 36.29 4.688 53.36 19.689 74.71 19.689" stroke="#F4F4F4" stroke-width="2" stroke-linecap="round" stroke-linejoin="round"/><path d="M-168 178.318c14.586-.313 51.015 2.625 80.044 16.876 36.287 17.814 57.632-16.876 96.053-16.876 38.422 0 58.7 19.689 74.708 19.689 16.01 0 50.161-26.252 83.246-19.689 33.085 6.563 54.43 19.689 75.776 19.689 21.345 0 46.959-24.377 83.246-19.689 36.286 4.688 53.362 19.689 74.708 19.689 21.345 0 54.43-23.44 81.111-19.689 26.682 3.75 53.363 19.689 65.103 19.689h14.941c21.345 0 46.96-24.377 83.246-19.689 36.287 4.688 53.363 19.689 74.708 19.689 21.346 0 54.43-23.44 81.112-19.689 26.681 3.75 53.363 19.689 65.102 19.689h14.942c21.345 0 46.959-24.377 83.246-19.689 36.287 4.688 53.358 19.689 74.708 19.689s46.96-24.377 83.25-19.689c36.28 4.688 53.36 19.689 74.7 19.689 21.35 0 54.43-23.44 81.12-19.689 26.68 3.75 53.36 19.689 65.1 19.689h14.94c21.34 0 46.96-24.377 83.25-19.689 36.28 4.688 53.36 19.689 74.7 19.689 21.35 0 54.43-23.44 81.12-19.689 26.68 3.75 53.36 19.689 65.1 19.689h14.94c21.34 0 46.96-24.377 83.25-19.689 36.28 4.688 53.36 19.689 74.7 19.689 21.35 0 46.96-24.377 83.25-19.689 36.29 4.688 53.36 19.689 74.71 19.689" stroke="#F4F4F4" stroke-width="2" stroke-linecap="round" stroke-linejoin="round"/><path d="M-168 159.566c14.586-.313 51.015 2.625 80.044 16.876 36.287 17.814 57.632-16.876 96.053-16.876 38.422 0 58.7 19.689 74.708 19.689 16.01 0 50.161-26.252 83.246-19.689 33.085 6.563 54.43 19.689 75.776 19.689 21.345 0 46.959-24.377 83.246-19.689 36.286 4.688 53.362 19.689 74.708 19.689 21.345 0 54.43-23.44 81.111-19.689 26.682 3.75 53.363 19.689 65.103 19.689h14.941c21.345 0 46.96-24.377 83.246-19.689 36.287 4.688 53.363 19.689 74.708 19.689 21.346 0 54.43-23.44 81.112-19.689 26.681 3.75 53.363 19.689 65.102 19.689h14.942c21.345 0 46.959-24.377 83.246-19.689 36.287 4.688 53.358 19.689 74.708 19.689s46.96-24.377 83.25-19.689c36.28 4.688 53.36 19.689 74.7 19.689 21.35 0 54.43-23.439 81.12-19.689 26.68 3.75 53.36 19.689 65.1 19.689h14.94c21.34 0 46.96-24.377 83.25-19.689 36.28 4.688 53.36 19.689 74.7 19.689 21.35 0 54.43-23.44 81.12-19.689 26.68 3.75 53.36 19.689 65.1 19.689h14.94c21.34 0 46.96-24.377 83.25-19.689 36.28 4.688 53.36 19.689 74.7 19.689 21.35 0 46.96-24.377 83.25-19.689 36.29 4.688 53.36 19.689 74.71 19.689" stroke="#F4F4F4" stroke-width="2" stroke-linecap="round" stroke-linejoin="round"/><path d="M-168 142.69c14.586-.313 51.015 2.625 80.044 16.876 36.287 17.814 57.632-16.876 96.053-16.876 38.422 0 58.7 19.689 74.708 19.689 16.01 0 50.161-26.252 83.246-19.689 33.085 6.563 54.43 19.689 75.776 19.689 21.345 0 46.959-24.377 83.246-19.689 36.286 4.688 53.362 19.689 74.708 19.689 21.345 0 54.43-23.44 81.111-19.689 26.682 3.75 53.363 19.689 65.103 19.689h14.941c21.345 0 46.96-24.377 83.246-19.689 36.287 4.688 53.363 19.689 74.708 19.689 21.346 0 54.43-23.44 81.112-19.689 26.681 3.75 53.363 19.689 65.102 19.689h14.942c21.345 0 46.959-24.377 83.246-19.689 36.287 4.688 53.358 19.689 74.708 19.689s46.96-24.377 83.25-19.689c36.28 4.688 53.36 19.689 74.7 19.689 21.35 0 54.43-23.44 81.12-19.689 26.68 3.75 53.36 19.689 65.1 19.689h14.94c21.34 0 46.96-24.377 83.25-19.689 36.28 4.688 53.36 19.689 74.7 19.689 21.35 0 54.43-23.44 81.12-19.689 26.68 3.75 53.36 19.689 65.1 19.689h14.94c21.34 0 46.96-24.377 83.25-19.689 36.28 4.688 53.36 19.689 74.7 19.689 21.35 0 46.96-24.377 83.25-19.689 36.29 4.688 53.36 19.689 74.71 19.689" stroke="#F4F4F4" stroke-width="2" stroke-linecap="round" stroke-linejoin="round"/><path d="M-168 123.938c14.586-.312 51.015 2.625 80.044 16.876 36.287 17.814 57.632-16.876 96.053-16.876 38.422 0 58.7 19.689 74.708 19.689 16.01 0 50.161-26.252 83.246-19.689 33.085 6.563 54.43 19.689 75.776 19.689 21.345 0 46.959-24.377 83.246-19.689 36.286 4.688 53.362 19.689 74.708 19.689 21.345 0 54.43-23.439 81.111-19.689 26.682 3.75 53.363 19.689 65.103 19.689h14.941c21.345 0 46.96-24.377 83.246-19.689 36.287 4.688 53.363 19.689 74.708 19.689 21.346 0 54.43-23.439 81.112-19.689 26.681 3.75 53.363 19.689 65.102 19.689h14.942c21.345 0 46.959-24.377 83.246-19.689 36.287 4.688 53.358 19.689 74.708 19.689s46.96-24.377 83.25-19.689c36.28 4.688 53.36 19.689 74.7 19.689 21.35 0 54.43-23.439 81.12-19.689 26.68 3.75 53.36 19.689 65.1 19.689h14.94c21.34 0 46.96-24.377 83.25-19.689 36.28 4.688 53.36 19.689 74.7 19.689 21.35 0 54.43-23.439 81.12-19.689 26.68 3.75 53.36 19.689 65.1 19.689h14.94c21.34 0 46.96-24.377 83.25-19.689 36.28 4.688 53.36 19.689 74.7 19.689 21.35 0 46.96-24.377 83.25-19.689 36.29 4.688 53.36 19.689 74.71 19.689" stroke="#F4F4F4" stroke-width="2" stroke-linecap="round" stroke-linejoin="round"/><path d="M-168 107.062c14.586-.313 51.015 2.625 80.044 16.876 36.287 17.814 57.632-16.876 96.053-16.876 38.422 0 58.7 19.689 74.708 19.689 16.01 0 50.161-26.252 83.246-19.689 33.085 6.563 54.43 19.689 75.776 19.689 21.345 0 46.959-24.377 83.246-19.689 36.286 4.688 53.362 19.689 74.708 19.689 21.345 0 54.43-23.439 81.111-19.689 26.682 3.75 53.363 19.689 65.103 19.689h14.941c21.345 0 46.96-24.377 83.246-19.689 36.287 4.688 53.363 19.689 74.708 19.689 21.346 0 54.43-23.439 81.112-19.689 26.681 3.75 53.363 19.689 65.102 19.689h14.942c21.345 0 46.959-24.377 83.246-19.689 36.287 4.688 53.358 19.689 74.708 19.689s46.96-24.377 83.25-19.689c36.28 4.688 53.36 19.689 74.7 19.689 21.35 0 54.43-23.439 81.12-19.689 26.68 3.75 53.36 19.689 65.1 19.689h14.94c21.34 0 46.96-24.377 83.25-19.689 36.28 4.688 53.36 19.689 74.7 19.689 21.35 0 54.43-23.439 81.12-19.689 26.68 3.75 53.36 19.689 65.1 19.689h14.94c21.34 0 46.96-24.377 83.25-19.689 36.28 4.688 53.36 19.689 74.7 19.689 21.35 0 46.96-24.377 83.25-19.689 36.29 4.688 53.36 19.689 74.71 19.689" stroke="#F4F4F4" stroke-width="2" stroke-linecap="round" stroke-linejoin="round"/><path d="M-168 89.427c14.586-.312 51.015 2.626 80.044 16.877 36.287 17.814 57.632-16.877 96.053-16.877 38.422 0 58.7 19.69 74.708 19.69 16.01 0 50.161-26.253 83.246-19.69 33.085 6.563 54.43 19.69 75.776 19.69 21.345 0 46.959-24.377 83.246-19.69 36.286 4.688 53.362 19.69 74.708 19.69 21.345 0 54.43-23.44 81.111-19.69 26.682 3.75 53.363 19.69 65.103 19.69h14.941c21.345 0 46.96-24.377 83.246-19.69 36.287 4.688 53.363 19.69 74.708 19.69 21.346 0 54.43-23.44 81.112-19.69 26.681 3.75 53.363 19.69 65.102 19.69h14.942c21.345 0 46.959-24.377 83.246-19.69 36.287 4.688 53.358 19.69 74.708 19.69s46.96-24.377 83.25-19.69c36.28 4.688 53.36 19.69 74.7 19.69 21.35 0 54.43-23.44 81.12-19.69 26.68 3.75 53.36 19.69 65.1 19.69h14.94c21.34 0 46.96-24.377 83.25-19.69 36.28 4.688 53.36 19.69 74.7 19.69 21.35 0 54.43-23.44 81.12-19.69 26.68 3.75 53.36 19.69 65.1 19.69h14.94c21.34 0 46.96-24.377 83.25-19.69 36.28 4.688 53.36 19.69 74.7 19.69 21.35 0 46.96-24.377 83.25-19.69 36.29 4.688 53.36 19.69 74.71 19.69" stroke="#F4F4F4" stroke-width="2" stroke-linecap="round" stroke-linejoin="round"/><path d="M-168 73.309c14.586-.313 51.015 2.625 80.044 16.876C-51.669 108-30.324 73.31 8.097 73.31c38.422 0 58.7 19.689 74.708 19.689 16.01 0 50.161-26.252 83.246-19.69 33.085 6.564 54.43 19.69 75.776 19.69 21.345 0 46.959-24.377 83.246-19.69 36.286 4.689 53.362 19.69 74.708 19.69 21.345 0 54.43-23.44 81.111-19.69 26.682 3.751 53.363 19.69 65.103 19.69h14.941c21.345 0 46.96-24.377 83.246-19.69 36.287 4.689 53.363 19.69 74.708 19.69 21.346 0 54.43-23.44 81.112-19.69 26.681 3.751 53.363 19.69 65.102 19.69h14.942c21.345 0 46.959-24.377 83.246-19.69 36.287 4.689 53.358 19.69 74.708 19.69s46.96-24.377 83.25-19.69c36.28 4.689 53.36 19.69 74.7 19.69 21.35 0 54.43-23.44 81.12-19.69 26.68 3.751 53.36 19.69 65.1 19.69h14.94c21.34 0 46.96-24.377 83.25-19.69 36.28 4.689 53.36 19.69 74.7 19.69 21.35 0 54.43-23.44 81.12-19.69 26.68 3.751 53.36 19.69 65.1 19.69h14.94c21.34 0 46.96-24.377 83.25-19.69 36.28 4.689 53.36 19.69 74.7 19.69 21.35 0 46.96-24.377 83.25-19.69 36.29 4.689 53.36 19.69 74.71 19.69" stroke="#F4F4F4" stroke-width="2" stroke-linecap="round" stroke-linejoin="round"/><path d="M-168 54.557c14.586-.312 51.015 2.625 80.044 16.877 36.287 17.814 57.632-16.877 96.053-16.877 38.422 0 58.7 19.69 74.708 19.69 16.01 0 50.161-26.253 83.246-19.69 33.085 6.563 54.43 19.69 75.776 19.69 21.345 0 46.959-24.378 83.246-19.69 36.286 4.688 53.362 19.69 74.708 19.69 21.345 0 54.43-23.44 81.111-19.69 26.682 3.75 53.363 19.69 65.103 19.69h14.941c21.345 0 46.96-24.378 83.246-19.69 36.287 4.688 53.363 19.69 74.708 19.69 21.346 0 54.43-23.44 81.112-19.69 26.681 3.75 53.363 19.69 65.102 19.69h14.942c21.345 0 46.959-24.378 83.246-19.69 36.287 4.688 53.358 19.69 74.708 19.69s46.96-24.378 83.25-19.69c36.28 4.688 53.36 19.69 74.7 19.69 21.35 0 54.43-23.44 81.12-19.69 26.68 3.75 53.36 19.69 65.1 19.69h14.94c21.34 0 46.96-24.378 83.25-19.69 36.28 4.688 53.36 19.69 74.7 19.69 21.35 0 54.43-23.44 81.12-19.69 26.68 3.75 53.36 19.69 65.1 19.69h14.94c21.34 0 46.96-24.378 83.25-19.69 36.28 4.688 53.36 19.69 74.7 19.69 21.35 0 46.96-24.378 83.25-19.69 36.29 4.688 53.36 19.69 74.71 19.69" stroke="#F4F4F4" stroke-width="2" stroke-linecap="round" stroke-linejoin="round"/><path d="M-168 37.68c14.586-.312 51.015 2.626 80.044 16.877 36.287 17.814 57.632-16.876 96.053-16.876 38.422 0 58.7 19.689 74.708 19.689 16.01 0 50.161-26.252 83.246-19.69 33.085 6.564 54.43 19.69 75.776 19.69 21.345 0 46.959-24.377 83.246-19.69 36.286 4.689 53.362 19.69 74.708 19.69 21.345 0 54.43-23.44 81.111-19.69 26.682 3.751 53.363 19.69 65.103 19.69h14.941c21.345 0 46.96-24.377 83.246-19.69 36.287 4.689 53.363 19.69 74.708 19.69 21.346 0 54.43-23.44 81.112-19.69 26.681 3.751 53.363 19.69 65.102 19.69h14.942c21.345 0 46.959-24.377 83.246-19.69 36.287 4.689 53.358 19.69 74.708 19.69s46.96-24.377 83.25-19.69c36.28 4.689 53.36 19.69 74.7 19.69 21.35 0 54.43-23.44 81.12-19.69 26.68 3.751 53.36 19.69 65.1 19.69h14.94c21.34 0 46.96-24.377 83.25-19.69 36.28 4.689 53.36 19.69 74.7 19.69 21.35 0 54.43-23.44 81.12-19.69 26.68 3.751 53.36 19.69 65.1 19.69h14.94c21.34 0 46.96-24.377 83.25-19.69 36.28 4.689 53.36 19.69 74.7 19.69 21.35 0 46.96-24.377 83.25-19.69 36.29 4.689 53.36 19.69 74.71 19.69" stroke="#F4F4F4" stroke-width="2" stroke-linecap="round" stroke-linejoin="round"/><path d="M-168 20.805c14.586-.313 51.015 2.625 80.044 16.876 36.287 17.814 57.632-16.876 96.053-16.876 38.422 0 58.7 19.69 74.708 19.69 16.01 0 50.161-26.253 83.246-19.69 33.085 6.563 54.43 19.69 75.776 19.69 21.345 0 46.959-24.378 83.246-19.69 36.286 4.688 53.362 19.69 74.708 19.69 21.345 0 54.43-23.44 81.111-19.69 26.682 3.75 53.363 19.69 65.103 19.69h14.941c21.345 0 46.96-24.378 83.246-19.69 36.287 4.688 53.363 19.69 74.708 19.69 21.346 0 54.43-23.44 81.112-19.69 26.681 3.75 53.363 19.69 65.102 19.69h14.942c21.345 0 46.959-24.378 83.246-19.69 36.287 4.688 53.358 19.69 74.708 19.69s46.96-24.378 83.25-19.69c36.28 4.688 53.36 19.689 74.7 19.689 21.35 0 54.43-23.44 81.12-19.689 26.68 3.75 53.36 19.689 65.1 19.689h14.94c21.34 0 46.96-24.377 83.25-19.689 36.28 4.688 53.36 19.689 74.7 19.689 21.35 0 54.43-23.44 81.12-19.689 26.68 3.75 53.36 19.689 65.1 19.689h14.94c21.34 0 46.96-24.377 83.25-19.689 36.28 4.688 53.36 19.689 74.7 19.689 21.35 0 46.96-24.377 83.25-19.689 36.29 4.688 53.36 19.69 74.71 19.69" stroke="#F4F4F4" stroke-width="2" stroke-linecap="round" stroke-linejoin="round"/><path d="M-168 2.053c14.586-.312 51.015 2.626 80.044 16.877C-51.669 36.744-30.324 2.053 8.097 2.053c38.422 0 58.7 19.69 74.708 19.69 16.01 0 50.161-26.253 83.246-19.69 33.085 6.563 54.43 19.69 75.776 19.69 21.345 0 46.959-24.378 83.246-19.69 36.286 4.688 53.362 19.69 74.708 19.69 21.345 0 54.43-23.44 81.111-19.69 26.682 3.75 53.363 19.69 65.103 19.69h14.941c21.345 0 46.96-24.378 83.246-19.69 36.287 4.688 53.363 19.69 74.708 19.69 21.346 0 54.43-23.44 81.112-19.69 26.681 3.75 53.363 19.69 65.102 19.69h14.942c21.345 0 46.959-24.378 83.246-19.69 36.287 4.688 53.358 19.69 74.708 19.69" stroke="#F4F4F4" stroke-width="2" stroke-linecap="round" stroke-linejoin="round"/></svg>