<svg width="50" height="19" fill="none" xmlns="http://www.w3.org/2000/svg"><g clip-path="url(#clip0)" fill="#CCC"><path d="M3.807 3.753C4.84 2.214 6.02.137 8.455.137 12.512.06 16.127-.478 19.74 1.291c3.025 2.462.296 7.232-2.877 7.924 1.107 1 2.066 2.462 1.697 4.078-.959 4.692-5.385 5.385-8.926 5.539-2.73 0-5.68.384-8.262-.462a2.036 2.036 0 01-.701-.43 2.135 2.135 0 01-.486-.68A2.215 2.215 0 01.12 15.6a63.06 63.06 0 013.983-8.847c1.107-1.846 3.54-1.308 5.311-1.538-.295.615-.886 1.692-1.18 2.308 2.286.077 4.868.538 6.934-.847.664-.461 1.18-1.538.737-2.308-.811-1-2.213-.846-3.32-1a58.65 58.65 0 00-8.778.385zM5.43 14.37c-.369 1.154 1.402.923 2.066 1.077 2.36.307 5.901-.077 6.639-2.616a1.499 1.499 0 00-.156-1.114 1.417 1.417 0 00-.374-.42 1.353 1.353 0 00-.503-.236 14.884 14.884 0 00-5.533-.153c-1.401.538-1.77 2.23-2.139 3.462zM23.577 3.83a.527.527 0 01-.255-.063.553.553 0 01-.198-.18.582.582 0 01-.063-.527c.59-1.307 1.401-2.615 2.877-2.615a142.46 142.46 0 0111.508 0 .767.767 0 01.38.095.806.806 0 01.29.273.85.85 0 01.068.786c-.886 1.923-2.14 3.77-2.287 6 3.762-1.461 5.901-5.385 9.59-7.154a9.675 9.675 0 014.205-.077.364.364 0 01.19.1.4.4 0 01-.042.591c-2.878 2.232-5.755 4.386-8.41 6.848 3.614 2.462 1.106 7.386 2.508 10.924-1.55-.23-3.689.693-4.795-.846-.295-1.846.295-3.846 0-5.693a2.335 2.335 0 00-.426-1.008 2.208 2.208 0 00-.828-.684 6.424 6.424 0 00-3.615-.077c-1.844 2.077-2.213 5.154-3.836 7.462-1.254 1.385-3.246.924-4.869 1 2.213-4.846 4.426-9.693 6.64-14.463-2.583-1.154-5.681-.77-8.632-.692z"/><path d="M22.692 8.677c-1.992-1.077-.295-2.77 1.033-3.231a27.152 27.152 0 015.016-.154c-1.77 4.077-3.54 8.232-5.311 12.309a1.4 1.4 0 01-.38.547c-.166.148-.366.25-.58.3a14.091 14.091 0 01-3.614.46.453.453 0 01-.23-.053.476.476 0 01-.177-.163.504.504 0 01-.036-.476 369.035 369.035 0 014.279-9.54z"/></g><defs><clipPath id="clip0"><path fill="#fff" d="M0 0h50v19H0z"/></clipPath></defs></svg>