<svg width="31" height="31" fill="none" xmlns="http://www.w3.org/2000/svg"><g clip-path="url(#clip0)"><path d="M7.568 0c-1.04 0-1.892.851-1.892 1.892V28.38c0 1.04.851 1.892 1.892 1.892h18.92c1.04 0 1.892-.851 1.892-1.892V7.568L20.812 0H7.568z" fill="#E2E5E7"/><path d="M22.704 7.568h5.676L20.812 0v5.676c0 1.04.851 1.892 1.892 1.892z" fill="#B0B7BD"/><path d="M28.38 13.244l-5.676-5.676h5.676v5.676z" fill="#CAD1D8"/><path d="M24.596 24.596a.95.95 0 01-.946.946H2.838a.949.949 0 01-.946-.946v-9.46a.95.95 0 01.946-.946H23.65a.95.95 0 01.946.946v9.46z" fill="#F24F4B"/><path d="M6.016 17.924a.52.52 0 01.513-.522h1.748c.983 0 1.869.658 1.869 1.92 0 1.196-.886 1.862-1.87 1.862H7.015v.999c0 .333-.212.521-.485.521a.51.51 0 01-.513-.521v-4.26zm.998.43v1.885h1.263c.507 0 .908-.448.908-.917 0-.529-.401-.968-.908-.968H7.014zm4.613 4.35c-.25 0-.522-.136-.522-.468v-4.297c0-.271.273-.47.522-.47h1.732c3.457 0 3.381 5.235.069 5.235h-1.8zm.477-4.31v3.388h1.255c2.043 0 2.134-3.389 0-3.389h-1.255zm5.862.06v1.202h1.93c.272 0 .544.272.544.536 0 .25-.272.454-.545.454h-1.929v1.589c0 .265-.188.468-.453.468-.333 0-.536-.203-.536-.468v-4.297c0-.271.204-.47.536-.47h2.656c.333 0 .53.199.53.47a.523.523 0 01-.53.515h-2.203z" fill="#fff"/><path d="M23.65 25.542H5.676v.946H23.65a.95.95 0 00.946-.946v-.946a.95.95 0 01-.946.946z" fill="#CAD1D8"/></g><defs><clipPath id="clip0"><path fill="#fff" d="M0 0h30.272v30.272H0z"/></clipPath></defs></svg>