<svg width="162" height="86" fill="none" xmlns="http://www.w3.org/2000/svg"><path d="M83.553 23.01a169.2 169.2 0 01-3.431 2.761 103.39 103.39 0 01-4.528 3.356 151.767 151.767 0 01-5.169 3.47 63.25 63.25 0 01-5.374 3.103c-1.785.913-3.5 1.652-5.146 2.215-1.647.563-3.141.844-4.483.844a7.252 7.252 0 01-2.47-.41 5.128 5.128 0 01-1.967-1.256c-.549-.563-.976-1.286-1.28-2.169-.305-.882-.458-1.932-.458-3.15 0-1.795.343-3.553 1.03-5.272.685-1.72 1.6-3.37 2.744-4.953a34.911 34.911 0 013.91-4.52 57.234 57.234 0 014.506-3.972 56.962 56.962 0 014.551-3.264 70.173 70.173 0 014.071-2.442 4.98 4.98 0 00.32-.183c.153-.091.26-.137.32-.137.275 0 .412.122.412.365 0 .092-.061.183-.183.274-.64.305-1.555.822-2.744 1.553-1.19.73-2.5 1.65-3.934 2.761a55.763 55.763 0 00-4.368 3.79 36.193 36.193 0 00-4.048 4.588 24.977 24.977 0 00-2.996 5.25 14.64 14.64 0 00-1.167 5.706c0 1.096.16 2.024.48 2.785.32.76.748 1.37 1.281 1.826a5.086 5.086 0 001.853 1.004 7.51 7.51 0 002.195.32c1.281 0 2.752-.312 4.414-.936 1.662-.624 3.423-1.453 5.283-2.488a65 65 0 005.718-3.607 109.484 109.484 0 005.763-4.337 128.65 128.65 0 005.398-4.588 102.634 102.634 0 004.62-4.405 51.09 51.09 0 013.293-2.922 80.397 80.397 0 013.43-2.647 63.31 63.31 0 013.27-2.237 53.923 53.923 0 012.905-1.735 5.21 5.21 0 00.321-.183c.152-.091.259-.137.32-.137.274 0 .411.122.411.365 0 .092-.06.183-.183.274-.64.305-1.555.822-2.744 1.553-1.19.73-2.5 1.65-3.934 2.761a55.763 55.763 0 00-4.368 3.79 36.176 36.176 0 00-4.048 4.588 24.978 24.978 0 00-2.996 5.25 14.643 14.643 0 00-1.166 5.706c0 1.096.16 2.024.48 2.785.32.76.747 1.37 1.28 1.826a5.09 5.09 0 001.853 1.004 7.51 7.51 0 002.196.32c1.433 0 3.11-.388 5.031-1.164 1.921-.777 3.95-1.804 6.084-3.082a79.082 79.082 0 006.518-4.382 118.84 118.84 0 006.358-5.068 120.138 120.138 0 005.626-5.113c1.723-1.674 3.164-3.18 4.322-4.52.122-.151.252-.319.389-.502.138-.182.282-.273.435-.273.152 0 .297.099.434.296.138.198.206.328.206.388 0 .152-.137.366-.411.64a83.333 83.333 0 01-2.859 3.4 853.818 853.818 0 00-3.477 3.972 171.5 171.5 0 00-3.59 4.269 60.055 60.055 0 00-3.202 4.29c-.946 1.401-1.708 2.74-2.287 4.018-.58 1.279-.869 2.435-.869 3.47a2.504 2.504 0 01-.938.57c-.381.137-.709.206-.983.206-.366 0-.61-.091-.732-.274a1.123 1.123 0 01-.183-.64c0-.973.335-2.069 1.006-3.286a29.447 29.447 0 012.401-3.652 65.574 65.574 0 012.882-3.515 58.92 58.92 0 002.401-2.877c.092-.121.138-.212.138-.273 0-.061-.015-.092-.046-.092-.092 0-.229.092-.412.274a145.67 145.67 0 01-3.293 2.648 103.844 103.844 0 01-4.185 3.104 122.537 122.537 0 01-4.734 3.173 50.574 50.574 0 01-4.94 2.785 36.307 36.307 0 01-4.803 1.963c-1.555.502-3.004.753-4.346.753a7.253 7.253 0 01-2.47-.41 5.13 5.13 0 01-1.966-1.256c-.55-.563-.976-1.286-1.281-2.169-.305-.882-.458-1.932-.458-3.15 0-1.552.244-3.058.732-4.519a18.772 18.772 0 012.059-4.245zm54.402 10.473c0 .183-.069.32-.206.412l-3.09 1.233c-.457.183-1.041.423-1.751.72a32.63 32.63 0 01-2.3.856c-.824.274-1.625.514-2.403.72-.778.205-1.465.308-2.06.308-.961 0-1.442-.297-1.442-.89a3.4 3.4 0 01.103-.72c.069-.297.218-.606.447-.925-.367.274-.87.582-1.511.925-.641.342-1.328.662-2.06.96-.732.296-1.476.559-2.232.787-.755.229-1.43.343-2.025.343-.87 0-1.499-.172-1.888-.514-.389-.343-.584-.765-.584-1.268 0-.868.458-1.941 1.373-3.22.916-1.28 2.083-2.502 3.502-3.667a23.53 23.53 0 014.669-2.981c1.694-.823 3.319-1.234 4.875-1.234.778 0 1.328.138 1.648.412.321.274.481.662.481 1.165 0 .73-.332 1.393-.996 1.987a13.34 13.34 0 01-1.888 1.44c-.183.09-.32.136-.412.136-.091 0-.217-.057-.378-.171a.524.524 0 01-.24-.446c0-.228.183-.57.549-1.027.183-.183.401-.446.653-.789.251-.342.377-.628.377-.856a.525.525 0 00-.24-.446c-.16-.114-.492-.171-.996-.171-.778 0-1.739.286-2.884.857a18.35 18.35 0 00-3.295 2.124 18.608 18.608 0 00-2.712 2.638c-.756.914-1.134 1.714-1.134 2.399 0 .503.207.88.618 1.13.413.252.87.377 1.374.377.503 0 1.076-.114 1.716-.342a22.39 22.39 0 001.854-.754c.595-.274 1.133-.56 1.614-.857.481-.297.789-.514.927-.65l.412-.412c.183-.183.366-.274.549-.274.092 0 .229.046.412.137.183.092.275.251.275.48a4.679 4.679 0 00-.481.96 2.412 2.412 0 00-.137.753c0 .594.412.891 1.236.891a6.78 6.78 0 001.682-.24c.618-.16 1.236-.343 1.854-.548a35.57 35.57 0 001.716-.617c.527-.206.927-.354 1.202-.445l2.06-.823a6.31 6.31 0 01.824-.342c.091 0 .171.057.24.171a.61.61 0 01.103.308zm18.951.069a.46.46 0 01-.206.411l-3.09 1.234c-.458.182-1.041.422-1.751.72a32.53 32.53 0 01-2.3.856 39.93 39.93 0 01-2.403.72c-.778.205-1.465.308-2.06.308-1.19 0-2.037-.343-2.54-1.028-.504-.686-.802-1.53-.893-2.536a38.351 38.351 0 00-2.644 2.022 17.17 17.17 0 00-2.231 2.227c-.229.229-.435.343-.618.343-.092 0-.206-.114-.343-.343 0-.137.022-.228.068-.274l.069-.069c.549-.64 1.327-1.404 2.334-2.295a49.646 49.646 0 013.365-2.707c0-.685.057-1.37.172-2.056.114-.685.24-1.302.377-1.85.183-.64.366-1.257.549-1.85.092-.23.195-.4.31-.515.114-.114.285-.17.514-.17.321 0 .63.079.927.239.298.16.447.422.447.788a.605.605 0 01-.069.274l-.137.274a5.304 5.304 0 01-.275.96 18.041 18.041 0 00-.549 2.261 56.63 56.63 0 013.605-2.467c1.167-.731 2.185-1.28 3.055-1.645a1.83 1.83 0 01.824-.205c.275 0 .492.114.652.342.161.229.241.48.241.754 0 .411-.183.685-.55.823a48.619 48.619 0 00-3.742 1.61 58.31 58.31 0 00-4.223 2.227v.137c0 .823.172 1.553.515 2.193.344.64.996.96 1.957.96.55 0 1.179-.08 1.889-.24.709-.16 1.419-.354 2.128-.583.71-.228 1.373-.445 1.991-.65a19.397 19.397 0 001.408-.515l2.06-.822c.274-.137.549-.252.824-.343.091 0 .171.057.24.171a.61.61 0 01.103.309z" fill="#EC6823"/><path d="M15.693 16.945c-1.557 0-2.336.156-2.336.48V29.3h6.787c2.815 0 5.514.401 8.11 1.217 2.582.803 4.905 1.995 6.942 3.562a17.058 17.058 0 014.814 5.763c1.18 2.279 1.765 4.83 1.765 7.654 0 3.613-.844 6.786-2.53 9.532-1.688 2.745-3.997 4.843-6.943 6.306-2.932 1.45-6.215 2.176-9.823 2.176H4.728v-1.334H9.23v-41.48c0-2.681-.234-4.313-.701-4.896-.441-.57-1.869-.855-4.282-.855v-1.32h23.746v-3.096h1.324v16.85h-1.324V27.37c0-1.995-.13-3.64-.39-4.96-.259-1.321-.933-2.41-2.01-3.277-1.804-1.463-5.113-2.189-9.901-2.189zm-2.336 46.377c2.284.739 4.957 1.102 8.02 1.102 2.296 0 4.45-.454 6.449-1.36a15.6 15.6 0 005.229-3.782 17.275 17.275 0 003.4-5.543 18.35 18.35 0 001.193-6.566c0-2.875-.674-5.491-2.037-7.861-1.362-2.357-3.283-4.248-5.735-5.647-3.115-1.774-7.111-2.655-11.99-2.655h-4.529v32.312zm55.283-8.544l7.178-8.872h-2.21v-.833h7.268v.833h-2.603l-8.013 8.675c2.922 0 5.648 2.647 8.152 7.94.32.654.696 1.177 1.146 1.569.459.392.925.588 1.416.588h.491v.833h-4.379c-1.284-2.752-2.332-4.795-3.159-6.134-.835-1.332-1.637-2.263-2.423-2.786-.794-.523-1.743-.784-2.864-.784v6.715c0 .702.09 1.2.278 1.503.188.302.458.482.81.555.352.065.909.098 1.654.098v.833h-7.269v-.833h2.317V48.063c0-.973-.189-1.577-.573-1.806-.385-.237-1.113-.351-2.186-.351v-.833h7.268v.833h-2.3v8.872z" fill="#4F3528"/><path d="M48.727 85.783a3.087 3.087 0 01-1.58-.464 3.364 3.364 0 01-1.163-1.19 3.099 3.099 0 01-.433-1.58c0-.99.374-1.836 1.119-2.535.78-.747 1.675-1.12 2.68-1.12a3.02 3.02 0 011.581.44c.489.294.878.688 1.166 1.18.288.492.434 1.019.434 1.58 0 .99-.374 1.836-1.122 2.538-.807.767-1.7 1.151-2.682 1.151zm-2.6-3.468c.003.461.138.92.405 1.374.268.453.626.83 1.073 1.127a2.83 2.83 0 001.452.485c.578 0 1.09-.138 1.531-.415.442-.277.78-.645 1.016-1.104.234-.459.35-.948.35-1.467a2.967 2.967 0 00-.415-1.386 3.276 3.276 0 00-1.054-1.12 2.567 2.567 0 00-1.428-.433c-.572.003-1.08.14-1.528.412a2.805 2.805 0 00-1.036 1.086 2.988 2.988 0 00-.366 1.441zm8.663-3.779l.205.171-.392.467v.544a4.29 4.29 0 01.75-.619 1.52 1.52 0 01.808-.205c.24 0 .53.068.87.202v-.609h.267v2.836h-.267v-.112c0-.57-.041-.98-.124-1.23-.151-.413-.437-.651-.855-.714-.304 0-.592.112-.862.337a2.04 2.04 0 00-.587.752v4.276c0 .22.031.378.096.474a.405.405 0 00.273.18c.117.02.296.03.537.03v.265h-2.308v-.265h.701v-5.315l-.543.653-.208-.171 1.64-1.947zm4.44 6.096c0 .306.055.498.167.573.109.075.288.111.535.111v.265h-2.106v-.265h.703v-5.315l-.548.65-.202-.17 1.638-1.963.2.197-.386.444v5.473zm-1.043-8.148c0-.179.062-.33.187-.446a.637.637 0 01.449-.176c.18 0 .327.06.447.179a.583.583 0 01.179.427c0 .182-.06.337-.18.464a.585.585 0 01-.446.19.624.624 0 01-.452-.184.619.619 0 01-.184-.454zm9.179 6.938c-.205.49-.48.915-.826 1.27a3.459 3.459 0 01-1.21.811c-.462.186-.963.28-1.503.28a3.454 3.454 0 01-1.665-.428 3.356 3.356 0 01-1.26-1.171 2.996 2.996 0 01-.472-1.636c0-.658.184-1.27.55-1.83.367-.56.85-1.005 1.452-1.331a3.864 3.864 0 011.878-.493 3.176 3.176 0 012.29.99c.296.314.517.666.654 1.063H61.3c-.18.357-.275.798-.293 1.324 0 .56.145 1.07.438 1.532.291.461.678.827 1.158 1.094.484.266.99.401 1.52.404.67 0 1.264-.179 1.778-.537a3.7 3.7 0 001.229-1.454l.236.112zm-1.046-2.817a2.77 2.77 0 00-1.05-.9 3.017 3.017 0 00-1.384-.329c-.298 0-.6.05-.9.145a2.93 2.93 0 00-.84.423 2.504 2.504 0 00-.64.66h4.814zm2.552 4.711v-5.3l-.548.654-.203-.171 1.64-1.947.2.171-.388.467v.463c.53-.505 1.07-.759 1.62-.759.613 0 1.086.249 1.418.744.156.254.252.518.289.79.036.275.054.622.054 1.047v3.157c0 .22.031.378.096.474a.415.415 0 00.27.18c.117.02.294.03.535.03v.265H71.55v-.265h.704v-3.872c0-.674-.062-1.15-.19-1.428a1.166 1.166 0 00-.446-.546 1.237 1.237 0 00-.69-.203c-.419 0-.749.187-.99.558a2.194 2.194 0 00-.364 1.215v3.592c0 .22.031.378.096.474a.405.405 0 00.273.18c.117.02.296.03.537.03v.265h-2.31v-.265h.703zm6.806-1.71c0 .337.078.72.236 1.153.156.433.483.65.98.65.563-.012 1.067-.323 1.51-.932l.2.093c-.028.35-.2.64-.508.868-.31.23-.642.345-1 .345-.32 0-.629-.07-.925-.207a1.94 1.94 0 01-.727-.57c-.311-.4-.467-.96-.467-1.68v-3.965h-.779v-.342h.779v-2.535l.701-.793v3.328h1.343v.342h-1.343v4.245zm6.933 1.648c-.545.352-1.085.529-1.62.529a2.11 2.11 0 01-1.535-.615 2.036 2.036 0 01-.63-1.515c0-.46.129-.874.384-1.25a2.636 2.636 0 011.007-.876c.413-.21.85-.316 1.304-.316.34 0 .7.093 1.075.283v-.187c0-.632-.068-1.091-.203-1.37-.239-.478-.636-.716-1.187-.716-.36 0-.675.116-.942.347-.27.233-.473.526-.61.881a2.862 2.862 0 00-.206 1.045h-.264v-3.022h.264v1.293c.567-.58 1.195-.87 1.886-.87.737 0 1.288.269 1.651.808.148.23.239.48.273.749.036.27.054.611.054 1.023v3.157c0 .22.032.378.097.474a.411.411 0 00.272.177c.117.02.296.03.538.03v.268H82.61v-.327zm0-2.952c-.413-.469-.864-.702-1.355-.702-.325 0-.629.072-.912.22a1.768 1.768 0 00-.685.62 1.63 1.63 0 00-.26.902c.023.341.117.668.283.984.164.314.387.57.668.77.28.2.587.298.921.298.51 0 .956-.207 1.34-.622v-2.47zm3.503 2.33c0 .306.055.498.166.573.11.075.288.111.538.111v.265h-2.106v-.265h.701v-9.5l-.654.759-.203-.172 1.654-1.94.2.17-.296.345v9.654zm13.321-6.08v2.6h-.265v-.22c-.028-.532-.135-.96-.316-1.286-.185-.324-.52-.487-1.008-.487-.312 0-.574.098-.787.295a.989.989 0 00-.32.765c0 .204.058.37.172.5.114.13.242.223.38.282.14.06.353.14.636.241.438.158.781.285 1.025.386.247.099.48.228.704.384.223.155.405.358.548.609.143.251.213.557.213.923 0 .474-.13.88-.39 1.22-.26.337-.6.591-1.018.762a3.446 3.446 0 01-1.319.257c-.646 0-1.179-.11-1.597-.327-.418-.218-.719-.482-.904-.79-.181-.311-.272-.612-.272-.902 0-.316.075-.604.223-.866a1.671 1.671 0 011.462-.847c.356 0 .67.096.945.285a.91.91 0 01.41.788c0 .21-.064.399-.189.575a.587.587 0 01-.496.264c-.156 0-.236-.056-.236-.17 0-.034.023-.115.07-.242a.988.988 0 00.07-.334c0-.205-.09-.37-.278-.503a1.007 1.007 0 00-.592-.197 1.003 1.003 0 00-1.03 1.024c0 .332.121.648.368.949.247.3.576.547.992.733a3.4 3.4 0 001.335.295c.34 0 .649-.075.927-.222a1.66 1.66 0 00.657-.628c.158-.272.239-.577.239-.922 0-.363-.08-.653-.244-.871a1.595 1.595 0 00-.595-.495 9.37 9.37 0 00-.984-.376c-.486-.166-.824-.29-1.02-.376a1.514 1.514 0 01-.541-.432c-.163-.2-.247-.472-.247-.81 0-.455.177-.818.53-1.087.353-.27.764-.405 1.234-.405.288 0 .667.088 1.137.264l.106.05v-.656h.265zm6.562 7.231h-.252l-.838-2.548-.951 2.548h-.218l-1.745-5.165c-.135-.402-.288-.713-.46-.93-.174-.218-.457-.327-.849-.327v-.265h1.979v.265h-.576l1.822 5.507.78-2.167-.639-1.974c-.12-.387-.263-.706-.434-.954-.169-.249-.426-.386-.769-.412v-.265h1.777v.265h-.512l.81 2.428.639-1.93c0-.2-.057-.332-.166-.4-.112-.065-.304-.098-.579-.098v-.265h1.851v.265h-.483l-.997 2.939.73 2.568 1.264-3.8c.187-.585.291-.974.312-1.163 0-.363-.213-.544-.639-.544v-.265h1.885v.265h-.548l-2.194 6.422zm10.021-2.361c-.205.49-.48.915-.826 1.27a3.456 3.456 0 01-1.21.811 3.98 3.98 0 01-1.503.28 3.454 3.454 0 01-1.665-.428 3.357 3.357 0 01-1.259-1.171 2.998 2.998 0 01-.473-1.636c0-.658.184-1.27.551-1.83a3.964 3.964 0 011.451-1.331 3.867 3.867 0 011.878-.493 3.187 3.187 0 012.29.99c.296.314.517.666.654 1.063h-5.954c-.179.357-.275.798-.293 1.324 0 .56.145 1.07.438 1.532a3.17 3.17 0 001.159 1.094c.483.266.989.401 1.519.404.67 0 1.264-.179 1.779-.537.516-.355.927-.84 1.228-1.454l.236.112zm-1.046-2.817a2.772 2.772 0 00-1.049-.9 3.02 3.02 0 00-1.385-.329c-.298 0-.599.05-.901.145a2.926 2.926 0 00-.838.423 2.496 2.496 0 00-.642.66h4.815zm8.569 2.817a4.04 4.04 0 01-.826 1.27 3.456 3.456 0 01-1.21.811c-.462.186-.963.28-1.504.28a3.453 3.453 0 01-1.664-.428 3.35 3.35 0 01-1.259-1.171 2.99 2.99 0 01-.473-1.636c0-.658.184-1.27.55-1.83.366-.56.85-1.005 1.452-1.331a3.86 3.86 0 011.877-.493 3.18 3.18 0 012.291.99c.296.314.516.666.654 1.063h-5.954c-.179.357-.275.798-.294 1.324 0 .56.146 1.07.439 1.532.291.461.678.827 1.158 1.094.483.266.99.401 1.519.404.67 0 1.265-.179 1.779-.537.517-.355.927-.84 1.228-1.454l.237.112zm-1.047-2.817a2.765 2.765 0 00-1.049-.9 3.015 3.015 0 00-1.384-.329c-.299 0-.6.05-.901.145a2.932 2.932 0 00-.839.423 2.507 2.507 0 00-.641.66h4.814zm3.129 3c0 .338.078.721.237 1.154.155.433.482.65.979.65.563-.012 1.067-.323 1.511-.932l.2.093c-.029.35-.2.64-.509.868-.309.23-.642.345-1 .345a2.18 2.18 0 01-.924-.207 1.939 1.939 0 01-.727-.57c-.312-.4-.468-.96-.468-1.68v-3.965h-.779v-.342h.779v-2.535l.701-.793v3.328h1.343v.342h-1.343v4.245zm7.245-5.053v2.6h-.265v-.22c-.028-.532-.135-.96-.317-1.286-.184-.324-.519-.487-1.007-.487-.312 0-.574.098-.787.295-.213.194-.319.451-.319.765 0 .204.057.37.171.5.114.13.242.223.379.282.141.06.353.14.636.241.439.158.782.285 1.026.386.247.099.481.228.704.384.223.155.405.358.548.609.143.251.213.557.213.923 0 .474-.13.88-.39 1.22-.26.337-.6.591-1.018.762a3.446 3.446 0 01-1.319.257c-.647 0-1.179-.11-1.597-.327-.418-.218-.719-.482-.904-.79-.181-.311-.272-.612-.272-.902 0-.316.075-.604.223-.866a1.672 1.672 0 011.462-.847c.356 0 .67.096.945.285a.91.91 0 01.411.788.97.97 0 01-.19.575.586.586 0 01-.496.264c-.156 0-.236-.056-.236-.17 0-.034.023-.115.07-.242a.983.983 0 00.07-.334c0-.205-.091-.37-.278-.503a1.006 1.006 0 00-.592-.197 1.001 1.001 0 00-1.031 1.024c0 .332.122.648.369.949.246.3.576.547.992.733a3.41 3.41 0 001.334.295c.341 0 .65-.075.927-.222.278-.148.497-.358.658-.628a1.8 1.8 0 00.239-.922c0-.363-.081-.653-.245-.871a1.588 1.588 0 00-.594-.495 9.367 9.367 0 00-.985-.376c-.485-.166-.823-.29-1.02-.376a1.51 1.51 0 01-.54-.432c-.164-.2-.247-.472-.247-.81 0-.455.177-.818.53-1.087a1.97 1.97 0 011.233-.405c.289 0 .668.088 1.138.264l.106.05v-.656h.265z" fill="#EC6823"/><path fill-rule="evenodd" clip-rule="evenodd" d="M32.363 82.48s2.85.673 4.322-.591c1.471-1.264 2.713-3.525 4.072-4.532 1.358-1.006 3.03-2.187 3.03-2.187s-3.886.654-5.125 1.585c-2.686 2.02-2.593 3.578-6.392 5.2l.093.524zm-1.823-1.82s-1.09-2.712-.057-4.353c1.034-1.64 3.09-3.202 3.885-4.692.795-1.491 1.717-3.317 1.717-3.317s-.07 3.933-.81 5.295c-1.6 2.95-3.159 3.09-4.202 7.081l-.532-.013zm12.025-10.476s-3.773 1.595-6.453 4.26c-2.681 2.666-3.549 4.683-3.877 5.3-.327.616-.71 1.564-.49 1.53.22-.033 2.89-1.487 3.168-1.792.277-.306 2.522-2.846 3.814-4.754 1.29-1.907 2.398-3.285 2.938-3.753.54-.468.9-.79.9-.79z" fill="#4F3528"/><path fill-rule="evenodd" clip-rule="evenodd" d="M31.616 81.235l-.586-.614s-.564-.191-.645.084c-.08.274.175.965.252 1.153.076.188.455.569.82.643.364.075 1.011-.012 1.011-.012s.114-.551.008-.609a9.643 9.643 0 01-.712-.462c-.09-.077-.148-.183-.148-.183z" fill="#4F3528"/><path fill-rule="evenodd" clip-rule="evenodd" d="M30.94 81.637l.404.348-1.749 2.1-.405-.349 1.75-2.1z" fill="#4F3528"/><path fill-rule="evenodd" clip-rule="evenodd" d="M.61 83.633h28.985v.815H.61v-.815z" fill="#4F3528"/><path fill-rule="evenodd" clip-rule="evenodd" d="M.61 84.448V.218h.817v84.231H.61z" fill="#4F3528"/><path fill-rule="evenodd" clip-rule="evenodd" d="M.61.217h159.78v.815H.61V.217z" fill="#4F3528"/><path fill-rule="evenodd" clip-rule="evenodd" d="M159.573 84.448V.218h.817v84.231h-.817z" fill="#4F3528"/><path fill-rule="evenodd" clip-rule="evenodd" d="M139.055 83.633h21.335v.815h-21.335v-.815z" fill="#4F3528"/><path d="M57.484 64.482c-1.718 1.111-3.421 1.666-5.107 1.666-1.907 0-3.52-.645-4.837-1.935-1.326-1.3-1.99-2.884-1.99-4.78 0-1.445.41-2.752 1.212-3.937a8.308 8.308 0 013.176-2.76 8.967 8.967 0 014.108-.997c1.073 0 2.21.294 3.39.89v-.588c0-1.993-.214-3.44-.64-4.322-.752-1.503-2.005-2.254-3.74-2.254-1.137 0-2.128.367-2.97 1.094-.852.736-1.49 1.659-1.924 2.778-.434 1.11-.647 2.214-.647 3.292h-.835v-9.525h.835v4.076c1.784-1.83 3.765-2.744 5.942-2.744 2.325 0 4.06.85 5.206 2.548a5.6 5.6 0 01.86 2.361c.114.85.171 1.928.171 3.227v9.95c0 .694.098 1.192.303 1.494.205.302.491.482.86.556.368.065.932.098 1.694.098v.841h-5.067v-1.03zm0-9.304c-1.301-1.479-2.725-2.214-4.272-2.214a6.122 6.122 0 00-2.873.694 5.582 5.582 0 00-2.161 1.953 5.155 5.155 0 00-.819 2.842 7.724 7.724 0 00.893 3.104 6.785 6.785 0 002.103 2.427c.884.629 1.85.94 2.906.94 1.604 0 3.012-.654 4.223-1.961v-7.785zm10.894-.4l7.178-8.872h-2.21v-.833h7.269v.833h-2.603l-8.013 8.675c2.922 0 5.647 2.647 8.152 7.94.32.654.696 1.177 1.146 1.569.458.392.925.588 1.416.588h.491v.833h-4.379c-1.285-2.753-2.333-4.795-3.16-6.135-.834-1.331-1.636-2.262-2.422-2.785-.794-.523-1.743-.784-2.865-.784v6.714c0 .703.09 1.201.278 1.504.189.302.459.481.81.555.353.065.91.098 1.654.098v.833h-7.268v-.833h2.316V48.063c0-.973-.188-1.577-.573-1.806-.384-.237-1.113-.351-2.185-.351v-.833h7.268v.833h-2.3v8.871zm20.716-10.342h.933l5.648 16.378c.475 1.266.957 2.23 1.449 2.884.49.653 1.268.98 2.332.98v.833h-6.531v-.833h1.719l-5.705-16.665-3.872 12.548c-.392 1.16-.589 2.01-.589 2.548 0 .646.188 1.07.573 1.267.377.204.958.302 1.727.302v.833h-6.425v-.833h1.76l6.981-20.242zm23.466 20.046c-1.718 1.111-3.421 1.666-5.107 1.666-1.907 0-3.519-.645-4.837-1.935-1.326-1.3-1.989-2.884-1.989-4.78 0-1.445.409-2.752 1.211-3.937a8.312 8.312 0 013.176-2.76 8.965 8.965 0 014.109-.997c1.072 0 2.21.294 3.388.89v-.588c0-1.993-.213-3.44-.638-4.322-.753-1.503-2.005-2.254-3.741-2.254-1.137 0-2.128.367-2.971 1.094-.851.736-1.489 1.659-1.923 2.778-.434 1.11-.647 2.214-.647 3.292h-.835v-9.525h.835v4.076c1.784-1.83 3.765-2.744 5.942-2.744 2.325 0 4.06.85 5.206 2.548a5.59 5.59 0 01.859 2.361c.115.85.172 1.928.172 3.227v9.95c0 .694.098 1.192.303 1.494.205.302.491.482.859.556.369.065.933.098 1.695.098v.841h-5.067v-1.03zm0-9.304c-1.301-1.479-2.725-2.214-4.272-2.214a6.114 6.114 0 00-2.873.694 5.586 5.586 0 00-2.161 1.953 5.156 5.156 0 00-.818 2.842 7.71 7.71 0 00.892 3.104 6.777 6.777 0 002.103 2.427c.884.629 1.85.94 2.906.94 1.604 0 3.012-.654 4.223-1.961v-7.785zm6.368 10.333v-.833h2.317V48.063c0-.654-.082-1.136-.238-1.447-.155-.301-.409-.498-.769-.588-.36-.081-.942-.122-1.752-.122v-.833h9.045c4.092 0 6.138 1.192 6.138 3.578 0 1.903-1.326 3.292-3.978 4.166 1.49 0 2.832.245 4.035.743 1.195.49 2.137 1.201 2.808 2.132.679.932 1.015 2.002 1.015 3.203 0 1.927-.884 3.553-2.652 4.86-1.555 1.168-3.79 1.756-6.679 1.756h-9.29zm12.335-16.42c0-1.992-1.604-2.989-4.813-2.989-1.539 0-2.537.033-2.996.098v7.156c2.489-.253 4.412-.71 5.771-1.356 1.359-.654 2.038-1.617 2.038-2.908zm-7.809 5.433v7.712c0 .694.058 1.192.164 1.503.106.302.344.514.712.62.369.115.991.172 1.866.172h2.603a7.033 7.033 0 003.053-.694c.974-.466 1.76-1.095 2.357-1.896.59-.8.884-1.69.884-2.654 0-1.797-.573-3.178-1.71-4.117-1.138-.948-2.775-1.422-4.919-1.422-1.588 0-3.258.261-5.01.776zm28.385 9.958c-1.718 1.111-3.421 1.666-5.107 1.666-1.907 0-3.519-.645-4.837-1.935-1.326-1.3-1.989-2.884-1.989-4.78 0-1.445.409-2.752 1.211-3.937a8.312 8.312 0 013.176-2.76 8.965 8.965 0 014.109-.997c1.072 0 2.21.294 3.388.89v-.588c0-1.993-.212-3.44-.638-4.322-.753-1.503-2.005-2.254-3.741-2.254-1.137 0-2.128.367-2.971 1.094-.851.736-1.489 1.659-1.923 2.778-.434 1.11-.647 2.214-.647 3.292h-.835v-9.525h.835v4.076c1.785-1.83 3.765-2.744 5.942-2.744 2.325 0 4.06.85 5.206 2.548.467.727.753 1.511.86 2.361.114.85.171 1.928.171 3.227v9.95c0 .694.099 1.192.303 1.494.205.302.491.482.86.556.368.065.933.098 1.694.098v.841h-5.067v-1.03zm0-9.304c-1.301-1.479-2.725-2.214-4.272-2.214a6.114 6.114 0 00-2.873.694 5.586 5.586 0 00-2.161 1.953 5.156 5.156 0 00-.818 2.842 7.726 7.726 0 00.892 3.104 6.787 6.787 0 002.103 2.427c.884.629 1.85.94 2.906.94 1.604 0 3.012-.654 4.223-1.961v-7.785z" fill="#4F3528"/></svg>