<svg width="133" height="72" fill="none" xmlns="http://www.w3.org/2000/svg"><path d="M69.017 19.101c-.754.624-1.697 1.38-2.829 2.266a85.08 85.08 0 01-3.734 2.752 125.047 125.047 0 01-4.261 2.846 52.187 52.187 0 01-4.432 2.547 32.353 32.353 0 01-4.243 1.816c-1.358.462-2.59.693-3.696.693a6 6 0 01-2.037-.337 4.232 4.232 0 01-1.622-1.03c-.452-.462-.804-1.055-1.056-1.779-.251-.724-.377-1.585-.377-2.584 0-1.473.283-2.915.848-4.325a18.838 18.838 0 012.264-4.063 28.68 28.68 0 013.224-3.707 47.123 47.123 0 013.715-3.259 46.944 46.944 0 013.753-2.677 57.939 57.939 0 013.357-2.004c.05-.025.138-.075.264-.15.125-.074.213-.112.264-.112.226 0 .34.1.34.3 0 .075-.051.15-.152.224-.528.25-1.282.675-2.263 1.274-.98.599-2.062 1.354-3.243 2.265a45.923 45.923 0 00-3.602 3.109 29.762 29.762 0 00-3.338 3.763 20.462 20.462 0 00-2.47 4.307 11.956 11.956 0 00-.962 4.68c0 .9.132 1.661.396 2.285.264.624.616 1.124 1.056 1.498.44.375.95.65 1.528.824a6.223 6.223 0 001.81.262c1.056 0 2.269-.256 3.64-.768 1.37-.511 2.822-1.192 4.355-2.04a53.605 53.605 0 004.715-2.959 90.25 90.25 0 004.752-3.558 105.926 105.926 0 004.45-3.763 84.449 84.449 0 003.81-3.614 42.07 42.07 0 012.716-2.397 66.257 66.257 0 012.829-2.172 52.837 52.837 0 012.696-1.835 44.474 44.474 0 012.395-1.423c.05-.025.138-.075.264-.15.126-.074.214-.112.264-.112.226 0 .34.1.34.3 0 .075-.05.15-.151.224-.528.25-1.282.675-2.263 1.274-.98.599-2.062 1.354-3.244 2.265a45.923 45.923 0 00-3.602 3.109 29.745 29.745 0 00-3.338 3.763 20.459 20.459 0 00-2.47 4.307 11.959 11.959 0 00-.962 4.68c0 .9.132 1.661.396 2.285.264.624.616 1.124 1.056 1.498.44.375.95.65 1.528.824a6.223 6.223 0 001.81.262c1.182 0 2.565-.318 4.149-.955 1.584-.636 3.256-1.479 5.016-2.527a65.156 65.156 0 005.375-3.596 97.82 97.82 0 005.242-4.157 98.984 98.984 0 004.64-4.194c1.42-1.373 2.608-2.609 3.564-3.707.1-.125.207-.262.32-.412.113-.15.233-.225.358-.225.126 0 .246.082.359.244.113.162.169.268.169.318 0 .125-.113.3-.339.524a69.14 69.14 0 01-2.357 2.79 662.887 662.887 0 00-2.867 3.258 140.241 140.241 0 00-2.96 3.502 49.32 49.32 0 00-2.64 3.52c-.78 1.148-1.409 2.247-1.886 3.295-.478 1.049-.717 1.997-.717 2.846a2.07 2.07 0 01-.773.469c-.314.112-.585.168-.811.168-.302 0-.503-.075-.603-.225a.917.917 0 01-.151-.524c0-.799.276-1.698.83-2.696a24.12 24.12 0 011.98-2.996 53.749 53.749 0 012.376-2.884 48.908 48.908 0 001.98-2.359c.075-.1.113-.175.113-.225 0-.05-.013-.075-.038-.075-.075 0-.189.075-.34.225-.754.624-1.659 1.348-2.715 2.172a85.43 85.43 0 01-3.45 2.547 100.502 100.502 0 01-3.904 2.603 41.74 41.74 0 01-4.074 2.284 30.026 30.026 0 01-3.96 1.61c-1.282.412-2.477.618-3.583.618a6 6 0 01-2.037-.337 4.234 4.234 0 01-1.621-1.03c-.453-.462-.805-1.055-1.056-1.779-.252-.724-.378-1.585-.378-2.584 0-1.273.201-2.509.604-3.707.402-1.198.968-2.36 1.697-3.483zm44.858 8.592c0 .15-.056.263-.17.337l-2.547 1.012c-.378.15-.859.347-1.444.59a26.93 26.93 0 01-1.897.703c-.679.225-1.34.422-1.981.59-.642.17-1.208.254-1.699.254-.792 0-1.189-.244-1.189-.731 0-.15.029-.347.085-.59.057-.244.179-.497.368-.76-.302.225-.717.478-1.245.76a18.21 18.21 0 01-1.699.787c-.604.243-1.217.459-1.84.646s-1.18.281-1.67.281c-.717 0-1.236-.14-1.557-.422a1.33 1.33 0 01-.481-1.04c0-.712.377-1.592 1.132-2.642.755-1.05 1.717-2.052 2.887-3.007a19.43 19.43 0 013.85-2.446c1.397-.674 2.737-1.012 4.02-1.012.642 0 1.095.113 1.359.338.264.225.396.543.396.955 0 .6-.273 1.143-.821 1.63-.547.488-1.066.882-1.557 1.181-.151.075-.264.113-.339.113-.076 0-.18-.047-.312-.14a.43.43 0 01-.198-.366c0-.188.151-.469.453-.843.151-.15.33-.366.538-.647.207-.281.311-.515.311-.703a.43.43 0 00-.198-.365c-.132-.094-.406-.14-.821-.14-.642 0-1.434.234-2.378.702a15.148 15.148 0 00-2.717 1.743 15.308 15.308 0 00-2.237 2.164c-.623.75-.934 1.405-.934 1.968 0 .412.17.721.51.927.34.206.717.31 1.132.31.415 0 .887-.094 1.415-.282a18.543 18.543 0 001.529-.618c.491-.225.934-.46 1.331-.703.396-.243.651-.421.764-.534l.34-.337c.151-.15.302-.225.453-.225.075 0 .188.037.339.113.151.074.227.206.227.393a3.83 3.83 0 00-.397.787 1.97 1.97 0 00-.113.618c0 .487.34.731 1.019.731.415 0 .878-.066 1.387-.197.51-.13 1.019-.28 1.529-.45.51-.168.981-.337 1.415-.505.435-.169.765-.29.991-.366l1.699-.674c.226-.113.453-.206.679-.281.076 0 .142.047.198.14a.498.498 0 01.085.253zm15.626.056c0 .15-.056.263-.169.338l-2.548 1.012c-.378.15-.859.346-1.444.59a26.88 26.88 0 01-1.897.702 32.75 32.75 0 01-1.981.59c-.642.17-1.208.254-1.699.254-.981 0-1.679-.281-2.094-.844-.416-.562-.661-1.255-.736-2.08a31.606 31.606 0 00-2.18 1.659 14.072 14.072 0 00-1.84 1.827c-.189.187-.359.28-.51.28-.075 0-.17-.093-.283-.28 0-.113.019-.188.057-.225l.056-.056c.453-.525 1.095-1.153 1.925-1.883a40.691 40.691 0 012.775-2.221c0-.562.047-1.124.141-1.686.094-.563.198-1.069.312-1.518.15-.525.301-1.03.452-1.518.076-.187.161-.328.255-.422.094-.093.236-.14.425-.14.264 0 .519.065.764.197.245.13.368.346.368.646 0 .075-.019.15-.056.225l-.114.225a4.246 4.246 0 01-.226.787c-.189.6-.34 1.218-.453 1.855a46.92 46.92 0 012.972-2.024c.963-.6 1.803-1.05 2.52-1.349.226-.113.453-.169.679-.169.227 0 .406.094.538.281.132.188.198.394.198.619 0 .337-.151.562-.453.674-.906.338-1.934.778-3.086 1.322a48.004 48.004 0 00-3.481 1.826v.113c0 .674.141 1.274.424 1.799.283.524.821.787 1.614.787.453 0 .972-.066 1.557-.197a20.31 20.31 0 001.755-.478c.585-.187 1.132-.365 1.642-.534.509-.169.896-.31 1.16-.422l1.699-.674a5.27 5.27 0 01.679-.281c.076 0 .142.047.199.14a.506.506 0 01.084.253z" fill="#fff"/><path d="M13.062 14.127c-1.284 0-1.926.128-1.926.393v9.742h5.596c2.322 0 4.547.33 6.688.999 2.129.658 4.044 1.636 5.724 2.921a14.012 14.012 0 013.97 4.728c.973 1.87 1.455 3.963 1.455 6.279 0 2.964-.696 5.566-2.087 7.819-1.39 2.252-3.295 3.973-5.724 5.173-2.418 1.19-5.125 1.785-8.1 1.785H4.021v-1.094h3.713V18.844c0-2.199-.193-3.538-.578-4.016-.364-.467-1.54-.7-3.53-.7v-1.085h19.58v-2.539h1.09v13.822h-1.09v-1.647c0-1.636-.107-2.985-.322-4.069-.213-1.083-.77-1.976-1.658-2.687-1.487-1.2-4.216-1.796-8.164-1.796zm-1.926 38.044c1.883.605 4.088.903 6.613.903 1.893 0 3.67-.372 5.318-1.116a12.862 12.862 0 004.311-3.102 14.159 14.159 0 002.804-4.547c.652-1.71.984-3.506.984-5.386 0-2.358-.556-4.505-1.68-6.449-1.123-1.933-2.707-3.484-4.73-4.632-2.567-1.455-5.862-2.177-9.886-2.177h-3.734V52.17zm45.584-7.01l5.919-7.277h-1.822V37.2h5.993v.684h-2.146L58.056 45c2.41 0 4.657 2.171 6.722 6.514.264.536.574.965.945 1.286.378.322.763.483 1.168.483h.405v.683h-3.611c-1.06-2.258-1.923-3.933-2.605-5.032-.688-1.093-1.35-1.856-1.998-2.285-.654-.43-1.437-.644-2.362-.644v5.509c0 .576.075.985.23 1.233a.988.988 0 00.668.455c.29.054.749.08 1.363.08v.684h-5.993v-.683h1.91v-13.63c0-.798-.155-1.293-.473-1.481-.317-.194-.917-.288-1.801-.288V37.2h5.993v.684H56.72v7.277z" fill="#4F3528"/><path d="M40.3 70.596a2.554 2.554 0 01-1.3-.381 2.77 2.77 0 01-.96-.976 2.533 2.533 0 01-.358-1.297c0-.812.309-1.505.923-2.08.642-.611 1.381-.917 2.21-.917a2.5 2.5 0 011.304.36c.402.241.723.564.961.968s.358.836.358 1.297c0 .812-.309 1.505-.925 2.082-.666.629-1.403.944-2.212.944zm-2.142-2.845c.002.378.113.755.334 1.127.22.372.516.68.884.924.368.245.769.377 1.197.398.477 0 .899-.113 1.263-.34a2.3 2.3 0 00.837-.906 2.6 2.6 0 00.29-1.203 2.426 2.426 0 00-.343-1.138 2.694 2.694 0 00-.87-.918 2.124 2.124 0 00-1.177-.355 2.409 2.409 0 00-1.26.338c-.37.223-.654.52-.854.89a2.44 2.44 0 00-.302 1.183zm7.142-3.1l.17.14-.324.383v.447c.227-.226.435-.396.62-.508a1.25 1.25 0 01.665-.168c.197 0 .437.055.717.165v-.5h.22v2.327h-.22v-.092c0-.468-.034-.804-.102-1.01-.125-.338-.36-.533-.705-.584-.25 0-.488.091-.71.276a1.676 1.676 0 00-.485.617v3.507c0 .181.026.31.08.39.053.08.128.127.224.146.097.017.244.026.444.026v.217H43.99v-.217h.578v-4.36l-.447.535-.172-.14 1.352-1.597zm3.662 5c0 .251.045.409.137.47.09.062.238.092.441.092v.217h-1.736v-.217h.58v-4.36l-.452.533-.167-.14 1.351-1.61.165.162-.319.363v4.49zm-.86-6.684a.48.48 0 01.153-.365.527.527 0 01.37-.145c.148 0 .27.05.369.147a.477.477 0 01.148.35c0 .15-.05.277-.148.381a.484.484 0 01-.368.155.516.516 0 01-.525-.523zm7.568 5.692c-.169.401-.396.75-.68 1.041a2.853 2.853 0 01-.999.666c-.38.153-.794.23-1.24.23a2.86 2.86 0 01-1.372-.351 2.76 2.76 0 01-1.038-.961 2.448 2.448 0 01-.39-1.342c0-.54.152-1.042.454-1.5.302-.46.7-.826 1.197-1.094a3.2 3.2 0 011.548-.403 2.619 2.619 0 011.889.812c.244.257.425.546.539.871h-4.91c-.148.294-.227.655-.242 1.087 0 .459.12.878.362 1.256.24.379.56.678.955.897.398.22.816.33 1.253.332.552 0 1.042-.147 1.466-.44a3.039 3.039 0 001.013-1.193l.195.092zm-.863-2.311a2.281 2.281 0 00-.865-.738 2.499 2.499 0 00-1.884-.151 2.44 2.44 0 00-.692.346c-.212.152-.39.332-.529.543h3.97zm2.105 3.865v-4.348l-.452.536-.167-.14 1.351-1.597.165.14-.319.383v.38c.437-.414.882-.622 1.336-.622.505 0 .895.204 1.17.61.128.208.207.425.237.648.03.225.045.51.045.859v2.59c0 .18.026.31.079.388a.343.343 0 00.223.147c.096.017.242.026.44.026v.217h-1.9v-.217h.58v-3.176c0-.553-.052-.945-.157-1.172a.958.958 0 00-.368-.448 1.025 1.025 0 00-.57-.166c-.344 0-.616.153-.815.457-.2.306-.3.638-.3.997v2.947c0 .18.026.31.08.388a.331.331 0 00.224.147c.096.017.244.026.443.026v.217h-1.905v-.217h.58zm5.612-1.403c0 .276.064.59.195.946.128.355.398.533.807.533.465-.01.88-.265 1.246-.765l.165.076c-.023.287-.165.526-.42.713a1.35 1.35 0 01-.824.282c-.263 0-.518-.057-.762-.17a1.599 1.599 0 01-.6-.467c-.257-.328-.385-.787-.385-1.378v-3.253h-.642v-.28h.642v-2.08l.578-.65v2.73h1.107v.28h-1.107v3.483zm5.717 1.352c-.45.289-.895.433-1.336.433-.5 0-.921-.168-1.266-.504a1.666 1.666 0 01-.52-1.243c0-.376.107-.717.317-1.025.212-.308.488-.546.83-.718.341-.173.7-.26 1.075-.26.28 0 .579.077.887.232v-.153c0-.519-.056-.895-.167-1.125-.197-.391-.525-.587-.979-.587a1.16 1.16 0 00-.777.285c-.223.192-.39.432-.503.723a2.33 2.33 0 00-.17.857h-.218v-2.479h.219v1.06c.467-.475.985-.713 1.554-.713.608 0 1.062.22 1.362.663.122.189.197.393.225.614.03.221.045.502.045.84v2.59c0 .18.025.31.08.388a.34.34 0 00.224.145c.096.017.244.026.443.026v.219h-1.325v-.268zm0-2.422c-.34-.385-.713-.576-1.118-.576-.268 0-.518.06-.751.18-.234.12-.422.29-.566.509a1.337 1.337 0 00-.214.74c.02.28.096.548.234.808.134.257.319.467.55.631.231.164.484.244.76.244.42 0 .788-.17 1.105-.51V67.74zm2.888 1.912c0 .25.045.408.137.47.09.061.238.09.443.09v.218h-1.736v-.217h.578v-7.794l-.54.623-.167-.14 1.364-1.593.165.14-.244.283v7.92zm10.984-4.988v2.132h-.218v-.18c-.024-.436-.112-.787-.261-1.055-.153-.266-.429-.4-.831-.4a.922.922 0 00-.649.243.81.81 0 00-.263.627c0 .168.047.304.141.41.094.106.2.183.313.232.115.049.29.115.524.198.362.13.645.234.846.317.203.08.396.187.58.314a1.5 1.5 0 01.452.5c.118.206.175.457.175.757 0 .388-.106.722-.32 1a1.985 1.985 0 01-.84.626c-.345.14-.707.21-1.088.21-.533 0-.972-.089-1.317-.267-.344-.18-.593-.396-.745-.649a1.462 1.462 0 01-.224-.74c0-.26.062-.495.184-.71a1.372 1.372 0 011.205-.695c.294 0 .552.079.78.234a.745.745 0 01.338.646.796.796 0 01-.156.472.485.485 0 01-.41.217c-.128 0-.194-.047-.194-.14 0-.028.019-.094.058-.198a.807.807 0 00.057-.274.483.483 0 00-.229-.413.834.834 0 00-.488-.161.83.83 0 00-.608.24.811.811 0 00-.242.6c0 .271.1.53.304.777.203.247.475.45.818.602.343.153.71.234 1.1.243.281 0 .536-.062.765-.183a1.37 1.37 0 00.542-.515c.13-.223.197-.474.197-.757 0-.297-.067-.536-.202-.714-.134-.18-.3-.315-.49-.406a7.766 7.766 0 00-.811-.308c-.4-.136-.68-.239-.842-.308a1.247 1.247 0 01-.445-.356c-.135-.163-.204-.386-.204-.663 0-.374.146-.672.437-.893a1.64 1.64 0 011.017-.331c.238 0 .55.072.938.216l.088.04v-.537h.218zm5.411 5.931h-.208l-.691-2.09-.784 2.09h-.18l-1.439-4.237c-.111-.33-.237-.584-.379-.763-.143-.178-.377-.268-.7-.268v-.217h1.632v.217h-.476l1.503 4.518.643-1.777-.527-1.62a2.876 2.876 0 00-.358-.783c-.139-.204-.35-.317-.633-.338v-.217h1.464v.217h-.422l.669 1.992.526-1.584c0-.163-.047-.272-.137-.327-.092-.053-.25-.08-.477-.08v-.218h1.526v.217h-.398l-.822 2.411.602 2.107 1.042-3.117c.154-.48.24-.8.257-.954 0-.298-.175-.447-.526-.447v-.217h1.554v.217h-.452l-1.809 5.269zm8.263-1.936c-.17.401-.396.75-.681 1.041a2.853 2.853 0 01-.998.666c-.381.153-.794.23-1.24.23a2.86 2.86 0 01-1.372-.351 2.762 2.762 0 01-1.039-.961 2.448 2.448 0 01-.39-1.342c0-.54.153-1.042.455-1.5.301-.46.7-.826 1.196-1.094a3.2 3.2 0 011.549-.403 2.619 2.619 0 011.889.812c.243.257.425.546.539.871h-4.91c-.148.294-.227.655-.242 1.087 0 .459.12.878.362 1.256.24.379.559.678.955.897.398.22.816.33 1.252.332a2.52 2.52 0 001.467-.44 3.038 3.038 0 001.013-1.193l.195.092zm-.863-2.311a2.28 2.28 0 00-.865-.738 2.5 2.5 0 00-1.884-.151c-.249.079-.48.193-.692.346-.212.152-.39.332-.529.543h3.97zm7.066 2.31a3.301 3.301 0 01-.681 1.042 2.856 2.856 0 01-.998.666 3.3 3.3 0 01-1.24.23 2.86 2.86 0 01-1.372-.351 2.762 2.762 0 01-1.039-.961 2.448 2.448 0 01-.39-1.342c0-.54.153-1.042.455-1.5.301-.46.7-.826 1.196-1.094a3.2 3.2 0 011.549-.403 2.615 2.615 0 011.888.812c.244.257.426.546.54.871h-4.91c-.148.294-.227.655-.242 1.087 0 .459.12.878.362 1.256.24.379.559.678.955.897.398.22.816.33 1.252.332a2.52 2.52 0 001.467-.44 3.044 3.044 0 001.013-1.193l.195.092zm-.863-2.31a2.282 2.282 0 00-.865-.738 2.5 2.5 0 00-1.142-.27c-.246 0-.494.04-.743.119-.248.079-.48.193-.691.346a2.06 2.06 0 00-.529.543h3.97zm2.58 2.462c0 .276.064.59.195.946.128.355.398.533.807.533.465-.01.88-.265 1.246-.765l.165.076c-.024.287-.165.526-.42.713a1.354 1.354 0 01-.824.282c-.263 0-.518-.057-.762-.17a1.6 1.6 0 01-.6-.467c-.257-.328-.385-.787-.385-1.378v-3.253h-.643v-.28h.643v-2.08l.578-.65v2.73h1.107v.28h-1.107v3.483zm5.974-4.146v2.132h-.219v-.18c-.023-.436-.111-.787-.261-1.055-.152-.266-.428-.4-.831-.4a.924.924 0 00-.649.243.811.811 0 00-.263.627c0 .168.047.304.141.41a.9.9 0 00.313.232c.116.049.291.115.525.198.361.13.644.234.845.317.204.08.396.187.581.314a1.5 1.5 0 01.451.5c.118.206.176.457.176.757 0 .388-.107.722-.321 1a1.987 1.987 0 01-.839.626c-.345.14-.707.21-1.088.21-.533 0-.972-.089-1.317-.267-.345-.18-.593-.396-.745-.649a1.46 1.46 0 01-.225-.74c0-.26.062-.495.184-.71a1.373 1.373 0 011.206-.695c.293 0 .552.079.779.234a.744.744 0 01.338.646.794.794 0 01-.156.472.485.485 0 01-.409.217c-.128 0-.195-.047-.195-.14a.81.81 0 01.058-.198.798.798 0 00.058-.274.483.483 0 00-.229-.413.836.836 0 00-.489-.161.83.83 0 00-.608.24.814.814 0 00-.242.6c0 .271.101.53.304.777.204.247.476.45.818.602a2.83 2.83 0 001.101.243c.281 0 .535-.062.764-.183a1.37 1.37 0 00.542-.515c.131-.223.197-.474.197-.757 0-.297-.066-.536-.201-.714-.135-.18-.3-.315-.49-.406a7.815 7.815 0 00-.812-.308c-.4-.136-.679-.239-.841-.308a1.244 1.244 0 01-.446-.356c-.135-.163-.203-.386-.203-.663 0-.374.145-.672.436-.893.292-.22.63-.331 1.018-.331.237 0 .55.072.937.216l.088.04v-.537h.219z" fill="#fff"/><path fill-rule="evenodd" clip-rule="evenodd" d="M26.808 67.885s2.35.553 3.563-.484c1.214-1.037 2.238-2.891 3.358-3.717 1.12-.826 2.499-1.794 2.499-1.794s-3.204.536-4.227 1.3c-2.214 1.656-2.137 2.935-5.27 4.266l.077.43zm-1.503-1.492s-.9-2.225-.047-3.57c.853-1.346 2.547-2.627 3.203-3.85a159.07 159.07 0 001.416-2.72s-.058 3.226-.667 4.343c-1.32 2.42-2.605 2.535-3.465 5.809l-.44-.012zM35.22 57.8s-3.11 1.307-5.321 3.494c-2.21 2.187-2.926 3.841-3.196 4.347-.27.506-.585 1.283-.404 1.256.18-.027 2.383-1.22 2.611-1.47.229-.251 2.08-2.335 3.145-3.9s1.978-2.695 2.423-3.079c.445-.384.742-.649.742-.649z" fill="#4F3528"/><path fill-rule="evenodd" clip-rule="evenodd" d="M26.192 66.865l-.483-.505s-.465-.156-.532.07c-.066.225.144.791.207.945.063.154.376.467.676.528.301.062.835-.01.835-.01s.094-.452.006-.5a7.953 7.953 0 01-.587-.378.634.634 0 01-.122-.15z" fill="#4F3528"/><path fill-rule="evenodd" clip-rule="evenodd" d="M25.634 67.194l.334.286-1.442 1.722-.334-.285 1.442-1.723z" fill="#4F3528"/><path fill-rule="evenodd" clip-rule="evenodd" d="M.626 68.832h23.9v.669H.626v-.669z" fill="#4F3528"/><path fill-rule="evenodd" clip-rule="evenodd" d="M.626 69.5V.405h.673v69.097H.626z" fill="#4F3528"/><path fill-rule="evenodd" clip-rule="evenodd" d="M.626.404h131.748v.669H.626V.404z" fill="#4F3528"/><path fill-rule="evenodd" clip-rule="evenodd" d="M131.701 69.5V.405h.673v69.097h-.673z" fill="#4F3528"/><path fill-rule="evenodd" clip-rule="evenodd" d="M114.782 68.832h17.592v.669h-17.592v-.669z" fill="#4F3528"/><path d="M47.522 53.122c-1.417.911-2.821 1.367-4.211 1.367-1.573 0-2.902-.53-3.989-1.588-1.093-1.066-1.64-2.366-1.64-3.92a5.61 5.61 0 01.999-3.23 6.84 6.84 0 012.619-2.265 7.425 7.425 0 013.387-.818c.885 0 1.823.242 2.794.73v-.482c0-1.635-.175-2.82-.526-3.544-.62-1.233-1.653-1.85-3.084-1.85-.938 0-1.755.302-2.45.898-.702.603-1.228 1.36-1.586 2.278a7.363 7.363 0 00-.533 2.7h-.689v-7.813h.689v3.344c1.471-1.5 3.104-2.251 4.9-2.251 1.916 0 3.347.697 4.292 2.09a4.6 4.6 0 01.709 1.937c.094.697.141 1.582.141 2.647v8.162c0 .57.081.978.25 1.226.169.248.405.395.709.456.303.053.769.08 1.397.08v.69h-4.178v-.844zm0-7.632c-1.073-1.213-2.247-1.816-3.523-1.816-.844 0-1.633.187-2.369.57a4.594 4.594 0 00-1.782 1.6 4.213 4.213 0 00-.674 2.333 6.31 6.31 0 00.735 2.546 5.573 5.573 0 001.735 1.99c.729.516 1.525.77 2.395.77 1.323 0 2.484-.535 3.483-1.607V45.49zm8.983-.329l5.919-7.277h-1.822V37.2h5.992v.684h-2.146L57.841 45c2.41 0 4.657 2.172 6.722 6.514.263.536.574.965.945 1.286.378.322.763.483 1.167.483h.406v.683H63.47c-1.06-2.258-1.924-3.933-2.605-5.032-.689-1.092-1.35-1.856-1.998-2.285-.655-.429-1.438-.643-2.362-.643v5.508c0 .576.074.985.23 1.233a.987.987 0 00.667.456c.29.053.75.08 1.364.08v.683h-5.993v-.683h1.91v-13.63c0-.797-.156-1.293-.473-1.48-.317-.195-.918-.29-1.802-.29V37.2h5.993v.684h-1.896v7.277zm17.081-8.483h.77l4.657 13.435c.391 1.04.79 1.83 1.194 2.366.405.536 1.046.804 1.924.804v.683h-5.386v-.683h1.417l-4.704-13.67-3.192 10.293c-.324.951-.486 1.648-.486 2.09 0 .53.155.878.472 1.039.311.168.79.248 1.425.248v.683h-5.298v-.683h1.45l5.757-16.605zm19.35 16.444c-1.418.911-2.821 1.367-4.212 1.367-1.572 0-2.902-.53-3.988-1.588-1.094-1.066-1.64-2.366-1.64-3.92a5.61 5.61 0 01.999-3.23 6.84 6.84 0 012.618-2.265 7.425 7.425 0 013.388-.818c.884 0 1.822.242 2.794.73v-.482c0-1.635-.175-2.82-.526-3.544-.621-1.233-1.654-1.85-3.085-1.85a3.65 3.65 0 00-2.45.898c-.701.603-1.228 1.36-1.585 2.278a7.365 7.365 0 00-.533 2.7h-.689v-7.813h.689v3.344c1.47-1.5 3.104-2.251 4.9-2.251 1.916 0 3.347.697 4.291 2.09a4.6 4.6 0 01.71 1.937c.094.697.14 1.582.14 2.647v8.162c0 .57.082.978.25 1.226.17.248.405.395.71.456.303.053.769.08 1.396.08v.69h-4.177v-.844zm0-7.632c-1.073-1.213-2.248-1.816-3.523-1.816-.844 0-1.634.187-2.37.57a4.595 4.595 0 00-1.781 1.6 4.214 4.214 0 00-.675 2.333 6.31 6.31 0 00.736 2.546 5.573 5.573 0 001.734 1.99c.73.516 1.526.77 2.396.77 1.323 0 2.484-.535 3.483-1.607V45.49zm5.25 8.476v-.683h1.91v-13.63c0-.536-.067-.931-.196-1.186a.924.924 0 00-.634-.483c-.297-.067-.776-.1-1.444-.1V37.2h7.457c3.375 0 5.062.979 5.062 2.935 0 1.562-1.093 2.701-3.28 3.418 1.228 0 2.335.201 3.327.61.986.402 1.762.985 2.315 1.749.56.764.837 1.642.837 2.627 0 1.581-.729 2.915-2.187 3.987-1.282.958-3.124 1.44-5.507 1.44h-7.66zm10.171-13.469c0-1.635-1.323-2.452-3.968-2.452-1.269 0-2.093.026-2.471.08v5.87c2.052-.207 3.638-.583 4.758-1.112 1.121-.536 1.681-1.327 1.681-2.386zm-6.439 4.457v6.325c0 .57.048.979.135 1.233.088.248.284.422.588.51.303.093.816.14 1.538.14h2.147c.87 0 1.707-.187 2.517-.57.803-.381 1.451-.897 1.944-1.554a3.592 3.592 0 00.728-2.178c0-1.474-.472-2.606-1.41-3.377-.938-.777-2.288-1.166-4.056-1.166-1.31 0-2.686.214-4.131.637zm23.406 8.168c-1.418.911-2.821 1.367-4.212 1.367-1.572 0-2.902-.53-3.988-1.588-1.094-1.066-1.64-2.366-1.64-3.92 0-1.186.337-2.258.999-3.23a6.837 6.837 0 012.618-2.265 7.426 7.426 0 013.388-.818c.884 0 1.822.242 2.794.73v-.482c0-1.635-.175-2.82-.526-3.544-.621-1.233-1.654-1.85-3.085-1.85-.938 0-1.754.302-2.449.898-.702.603-1.229 1.36-1.586 2.278a7.359 7.359 0 00-.533 2.7h-.689v-7.813h.689v3.344c1.471-1.5 3.104-2.251 4.899-2.251 1.917 0 3.348.697 4.293 2.09.384.597.62 1.24.708 1.937.095.697.142 1.582.142 2.647v8.162c0 .57.081.978.25 1.226.168.248.405.395.708.456.304.053.77.08 1.397.08v.69h-4.177v-.844zm0-7.632c-1.073-1.213-2.248-1.816-3.523-1.816a5.06 5.06 0 00-2.369.57 4.59 4.59 0 00-1.782 1.6 4.216 4.216 0 00-.675 2.333c.061.884.304 1.729.736 2.546a5.57 5.57 0 001.734 1.99 4.05 4.05 0 002.396.77c1.323 0 2.484-.535 3.483-1.607V45.49z" fill="#4F3528"/></svg>