<svg width="50" height="50" fill="none" xmlns="http://www.w3.org/2000/svg"><g clip-path="url(#clip0)" fill="#fff"><path d="M38.48 31.692c0 6.43-4.57 12.003-10.866 13.252l-.246.049-2.398 2.769-2.397-2.77-.247-.048C16.03 43.694 11.46 38.12 11.46 31.692V23.81H9.996v7.883c0 7.042 4.945 13.157 11.796 14.637L24.97 50l3.178-3.67C35 44.848 39.946 38.733 39.946 31.691V23.81H38.48v7.883z"/><path d="M15.806 27.77v3.922c0 3.8.86 7.417 2.422 10.185l1.276-.72c-1.44-2.552-2.233-5.913-2.233-9.465V27.77h-1.465zm18.329-4.103H32.67c0 8.575.064 9.188-.219 11.21l1.451.202c.3-2.145.233-2.847.233-11.412zm-5.275 3.711h-1.465c0 4.42.105 8.361-.617 12.715l1.446.24c.74-4.471.637-8.442.637-12.954zm-7.78-2.376c0 6.901-.058 8.878.235 12.12l1.459-.131c-.284-3.143-.229-4.922-.229-11.99H21.08zm5.886-17.173V5.606A5.613 5.613 0 0021.359 0h-2.542v3.99h2.542c.891 0 1.616.725 1.616 1.616V7.83c-8.204.839-14.577 6.784-14.577 14.027v.732h33.144v-.732c0-7.266-6.399-13.19-14.576-14.027zm5.219 13.294L21.449 10.389l-1.036 1.036 9.7 9.7h-5.44L16.31 12.76l-1.036 1.036 7.327 7.328h-5.44l-4.385-4.386-1.035 1.037 3.348 3.349h-5.2c.434-6.235 6.369-11.391 13.867-11.891l.684-.046v-3.58a3.084 3.084 0 00-3.08-3.082h-1.078v-1.06h1.077A4.146 4.146 0 0125.5 5.606v3.58l.684.047c7.499.5 13.434 5.656 13.868 11.89h-7.867z"/><path d="M32.466 41.737l-.878-1.172a11.143 11.143 0 004.451-8.873V29.18h1.465v2.512c0 3.927-1.883 7.682-5.038 10.045zm5.038-13.533h-1.465V26.74h1.465v1.465zm0-2.441h-1.465v-1.465h1.465v1.465zm-.179-6.15c-.469-1.67-1.465-3.233-2.882-4.523a12.779 12.779 0 00-3.896-2.41l.542-1.36a14.231 14.231 0 014.34 2.687c1.62 1.475 2.763 3.277 3.306 5.21l-1.41.396zm-7.652-7.248c-.438-.142-.89-.265-1.346-.367l.318-1.43c.5.112.999.247 1.48.404l-.452 1.393zm-2.261-.54a15.671 15.671 0 00-1.39-.156l.098-1.462c.509.034 1.02.091 1.521.17l-.23 1.447z"/></g><defs><clipPath id="clip0"><path fill="#fff" d="M0 0h50v50H0z"/></clipPath></defs></svg>