<svg width="15" height="15" fill="none" xmlns="http://www.w3.org/2000/svg"><g clip-path="url(#clip0)" fill="#FBA73D"><path d="M.712 3.72v7.671a2.727 2.727 0 002.727 2.727h7.67a2.727 2.727 0 002.728-2.727v-7.67A2.727 2.727 0 0011.11.992H3.439A2.727 2.727 0 00.712 3.72zm7.953 7.554a3.98 3.98 0 01-5.11-5.109 3.766 3.766 0 012.329-2.328 3.98 3.98 0 015.11 5.109 3.765 3.765 0 01-2.33 2.329zm3.164-7.687a.513.513 0 01-.926.207.514.514 0 01.289-.783.514.514 0 01.637.575z"/><path d="M7.274 4.367a3.192 3.192 0 00-3.188 3.189 3.192 3.192 0 003.188 3.188 3.192 3.192 0 003.189-3.188 3.192 3.192 0 00-3.189-3.189z"/></g><defs><clipPath id="clip0"><path fill="#fff" transform="translate(.281 .563)" d="M0 0h14v14H0z"/></clipPath></defs></svg>