<svg width="38" height="38" fill="none" xmlns="http://www.w3.org/2000/svg"><circle cx="19" cy="19" r="19" fill="url(#paint0_radial)"/><g clip-path="url(#clip0)"><path d="M25.796 21.846c-.918 0-1.82-.144-2.674-.426-.419-.143-.934-.012-1.19.25l-1.686 1.274c-1.956-1.044-3.16-2.249-4.19-4.19l1.235-1.643c.321-.32.436-.789.299-1.228a8.53 8.53 0 01-.428-2.68c0-.663-.54-1.203-1.204-1.203h-2.754C12.54 12 12 12.54 12 13.204 12 20.81 18.189 27 25.796 27 26.46 27 27 26.46 27 25.796V23.05c0-.663-.54-1.203-1.204-1.203z" fill="#F99C2E"/></g><defs><radialGradient id="paint0_radial" cx="0" cy="0" r="1" gradientUnits="userSpaceOnUse" gradientTransform="matrix(0 19 -19 0 19 19)"><stop stop-color="#FFE4A2"/><stop offset=".156" stop-color="#FFF1CA"/><stop offset="1" stop-color="#FFE47D"/></radialGradient><clipPath id="clip0"><path fill="#fff" transform="translate(12 12)" d="M0 0h15v15H0z"/></clipPath></defs></svg>