<svg width="58" height="58" fill="none" xmlns="http://www.w3.org/2000/svg"><path d="M54.975 20.072c-1.416-3.807-3.969-6.748-7.381-8.505a4.13 4.13 0 01-2.27-3.49l-.014-.555a.906.906 0 00-1.716-.382l-.249.495a4.132 4.132 0 01-3.536 2.199c-4.077.151-7.8 1.956-10.694 4.977A18.954 18.954 0 0014.636 3.648L2.858 1.824a.906.906 0 00-1.005 1.163l3.52 11.386a18.965 18.965 0 009.012 11.034c-.918.405-1.802.882-2.644 1.426-3.408 2.21-5.723 5.341-6.696 9.054a4.131 4.131 0 01-2.915 2.974l-.537.135a.906.906 0 000 1.758l.537.135a4.131 4.131 0 012.915 2.973c.973 3.713 3.288 6.844 6.696 9.054 3.3 2.14 7.388 3.271 11.822 3.271 7.617 0 13.934-3.245 17-8.594l.05.001c.3 0 .6-.024.897-.073 6.851-1.116 12.25-6.94 14.089-15.2.964-4.328.748-8.564-.623-12.25zM27.79 16.357a21.129 21.129 0 00-2.64 4.534l-.744-.642.19-9.207a17.178 17.178 0 013.194 5.315zm-19.906-.48l6.933-1.515 2.508 2.167-8.332 1.401a17.158 17.158 0 01-1.11-2.054zm1.733-6.005l-3.533.657-1.565-5.06 5.098 4.403zM5.703 4.098l5.233.81L10.8 8.5 5.703 4.098zm1.403 9.74l-.485-1.566 4.752-.883 1.728 1.493-5.887 1.285a12.64 12.64 0 01-.108-.329zM18.682 6.71l-.173 8.447L16 12.99l.488-7.08c.749.217 1.482.483 2.194.799zm1.794.923a17.17 17.17 0 012.34 1.669l-.192 9.409-2.333-2.016.185-9.062zM14.7 5.498l-.415 6.012-1.728-1.492.182-4.83 1.62.251c.114.018.227.04.34.06zM10.166 19.57l8.94-1.503 2.333 2.016-9.28 1.56a17.17 17.17 0 01-1.993-2.073zm3.975 3.578l9.08-1.527 1.239 1.07c-.098.29-.19.583-.277.88-.206-.004-.412-.009-.62-.009a23.577 23.577 0 00-6.822.975 17.096 17.096 0 01-2.6-1.389zm-1.413 5.206a17.663 17.663 0 014.283-2.003c2.121-.66 4.33-.989 6.552-.976 7.704 0 13.918 3.567 16.216 9.308a3.709 3.709 0 01-1.112 4.286h-.914a5.44 5.44 0 00-1.54-5.897 5.441 5.441 0 00-1.855-1.07c-.84-1.14-2.116-2.043-3.626-2.56a8.05 8.05 0 00-2.824-.438c-1.195-1.145-3.01-1.817-4.958-1.817-1.992 0-3.84.7-5.034 1.89a8.148 8.148 0 00-2.06.46c-2.301.835-3.98 2.54-4.422 4.44a5.412 5.412 0 00-3.278 4.992H5.348a6.058 6.058 0 001.45-2.622c.857-3.269 2.907-6.033 5.93-7.993zm7.85 18.13l-.886-.886a4.18 4.18 0 00-2.847-1.228l-4.128-.136a.916.916 0 00-.19.014c-.005-.002-.01-.005-.016-.006a3.609 3.609 0 01-2.542-3.46h25.797a3.625 3.625 0 01.01 3.601l-5.66.015a4.18 4.18 0 00-3.739 2.321.907.907 0 101.621.81 2.376 2.376 0 012.124-1.319l3.194-.008a.908.908 0 00-.28.274c-.604.923-1.657 1.694-2.891 2.116a6.096 6.096 0 01-2.516.32.906.906 0 00-.768.308c-.823.943-2.322 1.529-3.911 1.529-1.604 0-3.109-.593-3.928-1.549a.905.905 0 00-.654-.315 6.266 6.266 0 01-1.894-.378c-1.361-.493-2.472-1.42-3.003-2.436l3.319.11c.61.016 1.19.265 1.621.698l.886.885a.907.907 0 101.282-1.281l-.001.001zm-8.067-10.976l.017-.007a.84.84 0 00.159.015h.03l4.123-.136a4.184 4.184 0 002.852-1.228l.886-.886a.906.906 0 10-1.281-1.282l-.886.886a2.38 2.38 0 01-1.626.698l-3.315.11c.532-1.017 1.643-1.943 3.003-2.436a6.264 6.264 0 011.895-.378.905.905 0 00.653-.316c.82-.955 2.325-1.548 3.929-1.548 1.59 0 3.088.586 3.91 1.53a.91.91 0 00.769.306 6.126 6.126 0 012.516.32c1.234.423 2.287 1.194 2.89 2.117a.93.93 0 00.281.274l-3.192-.008a2.375 2.375 0 01-2.126-1.32.906.906 0 00-1.62.81 4.18 4.18 0 003.74 2.322l5.658.014a3.625 3.625 0 01-.01 3.603H9.969a3.609 3.609 0 012.542-3.46zm11.052 18.867c-4.084 0-7.83-1.03-10.835-2.98-3.023-1.96-5.073-4.723-5.93-7.992a6.058 6.058 0 00-1.45-2.622h2.808a5.412 5.412 0 003.277 4.992c.443 1.9 2.122 3.605 4.423 4.439a8.153 8.153 0 002.06.46c1.193 1.19 3.042 1.89 5.034 1.89 1.947 0 3.763-.672 4.958-1.816a8.04 8.04 0 002.823-.438c1.511-.516 2.786-1.419 3.627-2.56a5.443 5.443 0 003.395-6.967h.914a3.709 3.709 0 011.112 4.285c-2.298 5.742-8.512 9.309-16.216 9.309zM53.83 31.927c-1.651 7.412-6.369 12.654-12.347 13.756.238-.61.367-1.257.38-1.912l2.106-2.435c.51-.591.99-1.209 1.437-1.85a.906.906 0 00-1.488-1.035c-.41.59-.85 1.156-1.32 1.7l-1.173 1.355a5.498 5.498 0 00-1.071-1.631 5.514 5.514 0 001.108-5.865c-.38-.946-.856-1.85-1.422-2.698l1.682-7.553a.907.907 0 10-1.77-.394l-1.359 6.106c-1.787-1.947-4.105-3.471-6.8-4.483a20.431 20.431 0 012.174-4.562.904.904 0 00-.604-1.38.905.905 0 00-.923.403 22.265 22.265 0 00-2.37 4.976 23.24 23.24 0 00-4.026-.743c2.244-7.119 7.584-11.804 13.833-12.036a6.015 6.015 0 003.995-1.709 6.016 6.016 0 002.892 3.242c3.005 1.547 5.257 4.149 6.513 7.525 1.249 3.357 1.44 7.238.553 11.223z" fill="#fff"/><path d="M42.85 14.521a.906.906 0 00-1.081.688l-1.01 4.531a.907.907 0 101.77.394l1.01-4.531a.907.907 0 00-.689-1.082zm-4.422-1.593l-2.345 2.168c-.52.48-1.022.992-1.493 1.519a.908.908 0 00.727 1.511.906.906 0 00.625-.304 20.66 20.66 0 011.37-1.395l2.346-2.168a.905.905 0 10-1.23-1.33zm10.058 15.427a.906.906 0 00-1.03.763l-.099.667a20.42 20.42 0 01-1.948 6.158.905.905 0 101.62.813 22.223 22.223 0 002.12-6.704l.1-.667a.906.906 0 00-.763-1.03zm.714-5.846a22.24 22.24 0 00-.176-.944.907.907 0 10-1.775.37 20.4 20.4 0 01.418 3.47.906.906 0 00.905.876h.032a.906.906 0 00.875-.937 22.369 22.369 0 00-.28-2.834v-.001zm-2.675-3.178a.905.905 0 101.71-.6c-.119-.34-.248-.68-.384-1.014l-1.079-2.652a.906.906 0 00-1.679.683l1.08 2.652c.123.307.242.62.352.931zM20.578 37.797l.531-.531a3.47 3.47 0 014.907 0l.53.53a.906.906 0 001.282-1.28l-.53-.532a5.282 5.282 0 00-7.47 0l-.531.531a.907.907 0 001.281 1.282zm6.719 5.968l.531-.53a.907.907 0 00-1.281-1.282l-.531.53a3.47 3.47 0 01-4.907 0l-.53-.53a.907.907 0 00-1.282 1.281l.53.531a5.282 5.282 0 007.47 0z" fill="#fff"/></svg>