<svg width="46" height="46" fill="none" xmlns="http://www.w3.org/2000/svg"><g clip-path="url(#clip0)" fill="#fff"><path d="M10.954 17.252a.635.635 0 00-.801.6c0 .283.003.555.005.833-3.291-2-4.393-1.977-4.975-1.705-.582.273-1.31 1.096-1.892 4.9-.209-.177-.42-.354-.635-.532a.637.637 0 00-.975.228c-2.252 5.038-2.255 11.407-.007 16.226 2.38 5.105 7.207 8.194 12.007 8.194 1.576.003 3.135-.34 4.564-1.006a11.263 11.263 0 006.016-7.205 14.362 14.362 0 00-.872-10.108c-2.247-4.82-7.128-8.912-12.435-10.425zm-5.24.869c.032-.012.79-.274 4.466 2.058.052 3.555.524 7.09 1.407 10.534A44.958 44.958 0 004.42 22.86c.575-4.312 1.266-4.725 1.294-4.74zm17.34 19.309a10.023 10.023 0 01-5.34 6.421c-5.358 2.497-12.043-.453-14.9-6.58C.86 33.08.758 27.398 2.507 22.864c5.539 4.695 8.946 9.05 11.659 14.867a.63.63 0 001.14-.53c-2.713-5.817-3.86-11.228-3.896-18.489 4.598 1.575 8.885 5.304 10.84 9.496a13.104 13.104 0 01.804 9.222zM44.32 4.725a.636.636 0 00-.976-.227 69.53 69.53 0 00-.635.532C42.126 1.224 41.4.4 40.817.13c-.584-.271-1.681-.297-4.975 1.703 0-.278.007-.55.005-.833a.637.637 0 00-.802-.6C29.74 1.913 24.858 6.006 22.611 10.825c-3.15 6.756-.843 14.522 5.145 17.314a10.756 10.756 0 004.564 1.007c4.8 0 9.626-3.091 12.007-8.194 2.248-4.82 2.244-11.189-.008-16.227zM40.285 1.27c.029.015.719.427 1.294 4.74a44.97 44.97 0 00-7.167 7.853A45.033 45.033 0 0035.82 3.329c3.675-2.332 4.435-2.071 4.466-2.06zm2.901 19.15c-2.857 6.127-9.54 9.08-14.9 6.58-5.359-2.498-7.393-9.516-4.536-15.644 1.954-4.19 6.241-7.92 10.839-9.494-.036 7.261-1.183 12.671-3.896 18.488a.63.63 0 001.14.53c2.713-5.817 6.12-10.173 11.659-14.868 1.75 4.536 1.648 10.217-.307 14.408h.002z"/></g><defs><clipPath id="clip0"><path fill="#fff" d="M0 0h46v46H0z"/></clipPath></defs></svg>