<svg width="73" height="48" fill="none" xmlns="http://www.w3.org/2000/svg"><path fill-rule="evenodd" clip-rule="evenodd" d="M43.172 22.942C46.086 17.668 54.155 6.11 58.548 0H73c-3.262 4.65-9.142 14.083-8.724 17.52 5.154 2.692 8.669 8.055 8.669 14.232 0 8.878-7.259 16.075-16.212 16.075S40.522 40.63 40.522 31.752c0-3.253.974-6.28 2.65-8.81zM1.259 25.353C1.614 22.884 12.376 7.423 17.712 0h14.452c-3.21 4.577-8.957 13.786-8.739 17.353 5.334 2.632 8.998 8.091 8.998 14.4 0 8.877-7.258 16.074-16.212 16.074C7.259 47.827 0 40.63 0 31.752c0-2.247.465-4.387 1.306-6.33l-.047-.069z" fill="#F24F4B"/></svg>