<svg width="16" height="17" fill="none" xmlns="http://www.w3.org/2000/svg"><g clip-path="url(#clip0)"><path d="M7.8 12.92h.958s.289-.031.436-.19c.14-.146.14-.42.14-.42s-.02-1.284.58-1.472c.591-.188 1.341 1.24 2.14 1.788.611.42 1.07.33 1.07.33l2.141-.03s1.121-.07.591-.95c-.04-.07-.3-.65-1.58-1.84-1.342-1.241-1.162-1.041.45-3.192.98-1.31 1.38-2.11 1.25-2.45-.11-.32-.84-.241-.84-.241l-2.401.02s-.18-.02-.31.06-.21.261-.21.261-.38 1.02-.89 1.88c-1.082 1.82-1.512 1.92-1.682 1.8-.403-.261-.3-1.054-.3-1.622 0-1.76.27-2.5-.52-2.69-.26-.06-.454-.1-1.123-.11-.86-.01-1.586.006-1.997.207-.27.135-.48.435-.36.45.16.02.52.097.71.358.25.337.24 1.09.24 1.09s.14 2.078-.33 2.336c-.33.175-.77-.187-1.73-1.837-.49-.84-.86-1.78-.86-1.78s-.07-.171-.2-.271a1.051 1.051 0 00-.371-.15l-2.29.02s-.34.01-.46.16c-.11.13-.01.41-.01.41s1.79 4.191 3.821 6.302c1.86 1.935 3.97 1.81 3.97 1.81L7.8 12.92z" fill="#fff"/></g><defs><clipPath id="clip0"><path fill="#fff" transform="translate(0 .406)" d="M0 0h16v16H0z"/></clipPath></defs></svg>