<svg width="50" height="19" viewBox="0 0 50 19" fill="none" xmlns="http://www.w3.org/2000/svg">
<g clip-path="url(#clip0)">
<path d="M3.80709 3.75295C4.83987 2.21431 6.02019 0.137131 8.45461 0.137131C12.512 0.0601988 16.1267 -0.478328 19.7415 1.29112C22.766 3.75295 20.0365 8.52276 16.8644 9.21516C17.971 10.2153 18.93 11.677 18.5611 13.2926C17.6021 17.9855 13.1759 18.6778 9.63494 18.8317C6.90544 18.8317 3.95463 19.2164 1.37267 18.3701C1.11398 18.277 0.875758 18.1309 0.67201 17.9404C0.468263 17.7499 0.303106 17.5189 0.186256 17.2608C0.0694055 17.0027 0.00322189 16.7229 -0.00840161 16.4378C-0.0200251 16.1527 0.0231462 15.868 0.118573 15.6005C1.22045 12.5464 2.55248 9.58813 4.10217 6.75332C5.20872 4.90694 7.64314 5.44547 9.41362 5.21467C9.11854 5.83013 8.52838 6.90718 8.2333 7.52264C10.5202 7.59957 13.1021 8.06117 15.1677 6.67639C15.8316 6.21479 16.348 5.13774 15.9054 4.36841C15.0939 3.36829 13.6923 3.52216 12.5857 3.36829C9.65447 3.27679 6.72067 3.40535 3.80709 3.75295ZM5.43003 14.3696C5.06118 15.5236 6.83167 15.2928 7.4956 15.4467C9.85625 15.7544 13.3972 15.3697 14.1349 12.831C14.1821 12.644 14.1927 12.4489 14.166 12.2576C14.1392 12.0662 14.0758 11.8824 13.9793 11.7172C13.8829 11.552 13.7555 11.4088 13.6048 11.2961C13.4541 11.1835 13.2831 11.1037 13.1021 11.0615C11.2816 10.6647 9.40755 10.6126 7.56937 10.9077C6.16773 11.4462 5.79888 13.1387 5.43003 14.3696Z" fill="#CCCCCC"/>
<path d="M23.5772 3.82971C23.4884 3.83079 23.4008 3.80927 23.3219 3.76702C23.2429 3.72476 23.1751 3.66305 23.1242 3.58725C23.0733 3.51144 23.0409 3.42382 23.0299 3.33201C23.0188 3.24019 23.0294 3.14695 23.0608 3.06038C23.6509 1.75253 24.4624 0.44468 25.9378 0.44468C29.7739 0.290815 33.6099 0.290815 37.446 0.44468C37.5781 0.443064 37.7085 0.4759 37.8254 0.540205C37.9422 0.60451 38.0418 0.698246 38.1151 0.812897C38.1884 0.927547 38.2331 1.05948 38.2451 1.19671C38.257 1.33393 38.2359 1.4721 38.1837 1.59867C37.2984 3.52198 36.0443 5.36835 35.8968 7.59939C39.6591 6.13768 41.7984 2.21413 45.4869 0.44468C46.8678 0.110979 48.3006 0.0847642 49.6918 0.367748C49.7633 0.381237 49.8294 0.416435 49.8818 0.468928C49.9341 0.52142 49.9705 0.588869 49.9862 0.662817C50.002 0.736764 49.9965 0.813918 49.9703 0.884601C49.9442 0.955284 49.8987 1.01635 49.8394 1.06014C46.9623 3.29118 44.0853 5.44529 41.4296 7.90712C45.0443 10.369 42.5361 15.2926 43.9378 18.8315C42.3886 18.6007 40.2493 19.5239 39.1427 17.9853C38.8476 16.1389 39.4378 14.1386 39.1427 12.2923C39.0819 11.9249 38.9358 11.5786 38.7172 11.2836C38.4986 10.9886 38.2142 10.7538 37.8886 10.5998C36.7133 10.2286 35.4627 10.2019 34.2739 10.5228C32.4296 12.6 32.0608 15.6773 30.4378 17.9853C29.1837 19.3701 27.1919 18.9085 25.569 18.9854C27.7821 14.1387 29.9952 9.29191 32.2083 4.5221C29.6263 3.36811 26.528 3.75277 23.5772 3.82971Z" fill="#CCCCCC"/>
<path d="M22.6919 8.67676C20.7001 7.5997 22.3968 5.90719 23.7247 5.4456C25.3892 5.23953 27.0679 5.18804 28.7411 5.29173C26.9706 9.36915 25.2001 13.5235 23.4296 17.6009C23.3481 17.8128 23.218 18.0007 23.0509 18.1482C22.8837 18.2957 22.6845 18.3984 22.4706 18.4472C21.2887 18.7567 20.0745 18.9117 18.8559 18.9088C18.7759 18.9118 18.6965 18.8934 18.6253 18.8554C18.5541 18.8174 18.4934 18.761 18.449 18.6916C18.4047 18.6221 18.3781 18.542 18.3718 18.4588C18.3655 18.3756 18.3798 18.2922 18.4132 18.2164C19.8149 14.9852 21.2165 11.831 22.6919 8.67676Z" fill="#CCCCCC"/>
</g>
<defs>
<clipPath id="clip0">
<rect width="50" height="19" fill="white"/>
</clipPath>
</defs>
</svg>
