<svg width="162" height="86" viewBox="0 0 162 86" fill="none" xmlns="http://www.w3.org/2000/svg">
<path d="M83.5527 23.0095C82.6378 23.7702 81.4943 24.691 80.122 25.7713C78.7497 26.8518 77.2404 27.9701 75.5937 29.1266C73.947 30.2833 72.2241 31.4398 70.425 32.5963C68.6259 33.7527 66.8344 34.7874 65.0505 35.7005C63.2665 36.6135 61.5512 37.3517 59.9046 37.9147C58.2579 38.4776 56.7638 38.7593 55.4221 38.7593C54.5376 38.7593 53.7144 38.6223 52.952 38.3484C52.1895 38.0745 51.534 37.6559 50.9851 37.0929C50.4362 36.5299 50.0093 35.8071 49.7045 34.9244C49.3995 34.0418 49.2471 32.9918 49.2471 31.7745C49.2471 29.9789 49.5901 28.2212 50.2761 26.5018C50.9622 24.7823 51.877 23.1311 53.0206 21.5486C54.1642 19.9659 55.4678 18.4595 56.9314 17.0291C58.3951 15.5987 59.8969 14.2748 61.437 13.0573C62.9769 11.84 64.4939 10.752 65.9882 9.79328C67.4823 8.83456 68.8394 8.02048 70.0591 7.35082C70.12 7.32053 70.2268 7.25952 70.3792 7.16821C70.5317 7.0769 70.6385 7.03125 70.6994 7.03125C70.9739 7.03125 71.1111 7.15306 71.1111 7.39648C71.1111 7.48778 71.05 7.57909 70.9282 7.6704C70.2878 7.97483 69.3729 8.49216 68.1836 9.22261C66.9945 9.95306 65.6832 10.8736 64.25 11.9844C62.8168 13.0955 61.3607 14.3584 59.8818 15.7737C58.4028 17.1889 57.0534 18.7181 55.8336 20.3616C54.6139 22.0051 53.6153 23.7551 52.8376 25.6115C52.06 27.4679 51.6712 29.3702 51.6712 31.318C51.6712 32.4137 51.8313 33.3419 52.1515 34.1028C52.4717 34.8636 52.8986 35.4722 53.4323 35.9287C53.9658 36.3853 54.5833 36.72 55.2849 36.9331C55.9862 37.1462 56.7181 37.2527 57.4803 37.2527C58.7611 37.2527 60.2323 36.9408 61.8942 36.3168C63.5561 35.693 65.3172 34.8636 67.1773 33.8289C69.0375 32.794 70.9433 31.5919 72.8949 30.2223C74.8466 28.8529 76.7676 27.4071 78.6582 25.8854C80.5488 24.3637 82.3482 22.8343 84.0558 21.2975C85.7635 19.7604 87.3033 18.2921 88.6756 16.8922C89.7123 15.8878 90.8101 14.9139 91.9689 13.9703C93.1276 13.027 94.2712 12.1442 95.3995 11.3227C96.5277 10.5009 97.6178 9.7553 98.6699 9.08565C99.722 8.416 100.69 7.83786 101.574 7.35082C101.635 7.32053 101.742 7.25952 101.895 7.16821C102.047 7.0769 102.154 7.03125 102.215 7.03125C102.489 7.03125 102.626 7.15306 102.626 7.39648C102.626 7.48778 102.566 7.57909 102.443 7.6704C101.803 7.97483 100.888 8.49216 99.6991 9.22261C98.5098 9.95306 97.1987 10.8736 95.7653 11.9844C94.3321 13.0955 92.876 14.3584 91.3971 15.7737C89.9181 17.1889 88.5687 18.7181 87.3491 20.3616C86.1294 22.0051 85.1306 23.7551 84.3529 25.6115C83.5755 27.4679 83.1867 29.3702 83.1867 31.318C83.1867 32.4137 83.3468 33.3419 83.667 34.1028C83.9872 34.8636 84.4141 35.4722 84.9476 35.9287C85.4813 36.3853 86.0989 36.72 86.8002 36.9331C87.5015 37.1462 88.2334 37.2527 88.9958 37.2527C90.429 37.2527 92.1061 36.8646 94.0273 36.0885C95.9482 35.3124 97.9761 34.2854 100.111 33.0071C102.245 31.7289 104.418 30.2679 106.629 28.6246C108.84 26.9811 110.959 25.2919 112.987 23.5571C115.015 21.8225 116.89 20.1182 118.613 18.4442C120.336 16.7703 121.777 15.2638 122.935 13.9247C123.057 13.7726 123.187 13.6051 123.324 13.4225C123.462 13.2399 123.606 13.1486 123.759 13.1486C123.911 13.1486 124.056 13.2476 124.193 13.4453C124.331 13.6433 124.399 13.7726 124.399 13.8334C124.399 13.9855 124.262 14.1986 123.988 14.4725C123.195 15.4769 122.242 16.6106 121.129 17.8735C120.016 19.1366 118.857 20.4606 117.652 21.8453C116.448 23.2301 115.251 24.6528 114.062 26.1137C112.873 27.5746 111.805 29.005 110.86 30.4049C109.914 31.805 109.152 33.1441 108.573 34.4224C107.993 35.7005 107.704 36.857 107.704 37.8918C107.46 38.1353 107.147 38.3255 106.766 38.4625C106.385 38.5995 106.057 38.6679 105.783 38.6679C105.417 38.6679 105.173 38.5766 105.051 38.394C104.929 38.2114 104.868 37.9983 104.868 37.7549C104.868 36.781 105.203 35.6853 105.874 34.4681C106.545 33.2506 107.345 32.0333 108.275 30.8158C109.205 29.5985 110.166 28.4267 111.157 27.3007C112.148 26.1745 112.949 25.2158 113.558 24.4245C113.65 24.3029 113.696 24.2116 113.696 24.1506C113.696 24.0898 113.681 24.0593 113.65 24.0593C113.558 24.0593 113.421 24.1506 113.238 24.3332C112.324 25.0942 111.226 25.9767 109.945 26.9811C108.664 27.9855 107.269 29.0202 105.76 30.0853C104.25 31.1505 102.672 32.2082 101.026 33.2582C99.3789 34.3083 97.7322 35.2365 96.0855 36.0429C94.439 36.8495 92.838 37.5038 91.2827 38.006C89.7277 38.5082 88.2791 38.7593 86.9374 38.7593C86.0531 38.7593 85.2297 38.6223 84.4673 38.3484C83.7051 38.0745 83.0495 37.6559 82.5006 37.0929C81.9517 36.5299 81.5248 35.8071 81.2198 34.9244C80.9148 34.0418 80.7624 32.9918 80.7624 31.7745C80.7624 30.2223 81.0063 28.7159 81.4943 27.255C81.9822 25.7941 82.6682 24.3789 83.5527 23.0095ZM137.955 33.4833C137.955 33.6661 137.886 33.8033 137.749 33.8946L134.659 35.1281C134.202 35.3109 133.618 35.5507 132.908 35.8477C132.199 36.1446 131.432 36.4301 130.608 36.7042C129.784 36.9783 128.983 37.2181 128.205 37.4238C127.427 37.6294 126.74 37.7323 126.145 37.7323C125.184 37.7323 124.703 37.4353 124.703 36.8414C124.703 36.6586 124.738 36.4188 124.806 36.1218C124.875 35.8249 125.024 35.5164 125.253 35.1966C124.886 35.4707 124.383 35.7792 123.742 36.1218C123.101 36.4644 122.414 36.7842 121.682 37.0812C120.95 37.3781 120.206 37.6407 119.45 37.8692C118.695 38.0977 118.02 38.2118 117.425 38.2118C116.555 38.2118 115.926 38.0405 115.537 37.6979C115.148 37.3553 114.953 36.9327 114.953 36.4301C114.953 35.562 115.411 34.4885 116.326 33.2094C117.242 31.93 118.409 30.7081 119.828 29.543C121.247 28.378 122.804 27.3843 124.497 26.5619C126.191 25.7395 127.816 25.3284 129.372 25.3284C130.15 25.3284 130.7 25.4656 131.02 25.7395C131.341 26.0137 131.501 26.4021 131.501 26.9045C131.501 27.6356 131.169 28.298 130.505 28.8919C129.842 29.4859 129.212 29.9657 128.617 30.3311C128.434 30.4224 128.297 30.4681 128.205 30.4681C128.114 30.4681 127.988 30.4111 127.827 30.2967C127.667 30.1826 127.587 30.0341 127.587 29.8513C127.587 29.6228 127.77 29.2802 128.136 28.8235C128.319 28.6406 128.537 28.378 128.789 28.0354C129.04 27.6926 129.166 27.4071 129.166 27.1787C129.166 26.996 129.086 26.8476 128.926 26.7332C128.766 26.6191 128.434 26.5619 127.93 26.5619C127.152 26.5619 126.191 26.8476 125.046 27.4187C123.902 27.9895 122.804 28.6978 121.751 29.543C120.698 30.3883 119.794 31.2676 119.039 32.1813C118.283 33.095 117.905 33.8946 117.905 34.5798C117.905 35.0825 118.112 35.4594 118.523 35.7105C118.936 35.9618 119.393 36.0875 119.897 36.0875C120.4 36.0875 120.973 35.9733 121.613 35.7449C122.254 35.5164 122.872 35.2651 123.467 34.9909C124.062 34.717 124.6 34.4314 125.081 34.1344C125.562 33.8374 125.87 33.6205 126.008 33.4833C126.099 33.392 126.237 33.255 126.42 33.0722C126.603 32.8894 126.786 32.7981 126.969 32.7981C127.061 32.7981 127.198 32.8437 127.381 32.9353C127.564 33.0266 127.656 33.1863 127.656 33.4148C127.427 33.7803 127.267 34.1001 127.175 34.3742C127.084 34.6483 127.038 34.8996 127.038 35.1281C127.038 35.722 127.45 36.019 128.274 36.019C128.777 36.019 129.338 35.939 129.956 35.7792C130.574 35.6192 131.192 35.4364 131.81 35.2309C132.428 35.0253 133 34.8196 133.526 34.6142C134.053 34.4085 134.453 34.2601 134.728 34.1687C135.644 33.8033 136.33 33.5292 136.788 33.3463C137.063 33.2094 137.337 33.095 137.612 33.0037C137.703 33.0037 137.783 33.0609 137.852 33.175C137.921 33.2892 137.955 33.392 137.955 33.4833ZM156.906 33.552C156.906 33.7346 156.838 33.8718 156.7 33.9631L153.61 35.1966C153.152 35.3794 152.569 35.6192 151.859 35.9162C151.15 36.2131 150.383 36.4988 149.559 36.7727C148.735 37.0468 147.934 37.2868 147.156 37.4923C146.378 37.6979 145.691 37.8007 145.096 37.8007C143.906 37.8007 143.059 37.4581 142.556 36.7727C142.052 36.0875 141.754 35.2422 141.663 34.2372C140.747 34.8768 139.866 35.5507 139.019 36.2588C138.173 36.967 137.429 37.7094 136.788 38.486C136.559 38.7145 136.353 38.8286 136.17 38.8286C136.078 38.8286 135.964 38.7145 135.827 38.486C135.827 38.349 135.849 38.2575 135.895 38.2118L135.964 38.1434C136.513 37.5038 137.291 36.7386 138.298 35.8477C139.306 34.9568 140.427 34.0544 141.663 33.1407C141.663 32.4555 141.72 31.7702 141.835 31.0848C141.949 30.3996 142.075 29.7828 142.212 29.2346C142.395 28.595 142.578 27.9782 142.761 27.3843C142.853 27.1558 142.956 26.9845 143.071 26.8704C143.185 26.7561 143.356 26.6991 143.585 26.6991C143.906 26.6991 144.215 26.7789 144.512 26.9389C144.81 27.0989 144.959 27.3615 144.959 27.7269C144.959 27.8182 144.936 27.9098 144.89 28.0011C144.844 28.0924 144.798 28.1839 144.753 28.2752C144.707 28.5493 144.615 28.8691 144.478 29.2346C144.249 29.9657 144.066 30.7194 143.929 31.4961C145.165 30.5824 146.366 29.76 147.534 29.0289C148.701 28.298 149.719 27.7498 150.589 27.3843C150.864 27.2471 151.138 27.1787 151.413 27.1787C151.688 27.1787 151.905 27.293 152.065 27.5213C152.226 27.7498 152.306 28.0011 152.306 28.2752C152.306 28.6863 152.123 28.9604 151.756 29.0976C150.658 29.5087 149.41 30.0454 148.014 30.7081C146.618 31.3705 145.211 32.1129 143.791 32.9353V33.0722C143.791 33.8946 143.963 34.6255 144.306 35.2651C144.65 35.9049 145.302 36.2246 146.263 36.2246C146.813 36.2246 147.442 36.1446 148.152 35.9846C148.861 35.8249 149.571 35.6307 150.28 35.4022C150.99 35.1738 151.653 34.9568 152.271 34.7511C152.889 34.5455 153.359 34.3742 153.679 34.2372C154.594 33.8718 155.281 33.5977 155.739 33.4148C156.013 33.2779 156.288 33.1635 156.563 33.0722C156.654 33.0722 156.734 33.1294 156.803 33.2435C156.872 33.3579 156.906 33.4605 156.906 33.552Z" fill="#EC6823"/>
<path d="M15.6926 16.9455C14.1355 16.9455 13.357 17.101 13.357 17.4247V29.3007H20.1435C22.9593 29.3007 25.6583 29.7022 28.2536 30.518C30.836 31.321 33.1586 32.5125 35.1958 34.0796C37.2331 35.6465 38.8422 37.5763 40.0101 39.8426C41.1909 42.122 41.7748 44.6733 41.7748 47.4966C41.7748 51.11 40.9314 54.2829 39.2444 57.0285C37.5575 59.7741 35.2478 61.872 32.3021 63.3355C29.3696 64.7859 26.0866 65.5113 22.4792 65.5113H4.72789V64.1773H9.23053V22.6957C9.23053 20.015 8.9969 18.3832 8.52986 17.8003C8.08868 17.2305 6.66125 16.9455 4.2478 16.9455V15.6246H27.9941V12.5293H29.3177V29.3784H27.9941V27.3709C27.9941 25.3764 27.8644 23.7319 27.6047 22.4109C27.3452 21.0897 26.6706 20.0019 25.5935 19.1343C23.7899 17.6708 20.4808 16.9455 15.6926 16.9455ZM13.357 63.3225C15.6407 64.0608 18.3138 64.4235 21.3762 64.4235C23.673 64.4235 25.8271 63.9702 27.8255 63.0635C29.8367 62.1701 31.5755 60.9007 33.0547 59.2819C34.534 57.663 35.6631 55.811 36.4546 53.7389C37.2461 51.6538 37.6484 49.4652 37.6484 47.1729C37.6484 44.2978 36.9736 41.6817 35.6111 39.3116C34.2487 36.9547 32.3281 35.0637 29.8756 33.6651C26.7614 31.8908 22.7648 31.0102 17.8857 31.0102H13.357V63.3225Z" fill="#4F3528"/>
<path d="M68.6396 54.7775L75.8177 45.906H73.608V45.0728H80.8761V45.906H78.2733L70.2602 54.5814C73.1822 54.5814 75.9077 57.2281 78.4124 62.5215C78.7316 63.1751 79.1082 63.6978 79.5583 64.0899C80.0166 64.482 80.4832 64.6781 80.9742 64.6781H81.4654V65.5114H77.0863C75.8015 62.7585 74.7537 60.7163 73.9271 59.3765C73.0922 58.0449 72.2902 57.1137 71.5045 56.591C70.7104 56.0682 69.7609 55.8068 68.6396 55.8068V62.5215C68.6396 63.224 68.7298 63.7223 68.9179 64.0246C69.1062 64.3269 69.3764 64.5066 69.7282 64.5802C70.0802 64.6454 70.6369 64.6781 71.3816 64.6781V65.5114H64.1134V64.6781H66.4298V48.0626C66.4298 47.0905 66.2415 46.4861 65.8568 46.2574C65.4722 46.0204 64.7438 45.906 63.6714 45.906V45.0728H70.9395V45.906H68.6396V54.7775Z" fill="#4F3528"/>
<path d="M48.7267 85.783C48.1605 85.7725 47.6361 85.617 47.1479 85.319C46.6623 85.0209 46.2728 84.6243 45.9845 84.1294C45.6963 83.6343 45.5508 83.1056 45.5508 82.5484C45.5508 81.5585 45.9248 80.7135 46.67 80.0138C47.4491 79.2673 48.3449 78.8942 49.35 78.8942C49.916 78.8942 50.4431 79.0418 50.9313 79.3347C51.4195 79.6276 51.809 80.0215 52.0973 80.514C52.3854 81.0064 52.5308 81.5325 52.5308 82.0948C52.5308 83.0849 52.1569 83.9297 51.409 84.6322C50.6015 85.3994 49.7082 85.783 48.7267 85.783ZM46.1273 82.3152C46.1298 82.7764 46.2649 83.2353 46.5323 83.6889C46.7999 84.1424 47.1582 84.5181 47.6049 84.8161C48.0514 85.1141 48.5371 85.2748 49.0565 85.3008C49.6355 85.3008 50.1471 85.1634 50.5884 84.8861C51.0301 84.6088 51.3676 84.2408 51.6038 83.7821C51.8376 83.3234 51.9543 82.8336 51.9543 82.3152C51.9389 81.8486 51.8013 81.3874 51.539 80.9285C51.2767 80.4724 50.9236 80.0968 50.4846 79.809C50.0432 79.5214 49.568 79.3761 49.0565 79.3761C48.4851 79.3789 47.9762 79.5163 47.5295 79.7883C47.0804 80.0605 46.735 80.4232 46.4934 80.8741C46.2493 81.3251 46.1273 81.8073 46.1273 82.3152ZM54.7901 78.5364L54.9953 78.7075L54.6031 79.1741V79.7183C54.8784 79.4435 55.1302 79.2362 55.3536 79.099C55.5795 78.9616 55.8469 78.8942 56.1611 78.8942C56.4001 78.8942 56.691 78.9616 57.0311 79.0962V78.4874H57.2985V81.3226H57.0311V81.2112C57.0311 80.641 56.9896 80.2314 56.9065 79.9801C56.7558 79.5679 56.4702 79.3296 56.0521 79.2673C55.7484 79.2673 55.46 79.3789 55.19 79.6044C54.9199 79.8271 54.7251 80.0786 54.6031 80.356V84.6322C54.6031 84.8524 54.6343 85.0105 54.6993 85.1065C54.764 85.2048 54.8551 85.262 54.9718 85.2852C55.0887 85.3059 55.2679 85.3164 55.5094 85.3164V85.5807H53.2009V85.3164H53.902V80.0008L53.3593 80.654L53.1515 80.4829L54.7901 78.5364ZM59.2306 84.6322C59.2306 84.9379 59.2851 85.1297 59.3966 85.2048C59.5057 85.2801 59.685 85.3164 59.9317 85.3164V85.5807H57.8256V85.3164H58.5293V80.0008L57.9814 80.6514L57.779 80.4803L59.4174 78.5183L59.6175 78.7154L59.2306 79.1585V84.6322ZM58.1866 76.484C58.1866 76.3052 58.2488 76.1548 58.3736 76.0381C58.4983 75.9216 58.6487 75.8619 58.8227 75.8619C59.0021 75.8619 59.15 75.9216 59.2695 76.0406C59.389 76.1599 59.4486 76.3024 59.4486 76.4684C59.4486 76.6497 59.389 76.8052 59.2695 76.9322C59.15 77.0593 59.0021 77.1214 58.8227 77.1214C58.6462 77.1214 58.4957 77.0593 58.3709 76.9375C58.2488 76.8157 58.1866 76.6627 58.1866 76.484ZM67.3659 83.4218C67.1609 83.9116 66.8856 84.3368 66.5402 84.6917C66.1948 85.0467 65.7923 85.3189 65.3301 85.5031C64.868 85.6895 64.3668 85.783 63.8266 85.783C63.245 85.783 62.6893 85.6402 62.1621 85.3552C61.6376 85.0702 61.2169 84.6813 60.9027 84.1838C60.5885 83.6889 60.4301 83.1419 60.4301 82.5484C60.4301 81.8903 60.6144 81.2784 60.9805 80.7186C61.3467 80.1588 61.8298 79.7132 62.4321 79.3866C63.0347 79.0574 63.6605 78.8942 64.3097 78.8942C64.7406 78.8942 65.1561 78.9797 65.5535 79.1534C65.9534 79.327 66.3014 79.5707 66.6 79.8843C66.8961 80.1979 67.1167 80.5503 67.2543 80.9467H61.3001C61.1208 81.3044 61.0248 81.745 61.0066 82.2711C61.0066 82.8308 61.152 83.3416 61.4454 83.8028C61.7361 84.2642 62.1232 84.6297 62.6035 84.8965C63.0866 85.1634 63.593 85.2983 64.1227 85.3008C64.7926 85.3008 65.3872 85.122 65.9015 84.7643C66.4181 84.4093 66.8285 83.9246 67.1297 83.3104L67.3659 83.4218ZM66.3196 80.6047C66.0545 80.2237 65.7068 79.9257 65.2705 79.7053C64.8368 79.4851 64.3745 79.3761 63.8863 79.3761C63.5876 79.3761 63.2865 79.4254 62.9853 79.5214C62.6841 79.6172 62.4037 79.7571 62.1465 79.9438C61.8894 80.1279 61.6739 80.3481 61.5051 80.6047H66.3196ZM68.872 85.3164V80.0163L68.3241 80.6696L68.1215 80.4985L69.7601 78.552L69.9602 78.7231L69.5731 79.1897V79.6534C70.103 79.1481 70.6431 78.8942 71.1935 78.8942C71.8063 78.8942 72.2789 79.1429 72.6113 79.6379C72.7671 79.892 72.8633 80.1563 72.8997 80.4285C72.936 80.7033 72.9542 81.0504 72.9542 81.4755V84.6322C72.9542 84.8524 72.9854 85.0105 73.0501 85.1065C73.1151 85.2023 73.206 85.262 73.3203 85.2852C73.437 85.3059 73.6138 85.3164 73.8551 85.3164V85.5807H71.5492V85.3164H72.2531V81.4444C72.2531 80.7705 72.1907 80.2937 72.0635 80.0163C71.9726 79.7883 71.8219 79.6069 71.6167 79.4696C71.409 79.3347 71.1805 79.2673 70.9261 79.2673C70.508 79.2673 70.1782 79.454 69.9367 79.8245C69.6951 80.1979 69.5731 80.6021 69.5731 81.0401V84.6322C69.5731 84.8524 69.6043 85.0105 69.6693 85.1065C69.7342 85.2048 69.8251 85.262 69.942 85.2852C70.0587 85.3059 70.2378 85.3164 70.4794 85.3164V85.5807H68.1683V85.3164H68.872ZM75.678 83.6059C75.678 83.9427 75.756 84.3263 75.9144 84.7592C76.0702 85.192 76.3973 85.4096 76.8934 85.4096C77.4568 85.3966 77.9606 85.0858 78.4046 84.4767L78.6047 84.5699C78.576 84.9198 78.4046 85.2101 78.0957 85.4382C77.7866 85.6688 77.4542 85.783 77.0958 85.783C76.7764 85.783 76.4674 85.713 76.1715 85.5756C75.8755 85.4382 75.6314 85.2464 75.4444 85.0053C75.1327 84.6062 74.9769 84.0464 74.9769 83.326V79.3608H74.198V79.0186H74.9769V76.484L75.678 75.6908V79.0186H77.0205V79.3608H75.678V83.6059ZM82.6112 85.2541C82.0659 85.6065 81.5258 85.783 80.991 85.783C80.3858 85.783 79.8743 85.5781 79.4562 85.1685C79.0356 84.7566 78.8252 84.2538 78.8252 83.6526C78.8252 83.1937 78.955 82.779 79.2096 82.4033C79.4667 82.0274 79.8017 81.7373 80.217 81.5274C80.6299 81.3175 81.0662 81.2112 81.5206 81.2112C81.8607 81.2112 82.2217 81.3044 82.5956 81.4937V81.307C82.5956 80.6747 82.5282 80.216 82.3932 79.9361C82.1542 79.4591 81.7568 79.2208 81.2064 79.2208C80.8454 79.2208 80.5312 79.3373 80.2638 79.5679C79.9938 79.8013 79.7912 80.0942 79.6535 80.4492C79.5159 80.8016 79.4483 81.1515 79.4483 81.4937H79.1835V78.4718H79.4483V79.765C80.0145 79.1845 80.643 78.8942 81.3336 78.8942C82.071 78.8942 82.6216 79.1636 82.9852 79.7027C83.1332 79.9333 83.224 80.1823 83.2578 80.4517C83.2941 80.7214 83.3123 81.0634 83.3123 81.4755V84.6322C83.3123 84.8524 83.3435 85.0105 83.4085 85.1065C83.4734 85.2023 83.5643 85.2594 83.6812 85.2827C83.7979 85.3034 83.977 85.3138 84.2186 85.3138V85.5807H82.6112V85.2541ZM82.6112 82.3022C82.1984 81.8331 81.7466 81.5999 81.2558 81.5999C80.9311 81.5999 80.6274 81.6724 80.3444 81.8203C80.0614 81.9653 79.8326 82.1727 79.6589 82.4396C79.4874 82.7065 79.3992 83.0073 79.3992 83.3416C79.4225 83.6835 79.5159 84.0101 79.6822 84.3263C79.8457 84.6399 80.069 84.8965 80.3495 85.096C80.6299 85.2957 80.9365 85.394 81.2714 85.394C81.7803 85.394 82.2269 85.1867 82.6112 84.7722V82.3022ZM86.1141 84.6322C86.1141 84.9379 86.1686 85.1297 86.2804 85.2048C86.3894 85.2801 86.5685 85.3164 86.8178 85.3164V85.5807H84.7119V85.3164H85.413V75.8152L84.7587 76.5746L84.5561 76.4035L86.2103 74.4624L86.4102 74.6335L86.1141 74.978V84.6322ZM99.4352 78.552V81.1515H99.1704V80.9313C99.1417 80.3999 99.0353 79.9724 98.8536 79.6458C98.6691 79.3217 98.3342 79.1585 97.846 79.1585C97.5343 79.1585 97.2721 79.2571 97.0592 79.454C96.8463 79.6483 96.7398 79.905 96.7398 80.2186C96.7398 80.4232 96.7969 80.5891 96.9113 80.7186C97.0254 80.8483 97.1528 80.9416 97.2905 81.0013C97.4307 81.0608 97.6436 81.1412 97.9266 81.2421C98.3654 81.4002 98.7083 81.5274 98.9524 81.6285C99.199 81.7268 99.4327 81.8565 99.656 82.0121C99.8794 82.1674 100.061 82.3696 100.204 82.6209C100.347 82.8724 100.417 83.1781 100.417 83.5436C100.417 84.0178 100.287 84.4249 100.027 84.7643C99.7676 85.1014 99.4275 85.3552 99.0094 85.5263C98.5913 85.6974 98.1525 85.783 97.6902 85.783C97.0436 85.783 96.5113 85.6739 96.0932 85.4563C95.6751 85.2385 95.374 84.9742 95.1895 84.6659C95.0078 84.3549 94.917 84.0543 94.917 83.764C94.917 83.4478 94.9922 83.16 95.1403 82.8983C95.2883 82.6391 95.4909 82.4345 95.7478 82.2815C96.005 82.1285 96.2905 82.0509 96.6022 82.0509C96.9581 82.0509 97.2721 82.1467 97.5474 82.3359C97.8201 82.5251 97.9578 82.7894 97.9578 83.1237C97.9578 83.3337 97.8928 83.5229 97.7682 83.6991C97.641 83.8753 97.4747 83.9634 97.2721 83.9634C97.1165 83.9634 97.0359 83.9065 97.0359 83.7925C97.0359 83.7588 97.0592 83.6784 97.106 83.5515C97.1528 83.4243 97.1761 83.313 97.1761 83.2172C97.1761 83.0124 97.0853 82.8464 96.8982 82.7144C96.7112 82.5821 96.5139 82.5172 96.3061 82.5172C96.0101 82.5172 95.7634 82.6158 95.5687 82.8101C95.374 83.0045 95.2752 83.2481 95.2752 83.541C95.2752 83.8728 95.3973 84.1889 95.6439 84.4895C95.8906 84.7903 96.2204 85.0365 96.636 85.2232C97.0515 85.4096 97.498 85.5082 97.9706 85.5184C98.3109 85.5184 98.62 85.4433 98.8976 85.2957C99.1755 85.1479 99.3938 84.9379 99.5547 84.6685C99.7131 84.3963 99.7937 84.0906 99.7937 83.7458C99.7937 83.3829 99.7131 83.0926 99.5496 82.875C99.3859 82.6546 99.186 82.4914 98.9549 82.3801C98.7211 82.2711 98.3941 82.1441 97.9706 82.0042C97.4852 81.8384 97.1475 81.7138 96.9502 81.6285C96.7554 81.5402 96.5763 81.3977 96.41 81.1956C96.2465 80.996 96.1633 80.724 96.1633 80.3869C96.1633 79.9308 96.3399 79.5679 96.693 79.2985C97.0464 79.029 97.4565 78.8942 97.9266 78.8942C98.2147 78.8942 98.5939 78.9823 99.0639 79.1585L99.1704 79.2078V78.552H99.4352ZM105.997 85.783H105.745L104.907 83.2353L103.956 85.783H103.738L101.993 80.6177C101.858 80.216 101.705 79.905 101.533 79.6872C101.359 79.4696 101.076 79.3608 100.684 79.3608V79.0962H102.663V79.3608H102.087L103.909 84.868L104.689 82.7013L104.05 80.7265C103.93 80.3404 103.787 80.0215 103.616 79.7727C103.447 79.524 103.19 79.3866 102.847 79.3608V79.0962H104.624V79.3608H104.112L104.922 81.7891L105.561 79.8582C105.561 79.6588 105.504 79.5265 105.395 79.4591C105.283 79.3945 105.091 79.3608 104.816 79.3608V79.0962H106.667V79.3608H106.184L105.187 82.2996L105.917 84.868L107.181 81.0685C107.368 80.4829 107.472 80.0942 107.493 79.905C107.493 79.5421 107.28 79.3608 106.854 79.3608V79.0962H108.739V79.3608H108.191L105.997 85.783ZM116.018 83.4218C115.813 83.9116 115.538 84.3368 115.192 84.6917C114.847 85.0467 114.444 85.3189 113.982 85.5031C113.52 85.6895 113.019 85.783 112.479 85.783C111.897 85.783 111.341 85.6402 110.814 85.3552C110.29 85.0702 109.869 84.6813 109.555 84.1838C109.241 83.6889 109.082 83.1419 109.082 82.5484C109.082 81.8903 109.266 81.2784 109.633 80.7186C109.999 80.1588 110.482 79.7132 111.084 79.3866C111.687 79.0574 112.313 78.8942 112.962 78.8942C113.393 78.8942 113.808 78.9797 114.206 79.1534C114.605 79.327 114.953 79.5707 115.252 79.8843C115.548 80.1979 115.769 80.5503 115.906 80.9467H109.952C109.773 81.3044 109.677 81.745 109.659 82.2711C109.659 82.8308 109.804 83.3416 110.097 83.8028C110.388 84.2642 110.775 84.6297 111.256 84.8965C111.739 85.1634 112.245 85.2983 112.775 85.3008C113.445 85.3008 114.039 85.122 114.554 84.7643C115.07 84.4093 115.481 83.9246 115.782 83.3104L116.018 83.4218ZM114.972 80.6047C114.707 80.2237 114.359 79.9257 113.923 79.7053C113.489 79.4851 113.027 79.3761 112.538 79.3761C112.24 79.3761 111.939 79.4254 111.637 79.5214C111.336 79.6172 111.056 79.7571 110.799 79.9438C110.541 80.1279 110.326 80.3481 110.157 80.6047H114.972ZM123.541 83.4218C123.336 83.9116 123.06 84.3368 122.715 84.6917C122.37 85.0467 121.967 85.3189 121.505 85.5031C121.043 85.6895 120.542 85.783 120.001 85.783C119.42 85.783 118.864 85.6402 118.337 85.3552C117.812 85.0702 117.392 84.6813 117.078 84.1838C116.763 83.6889 116.605 83.1419 116.605 82.5484C116.605 81.8903 116.789 81.2784 117.155 80.7186C117.521 80.1588 118.005 79.7132 118.607 79.3866C119.209 79.0574 119.835 78.8942 120.484 78.8942C120.915 78.8942 121.331 78.9797 121.728 79.1534C122.128 79.327 122.476 79.5707 122.775 79.8843C123.071 80.1979 123.291 80.5503 123.429 80.9467H117.475C117.296 81.3044 117.2 81.745 117.181 82.2711C117.181 82.8308 117.327 83.3416 117.62 83.8028C117.911 84.2642 118.298 84.6297 118.778 84.8965C119.261 85.1634 119.768 85.2983 120.297 85.3008C120.967 85.3008 121.562 85.122 122.076 84.7643C122.593 84.4093 123.003 83.9246 123.304 83.3104L123.541 83.4218ZM122.494 80.6047C122.229 80.2237 121.882 79.9257 121.445 79.7053C121.012 79.4851 120.549 79.3761 120.061 79.3761C119.762 79.3761 119.461 79.4254 119.16 79.5214C118.859 79.6172 118.578 79.7571 118.321 79.9438C118.064 80.1279 117.849 80.3481 117.68 80.6047H122.494ZM125.623 83.6059C125.623 83.9427 125.701 84.3263 125.86 84.7592C126.015 85.192 126.342 85.4096 126.839 85.4096C127.402 85.3966 127.906 85.0858 128.35 84.4767L128.55 84.5699C128.521 84.9198 128.35 85.2101 128.041 85.4382C127.732 85.6688 127.399 85.783 127.041 85.783C126.722 85.783 126.413 85.713 126.117 85.5756C125.821 85.4382 125.577 85.2464 125.39 85.0053C125.078 84.6062 124.922 84.0464 124.922 83.326V79.3608H124.143V79.0186H124.922V76.484L125.623 75.6908V79.0186H126.966V79.3608H125.623V83.6059ZM132.868 78.552V81.1515H132.603V80.9313C132.575 80.3999 132.468 79.9724 132.286 79.6458C132.102 79.3217 131.767 79.1585 131.279 79.1585C130.967 79.1585 130.705 79.2571 130.492 79.454C130.279 79.6483 130.173 79.905 130.173 80.2186C130.173 80.4232 130.23 80.5891 130.344 80.7186C130.458 80.8483 130.586 80.9416 130.723 81.0013C130.864 81.0608 131.076 81.1412 131.359 81.2421C131.798 81.4002 132.141 81.5274 132.385 81.6285C132.632 81.7268 132.866 81.8565 133.089 82.0121C133.312 82.1674 133.494 82.3696 133.637 82.6209C133.78 82.8724 133.85 83.1781 133.85 83.5436C133.85 84.0178 133.72 84.4249 133.46 84.7643C133.2 85.1014 132.86 85.3552 132.442 85.5263C132.024 85.6974 131.585 85.783 131.123 85.783C130.476 85.783 129.944 85.6739 129.526 85.4563C129.108 85.2385 128.807 84.9742 128.622 84.6659C128.441 84.3549 128.35 84.0543 128.35 83.764C128.35 83.4478 128.425 83.16 128.573 82.8983C128.721 82.6391 128.924 82.4345 129.181 82.2815C129.438 82.1285 129.723 82.0509 130.035 82.0509C130.391 82.0509 130.705 82.1467 130.98 82.3359C131.253 82.5251 131.391 82.7894 131.391 83.1237C131.391 83.3337 131.326 83.5229 131.201 83.6991C131.074 83.8753 130.908 83.9634 130.705 83.9634C130.549 83.9634 130.469 83.9065 130.469 83.7925C130.469 83.7588 130.492 83.6784 130.539 83.5515C130.586 83.4243 130.609 83.313 130.609 83.2172C130.609 83.0124 130.518 82.8464 130.331 82.7144C130.144 82.5821 129.947 82.5172 129.739 82.5172C129.443 82.5172 129.196 82.6158 129.002 82.8101C128.807 83.0045 128.708 83.2481 128.708 83.541C128.708 83.8728 128.83 84.1889 129.077 84.4895C129.323 84.7903 129.653 85.0365 130.069 85.2232C130.484 85.4096 130.931 85.5082 131.403 85.5184C131.744 85.5184 132.053 85.4433 132.33 85.2957C132.608 85.1479 132.827 84.9379 132.988 84.6685C133.146 84.3963 133.227 84.0906 133.227 83.7458C133.227 83.3829 133.146 83.0926 132.982 82.875C132.819 82.6546 132.619 82.4914 132.388 82.3801C132.154 82.2711 131.827 82.1441 131.403 82.0042C130.918 81.8384 130.58 81.7138 130.383 81.6285C130.188 81.5402 130.009 81.3977 129.843 81.1956C129.679 80.996 129.596 80.724 129.596 80.3869C129.596 79.9308 129.773 79.5679 130.126 79.2985C130.479 79.029 130.889 78.8942 131.359 78.8942C131.648 78.8942 132.027 78.9823 132.497 79.1585L132.603 79.2078V78.552H132.868Z" fill="#EC6823"/>
<path fill-rule="evenodd" clip-rule="evenodd" d="M32.3628 82.4791C32.3628 82.4791 35.2127 83.153 36.6846 81.8888C38.1562 80.6246 39.3983 78.3642 40.7567 77.3574C42.1153 76.3507 43.7875 75.1699 43.7875 75.1699C43.7875 75.1699 39.9013 75.8238 38.6618 76.7554C35.9758 78.7744 36.0692 80.3328 32.2698 81.9554L32.3628 82.4791Z" fill="#4F3528"/>
<path fill-rule="evenodd" clip-rule="evenodd" d="M30.5407 80.6606C30.5407 80.6606 29.4492 77.9478 30.4832 76.3073C31.5171 74.6668 33.5721 73.1052 34.3676 71.6146C35.1632 70.124 36.0847 68.2983 36.0847 68.2983C36.0847 68.2983 36.0144 72.2311 35.2756 73.5928C33.6744 76.5439 32.1164 76.6834 31.0733 80.6744L30.5407 80.6606Z" fill="#4F3528"/>
<path fill-rule="evenodd" clip-rule="evenodd" d="M42.5648 70.1841C42.5648 70.1841 38.7925 71.7787 36.1116 74.4446C33.431 77.1104 32.5632 79.1268 32.2353 79.7435C31.9076 80.3603 31.5259 81.3079 31.7452 81.2746C31.9647 81.2413 34.6355 79.7871 34.9125 79.4816C35.1895 79.1761 37.4352 76.6357 38.7265 74.7283C40.0179 72.8209 41.1249 71.4427 41.6647 70.9749C42.2044 70.5071 42.5648 70.1841 42.5648 70.1841Z" fill="#4F3528"/>
<path fill-rule="evenodd" clip-rule="evenodd" d="M31.6159 81.2353L31.0296 80.6205C31.0296 80.6205 30.4657 80.43 30.3851 80.7047C30.3047 80.9793 30.5599 81.6698 30.6365 81.8578C30.7128 82.0455 31.092 82.4265 31.4564 82.5014C31.8211 82.5761 32.4681 82.4888 32.4681 82.4888C32.4681 82.4888 32.5822 81.938 32.476 81.88C32.3696 81.8217 31.8542 81.4953 31.7644 81.4181C31.6744 81.3411 31.6159 81.2353 31.6159 81.2353Z" fill="#4F3528"/>
<path fill-rule="evenodd" clip-rule="evenodd" d="M30.9391 81.6367L31.3441 81.9849L29.595 84.0845L29.1899 83.7361L30.9391 81.6367Z" fill="#4F3528"/>
<path fill-rule="evenodd" clip-rule="evenodd" d="M0.610352 83.6333H29.5951V84.4483H0.610352V83.6333Z" fill="#4F3528"/>
<path fill-rule="evenodd" clip-rule="evenodd" d="M0.610352 84.4485V0.216797H1.42709V84.4485H0.610352Z" fill="#4F3528"/>
<path fill-rule="evenodd" clip-rule="evenodd" d="M0.610352 0.216797H160.39V1.03194H0.610352V0.216797Z" fill="#4F3528"/>
<path fill-rule="evenodd" clip-rule="evenodd" d="M159.573 84.4485V0.216797H160.39V84.4485H159.573Z" fill="#4F3528"/>
<path fill-rule="evenodd" clip-rule="evenodd" d="M139.055 83.6333H160.39V84.4483H139.055V83.6333Z" fill="#4F3528"/>
<path d="M57.4842 64.4819C55.7655 65.593 54.0629 66.1485 52.3769 66.1485C50.4698 66.1485 48.8575 65.5031 47.5397 64.2125C46.2136 62.9135 45.5508 61.3289 45.5508 59.4336C45.5508 57.9876 45.9599 56.6807 46.7621 55.4961C47.5724 54.3117 48.6281 53.3967 49.9378 52.7351C51.2391 52.0734 52.6141 51.7385 54.0465 51.7385C55.1189 51.7385 56.2564 52.0326 57.4351 52.6289V52.0407C57.4351 50.0476 57.2224 48.6016 56.7966 47.7195C56.0438 46.2163 54.7914 45.4648 53.0562 45.4648C51.9186 45.4648 50.9281 45.8323 50.0851 46.5594C49.2339 47.2947 48.5954 48.2178 48.1617 49.337C47.7278 50.4478 47.5151 51.5507 47.5151 52.6289H46.6802V43.104H47.5151V47.1804C49.2993 45.3504 51.2801 44.4356 53.4572 44.4356C55.7817 44.4356 57.5169 45.2851 58.6628 46.9843C59.1295 47.7112 59.4159 48.4954 59.5223 49.3451C59.6369 50.1946 59.6942 51.273 59.6942 52.5717V62.5214C59.6942 63.2158 59.7923 63.7141 59.9971 64.0164C60.2016 64.3185 60.4881 64.4983 60.8563 64.5717C61.2246 64.6372 61.7894 64.6699 62.5507 64.6699V65.5112H57.4842V64.4819ZM57.4842 55.1776C56.1829 53.699 54.7587 52.9638 53.2118 52.9638C52.1886 52.9638 51.231 53.1925 50.3388 53.6582C49.4468 54.1156 48.7265 54.7691 48.178 55.6107C47.6378 56.4521 47.3595 57.3995 47.3595 58.4533C47.4333 59.5317 47.7278 60.5608 48.2517 61.5575C48.7673 62.5459 49.4712 63.3547 50.3552 63.9836C51.2391 64.6127 52.205 64.9231 53.2607 64.9231C54.8651 64.9231 56.2729 64.2696 57.4842 62.9626V55.1776ZM68.3782 54.7774L75.5564 45.9059H73.3466V45.0726H80.6148V45.9059H78.0119L69.9989 54.5813C72.9208 54.5813 75.6464 57.2279 78.1511 62.5214C78.4702 63.175 78.8468 63.6977 79.297 64.0898C79.7553 64.4819 80.2219 64.678 80.7129 64.678H81.2041V65.5112H76.825C75.5401 62.7584 74.4923 60.7162 73.6657 59.3764C72.8308 58.0448 72.0288 57.1136 71.2431 56.5909C70.449 56.0681 69.4995 55.8067 68.3782 55.8067V62.5214C68.3782 63.2239 68.4684 63.7222 68.6565 64.0245C68.8448 64.3268 69.115 64.5065 69.4668 64.58C69.8189 64.6453 70.3755 64.678 71.1202 64.678V65.5112H63.8521V64.678H66.1685V48.0625C66.1685 47.0904 65.9801 46.486 65.5954 46.2573C65.2109 46.0203 64.4824 45.9059 63.41 45.9059V45.0726H70.6782V45.9059H68.3782V54.7774ZM89.0942 44.4356H90.0274L95.6749 60.8141C96.1497 62.0804 96.6325 63.0443 97.1237 63.6977C97.6147 64.3514 98.3923 64.678 99.4564 64.678V65.5112H92.9248V64.678H94.6436L88.9388 48.0134L85.0674 60.5608C84.6745 61.721 84.4781 62.5704 84.4781 63.1095C84.4781 63.7549 84.6664 64.1796 85.0509 64.3757C85.4276 64.58 86.0087 64.678 86.778 64.678V65.5112H80.3529V64.678H82.1127L89.0942 44.4356ZM112.56 64.4819C110.842 65.593 109.139 66.1485 107.453 66.1485C105.546 66.1485 103.934 65.5031 102.616 64.2125C101.29 62.9135 100.627 61.3289 100.627 59.4336C100.627 57.9876 101.036 56.6807 101.838 55.4961C102.649 54.3117 103.704 53.3967 105.014 52.7351C106.315 52.0734 107.69 51.7385 109.123 51.7385C110.195 51.7385 111.333 52.0326 112.511 52.6289V52.0407C112.511 50.0476 112.298 48.6016 111.873 47.7195C111.12 46.2163 109.868 45.4648 108.132 45.4648C106.995 45.4648 106.004 45.8323 105.161 46.5594C104.31 47.2947 103.672 48.2178 103.238 49.337C102.804 50.4478 102.591 51.5507 102.591 52.6289H101.756V43.104H102.591V47.1804C104.375 45.3504 106.356 44.4356 108.533 44.4356C110.858 44.4356 112.593 45.2851 113.739 46.9843C114.206 47.7112 114.492 48.4954 114.598 49.3451C114.713 50.1946 114.77 51.273 114.77 52.5717V62.5214C114.77 63.2158 114.868 63.7141 115.073 64.0164C115.278 64.3185 115.564 64.4983 115.932 64.5717C116.301 64.6372 116.865 64.6699 117.627 64.6699V65.5112H112.56V64.4819ZM112.56 55.1776C111.259 53.699 109.835 52.9638 108.288 52.9638C107.265 52.9638 106.307 53.1925 105.415 53.6582C104.523 54.1156 103.803 54.7691 103.254 55.6107C102.714 56.4521 102.436 57.3995 102.436 58.4533C102.509 59.5317 102.804 60.5608 103.328 61.5575C103.843 62.5459 104.547 63.3547 105.431 63.9836C106.315 64.6127 107.281 64.9231 108.337 64.9231C109.941 64.9231 111.349 64.2696 112.56 62.9626V55.1776ZM118.928 65.5112V64.678H121.245V48.0625C121.245 47.4091 121.163 46.9269 121.007 46.6165C120.852 46.3145 120.598 46.1184 120.238 46.0284C119.878 45.9467 119.296 45.9059 118.486 45.9059V45.0726H127.531C131.623 45.0726 133.669 46.2654 133.669 48.6507C133.669 50.554 132.343 51.9428 129.691 52.8169C131.181 52.8169 132.523 53.062 133.726 53.5601C134.921 54.0503 135.863 54.761 136.534 55.6922C137.213 56.6236 137.549 57.6937 137.549 58.8945C137.549 60.8224 136.665 62.448 134.897 63.7549C133.342 64.9231 131.107 65.5112 128.218 65.5112H118.928ZM131.263 49.0918C131.263 47.0987 129.659 46.102 126.45 46.102C124.911 46.102 123.913 46.1346 123.454 46.2001V53.3559C125.943 53.1027 127.866 52.6453 129.225 52C130.584 51.3463 131.263 50.3825 131.263 49.0918ZM123.454 54.5242V62.2355C123.454 62.9299 123.512 63.4283 123.618 63.7387C123.724 64.041 123.962 64.2532 124.33 64.3595C124.699 64.4738 125.321 64.531 126.196 64.531H128.799C129.855 64.531 130.87 64.3023 131.852 63.8366C132.826 63.3711 133.612 62.742 134.209 61.9415C134.799 61.1409 135.093 60.2505 135.093 59.2866C135.093 57.4895 134.52 56.1088 133.383 55.1695C132.245 54.2219 130.608 53.7481 128.464 53.7481C126.876 53.7481 125.206 54.0094 123.454 54.5242ZM151.839 64.4819C150.121 65.593 148.418 66.1485 146.732 66.1485C144.825 66.1485 143.213 65.5031 141.895 64.2125C140.569 62.9135 139.906 61.3289 139.906 59.4336C139.906 57.9876 140.315 56.6807 141.117 55.4961C141.928 54.3117 142.983 53.3967 144.293 52.7351C145.594 52.0734 146.969 51.7385 148.402 51.7385C149.474 51.7385 150.612 52.0326 151.79 52.6289V52.0407C151.79 50.0476 151.578 48.6016 151.152 47.7195C150.399 46.2163 149.147 45.4648 147.411 45.4648C146.274 45.4648 145.283 45.8323 144.44 46.5594C143.589 47.2947 142.951 48.2178 142.517 49.337C142.083 50.4478 141.87 51.5507 141.87 52.6289H141.035V43.104H141.87V47.1804C143.655 45.3504 145.635 44.4356 147.812 44.4356C150.137 44.4356 151.872 45.2851 153.018 46.9843C153.485 47.7112 153.771 48.4954 153.878 49.3451C153.992 50.1946 154.049 51.273 154.049 52.5717V62.5214C154.049 63.2158 154.148 63.7141 154.352 64.0164C154.557 64.3185 154.843 64.4983 155.212 64.5717C155.58 64.6372 156.145 64.6699 156.906 64.6699V65.5112H151.839V64.4819ZM151.839 55.1776C150.538 53.699 149.114 52.9638 147.567 52.9638C146.544 52.9638 145.586 53.1925 144.694 53.6582C143.802 54.1156 143.082 54.7691 142.533 55.6107C141.993 56.4521 141.715 57.3995 141.715 58.4533C141.789 59.5317 142.083 60.5608 142.607 61.5575C143.123 62.5459 143.826 63.3547 144.71 63.9836C145.594 64.6127 146.56 64.9231 147.616 64.9231C149.22 64.9231 150.628 64.2696 151.839 62.9626V55.1776Z" fill="#4F3528"/>
</svg>
