<svg width="133" height="72" viewBox="0 0 133 72" fill="none" xmlns="http://www.w3.org/2000/svg">
<path d="M69.017 19.1013C68.2627 19.7253 67.3198 20.4806 66.1882 21.3668C65.0567 22.2532 63.8122 23.1706 62.4544 24.1192C61.0965 25.0681 59.676 26.0168 58.1925 26.9654C56.709 27.9141 55.2318 28.7629 53.7608 29.5119C52.2899 30.2609 50.8755 30.8664 49.5178 31.3282C48.16 31.79 46.928 32.021 45.8217 32.021C45.0923 32.021 44.4136 31.9087 43.7849 31.684C43.1562 31.4593 42.6157 31.1159 42.1631 30.6541C41.7105 30.1923 41.3585 29.5994 41.1072 28.8752C40.8556 28.1512 40.73 27.2899 40.73 26.2913C40.73 24.8184 41.0129 23.3765 41.5784 21.966C42.1442 20.5555 42.8986 19.201 43.8415 17.9029C44.7844 16.6046 45.8594 15.3689 47.0662 14.1955C48.2731 13.0221 49.5115 11.9361 50.7813 10.9374C52.051 9.93882 53.3019 9.04632 54.5341 8.25987C55.766 7.47342 56.8851 6.80562 57.8907 6.25629C57.941 6.23144 58.0291 6.18139 58.1548 6.10649C58.2804 6.03159 58.3685 5.99414 58.4188 5.99414C58.6451 5.99414 58.7582 6.09407 58.7582 6.29374C58.7582 6.36864 58.7078 6.44354 58.6074 6.51844C58.0793 6.76817 57.325 7.19254 56.3443 7.79174C55.3638 8.39094 54.2825 9.14607 53.1008 10.0573C51.919 10.9687 50.7184 12.0047 49.4989 13.1656C48.2795 14.3266 47.1668 15.581 46.1609 16.9292C45.1553 18.2774 44.3318 19.7129 43.6906 21.2358C43.0494 22.7586 42.7288 24.3191 42.7288 25.9168C42.7288 26.8156 42.8608 27.5771 43.1249 28.2013C43.3889 28.8253 43.7409 29.3246 44.181 29.6991C44.6209 30.0736 45.1301 30.3482 45.7085 30.523C46.2868 30.6978 46.8903 30.7852 47.5188 30.7852C48.5749 30.7852 49.788 30.5293 51.1583 30.0174C52.5287 29.5057 53.9808 28.8253 55.5145 27.9766C57.0484 27.1277 58.6199 26.1415 60.229 25.018C61.8384 23.8947 63.4223 22.7087 64.9813 21.4605C66.5402 20.2122 68.0239 18.9576 69.4319 17.6969C70.84 16.436 72.1097 15.2315 73.2412 14.0832C74.096 13.2593 75.0013 12.4604 75.9567 11.6864C76.9122 10.9125 77.8551 10.1884 78.7855 9.51444C79.7158 8.84034 80.6146 8.22872 81.4821 7.67939C82.3497 7.13007 83.1479 6.65582 83.877 6.25629C83.9274 6.23144 84.0154 6.18139 84.1411 6.10649C84.2669 6.03159 84.3549 5.99414 84.4051 5.99414C84.6314 5.99414 84.7445 6.09407 84.7445 6.29374C84.7445 6.36864 84.6943 6.44354 84.5937 6.51844C84.0656 6.76817 83.3115 7.19254 82.3308 7.79174C81.3501 8.39094 80.269 9.14607 79.0871 10.0573C77.9053 10.9687 76.7047 12.0047 75.4852 13.1656C74.2658 14.3266 73.1531 15.581 72.1474 16.9292C71.1417 18.2774 70.3181 19.7129 69.6769 21.2358C69.0359 22.7586 68.7153 24.3191 68.7153 25.9168C68.7153 26.8156 68.8473 27.5771 69.1113 28.2013C69.3754 28.8253 69.7273 29.3246 70.1673 29.6991C70.6073 30.0736 71.1165 30.3482 71.6948 30.523C72.2731 30.6978 72.8766 30.7852 73.5053 30.7852C74.687 30.7852 76.0699 30.4668 77.654 29.8302C79.238 29.1935 80.91 28.3511 82.6703 27.3025C84.4303 26.2539 86.2219 25.0555 88.0448 23.7075C89.8678 22.3593 91.6153 20.9736 93.2872 19.5505C94.9593 18.1276 96.5057 16.7295 97.9265 15.3563C99.347 13.9832 100.535 12.7474 101.491 11.6489C101.591 11.5241 101.698 11.3868 101.811 11.237C101.924 11.0872 102.044 11.0123 102.169 11.0123C102.295 11.0123 102.415 11.0935 102.528 11.2557C102.641 11.4181 102.697 11.5241 102.697 11.574C102.697 11.6988 102.584 11.8736 102.358 12.0983C101.704 12.9222 100.918 13.8522 100.001 14.8882C99.083 15.9243 98.1276 17.0104 97.1344 18.1463C96.1412 19.2822 95.1542 20.4493 94.1736 21.6477C93.1931 22.8461 92.3129 24.0195 91.5335 25.1678C90.754 26.3164 90.1255 27.4148 89.6476 28.4634C89.17 29.5119 88.931 30.4605 88.931 31.3095C88.7299 31.5091 88.4722 31.6652 88.158 31.7776C87.8435 31.8899 87.5734 31.9461 87.347 31.9461C87.0453 31.9461 86.8442 31.8712 86.7436 31.7214C86.6429 31.5716 86.5927 31.3968 86.5927 31.1971C86.5927 30.3982 86.8692 29.4994 87.4225 28.5009C87.9756 27.5022 88.6356 26.5036 89.4025 25.5049C90.1693 24.5063 90.9614 23.5451 91.7787 22.6214C92.5958 21.6976 93.2558 20.9111 93.7587 20.2621C93.8341 20.1623 93.8718 20.0874 93.8718 20.0374C93.8718 19.9875 93.8593 19.9625 93.8341 19.9625C93.7587 19.9625 93.6455 20.0374 93.4946 20.1872C92.7405 20.8114 91.8353 21.5354 90.7792 22.3593C89.7231 23.1832 88.5727 24.0319 87.3282 24.9057C86.0835 25.7795 84.7823 26.6471 83.4246 27.5085C82.0668 28.3698 80.7089 29.1312 79.3511 29.7927C77.9935 30.4544 76.6734 30.9911 75.391 31.4031C74.1087 31.815 72.9143 32.021 71.808 32.021C71.0788 32.021 70.3999 31.9087 69.7712 31.684C69.1427 31.4593 68.6022 31.1159 68.1495 30.6541C67.6969 30.1923 67.345 29.5994 67.0935 28.8752C66.8419 28.1512 66.7163 27.2899 66.7163 26.2913C66.7163 25.018 66.9174 23.7824 67.3198 22.584C67.7221 21.3856 68.2877 20.2246 69.017 19.1013ZM113.875 27.6931C113.875 27.8431 113.819 27.9556 113.705 28.0305L111.158 29.0423C110.78 29.1923 110.299 29.389 109.714 29.6326C109.129 29.8762 108.497 30.1104 107.817 30.3352C107.138 30.5601 106.477 30.7568 105.836 30.9255C105.194 31.0942 104.628 31.1786 104.137 31.1786C103.345 31.1786 102.948 30.935 102.948 30.4478C102.948 30.2978 102.977 30.1011 103.033 29.8575C103.09 29.6139 103.212 29.3608 103.401 29.0985C103.099 29.3234 102.684 29.5764 102.156 29.8575C101.627 30.1385 101.061 30.4009 100.457 30.6445C99.8532 30.8881 99.2399 31.1035 98.617 31.2909C97.9943 31.4783 97.4375 31.572 96.9469 31.572C96.2297 31.572 95.7106 31.4314 95.3899 31.1504C95.0691 30.8693 94.9085 30.5227 94.9085 30.1104C94.9085 29.3983 95.2861 28.5177 96.0409 27.4684C96.7958 26.4189 97.7583 25.4165 98.9284 24.4608C100.099 23.5052 101.382 22.69 102.778 22.0154C104.175 21.3408 105.515 21.0035 106.798 21.0035C107.44 21.0035 107.893 21.1161 108.157 21.3408C108.421 21.5656 108.553 21.8843 108.553 22.2964C108.553 22.8962 108.28 23.4395 107.732 23.9267C107.185 24.4139 106.666 24.8075 106.175 25.1073C106.024 25.1822 105.911 25.2196 105.836 25.2196C105.76 25.2196 105.656 25.1729 105.524 25.0791C105.392 24.9855 105.326 24.8637 105.326 24.7137C105.326 24.5263 105.477 24.2452 105.779 23.8706C105.93 23.7206 106.109 23.5052 106.317 23.2241C106.524 22.9429 106.628 22.7087 106.628 22.5213C106.628 22.3715 106.562 22.2497 106.43 22.1559C106.298 22.0623 106.024 22.0154 105.609 22.0154C104.967 22.0154 104.175 22.2497 103.231 22.7182C102.288 23.1865 101.382 23.7675 100.514 24.4608C99.6456 25.1542 98.9001 25.8755 98.2774 26.6251C97.6545 27.3746 97.3431 28.0305 97.3431 28.5926C97.3431 29.0049 97.513 29.3141 97.8526 29.5201C98.1924 29.7262 98.5698 29.8293 98.985 29.8293C99.4003 29.8293 99.8721 29.7357 100.4 29.5483C100.929 29.3608 101.438 29.1547 101.929 28.9298C102.42 28.7051 102.863 28.4708 103.26 28.2272C103.656 27.9836 103.911 27.8056 104.024 27.6931C104.099 27.6182 104.213 27.5058 104.364 27.3559C104.515 27.2059 104.666 27.131 104.817 27.131C104.892 27.131 105.005 27.1684 105.156 27.2435C105.307 27.3184 105.383 27.4495 105.383 27.6369C105.194 27.9367 105.062 28.199 104.986 28.4239C104.911 28.6488 104.873 28.8549 104.873 29.0423C104.873 29.5295 105.213 29.7731 105.892 29.7731C106.307 29.7731 106.77 29.7075 107.279 29.5764C107.789 29.4452 108.298 29.2952 108.808 29.1267C109.318 28.958 109.789 28.7893 110.223 28.6208C110.658 28.4521 110.988 28.3303 111.214 28.2554C111.969 27.9556 112.535 27.7307 112.913 27.5807C113.139 27.4684 113.366 27.3746 113.592 27.2997C113.668 27.2997 113.734 27.3466 113.79 27.4402C113.847 27.5338 113.875 27.6182 113.875 27.6931ZM129.501 27.7494C129.501 27.8992 129.445 28.0118 129.332 28.0867L126.784 29.0985C126.406 29.2485 125.925 29.4452 125.34 29.6888C124.755 29.9324 124.123 30.1667 123.443 30.3914C122.764 30.6163 122.104 30.8132 121.462 30.9817C120.82 31.1504 120.254 31.2347 119.763 31.2347C118.782 31.2347 118.084 30.9537 117.669 30.3914C117.253 29.8293 117.008 29.136 116.933 28.3115C116.178 28.8362 115.451 29.389 114.753 29.9698C114.055 30.5508 113.441 31.1598 112.913 31.7968C112.724 31.9843 112.554 32.0779 112.403 32.0779C112.328 32.0779 112.233 31.9843 112.12 31.7968C112.12 31.6845 112.139 31.6094 112.177 31.572L112.233 31.5158C112.686 30.9911 113.328 30.3634 114.158 29.6326C114.989 28.9018 115.913 28.1616 116.933 27.412C116.933 26.8499 116.98 26.2878 117.074 25.7256C117.168 25.1635 117.272 24.6575 117.386 24.2078C117.536 23.6831 117.687 23.1772 117.838 22.69C117.914 22.5026 117.999 22.3621 118.093 22.2684C118.187 22.1746 118.329 22.1279 118.518 22.1279C118.782 22.1279 119.037 22.1934 119.282 22.3246C119.527 22.4559 119.65 22.6713 119.65 22.9711C119.65 23.046 119.631 23.121 119.594 23.1959C119.556 23.2708 119.518 23.3459 119.48 23.4208C119.443 23.6457 119.367 23.908 119.254 24.2078C119.065 24.8075 118.914 25.4258 118.801 26.063C119.82 25.3134 120.811 24.6388 121.773 24.0391C122.736 23.4395 123.576 22.9898 124.293 22.69C124.519 22.5775 124.746 22.5213 124.972 22.5213C125.199 22.5213 125.378 22.6151 125.51 22.8024C125.642 22.9898 125.708 23.1959 125.708 23.4208C125.708 23.758 125.557 23.9829 125.255 24.0954C124.349 24.4327 123.321 24.873 122.169 25.4165C121.018 25.9599 119.858 26.5689 118.688 27.2435V27.3559C118.688 28.0305 118.829 28.63 119.112 29.1547C119.395 29.6795 119.933 29.9418 120.726 29.9418C121.179 29.9418 121.698 29.8762 122.283 29.745C122.868 29.6139 123.453 29.4546 124.038 29.2672C124.623 29.0798 125.17 28.9018 125.68 28.7331C126.189 28.5644 126.576 28.4239 126.84 28.3115C127.595 28.0118 128.161 27.7869 128.539 27.6369C128.765 27.5246 128.992 27.4308 129.218 27.3559C129.294 27.3559 129.36 27.4028 129.417 27.4964C129.473 27.5902 129.501 27.6744 129.501 27.7494Z" fill="white"/>
<path d="M13.0622 14.1271C11.7782 14.1271 11.1363 14.2546 11.1363 14.5201V24.2622H16.7323C19.054 24.2622 21.2795 24.5915 23.4195 25.2607C25.5488 25.9194 27.4639 26.8968 29.1438 28.1824C30.8236 29.4677 32.1504 31.0508 33.1135 32.9098C34.0871 34.7797 34.5686 36.8725 34.5686 39.1885C34.5686 42.1526 33.8731 44.7554 32.4821 47.0077C31.0912 49.2599 29.1866 50.9809 26.7577 52.1814C24.3397 53.3712 21.6327 53.9662 18.6581 53.9662H4.0211V52.8719H7.73381V18.844C7.73381 16.645 7.54117 15.3064 7.15606 14.8283C6.79228 14.3609 5.61528 14.1271 3.62524 14.1271V13.0435H23.2056V10.5044H24.2969V24.3259H23.2056V22.6791C23.2056 21.0431 23.0986 19.694 22.8844 18.6104C22.6705 17.5266 22.1142 16.6343 21.2261 15.9226C19.7389 14.7221 17.0104 14.1271 13.0622 14.1271ZM11.1363 52.1707C13.0194 52.7764 15.2236 53.0738 17.7487 53.0738C19.6425 53.0738 21.4187 52.702 23.0665 51.9582C24.7248 51.2253 26.1586 50.1841 27.3783 48.8562C28.5981 47.5281 29.5291 46.0089 30.1817 44.3091C30.8344 42.5987 31.1661 40.8034 31.1661 38.923C31.1661 36.5645 30.6096 34.4185 29.4862 32.4743C28.3628 30.5408 26.7792 28.9896 24.7569 27.8423C22.1891 26.3869 18.8936 25.6645 14.8705 25.6645H11.1363V52.1707Z" fill="#4F3528"/>
<path d="M56.7201 45.1611L62.6389 37.8837H60.8169V37.2002H66.8099V37.8837H64.6637L58.0564 45.0003C60.4658 45.0003 62.7131 47.1713 64.7784 51.5136C65.0416 52.0498 65.3521 52.4786 65.7233 52.8002C66.1012 53.1219 66.4859 53.2827 66.8908 53.2827H67.2958V53.9662H63.685C62.6255 51.708 61.7616 50.0328 61.08 48.9338C60.3916 47.8414 59.7303 47.0775 59.0824 46.6488C58.4276 46.2199 57.6447 46.0055 56.7201 46.0055V51.5136C56.7201 52.0899 56.7945 52.4987 56.9496 52.7467C57.1049 52.9946 57.3276 53.142 57.6178 53.2024C57.908 53.2559 58.367 53.2827 58.981 53.2827V53.9662H52.988V53.2827H54.898V39.6528C54.898 38.8553 54.7428 38.3596 54.4255 38.172C54.1084 37.9775 53.5078 37.8837 52.6235 37.8837V37.2002H58.6166V37.8837H56.7201V45.1611Z" fill="#4F3528"/>
<path d="M40.3009 70.5955C39.834 70.5869 39.4016 70.4593 38.9991 70.2148C38.5986 69.9704 38.2775 69.645 38.0397 69.239C37.8022 68.8329 37.6821 68.3992 37.6821 67.9421C37.6821 67.1301 37.9906 66.4369 38.605 65.8629C39.2474 65.2506 39.9861 64.9445 40.8148 64.9445C41.2815 64.9445 41.7161 65.0656 42.1187 65.3059C42.5212 65.5462 42.8424 65.8692 43.0801 66.2733C43.3177 66.6772 43.4376 67.1088 43.4376 67.5701C43.4376 68.3822 43.1293 69.0752 42.5126 69.6515C41.8467 70.2808 41.1102 70.5955 40.3009 70.5955ZM38.1575 67.7508C38.1596 68.1292 38.271 68.5056 38.4915 68.8777C38.7121 69.2497 39.0075 69.5579 39.3759 69.8024C39.7441 70.0468 40.1445 70.1786 40.5728 70.2C41.0503 70.2 41.472 70.0873 41.836 69.8598C42.2001 69.6323 42.4784 69.3304 42.6732 68.9541C42.866 68.5779 42.9622 68.1761 42.9622 67.7508C42.9495 67.3681 42.836 66.9898 42.6198 66.6133C42.4035 66.2392 42.1123 65.931 41.7503 65.6949C41.3864 65.459 40.9946 65.3399 40.5728 65.3399C40.1017 65.3421 39.682 65.4548 39.3137 65.678C38.9434 65.9013 38.6586 66.1988 38.4594 66.5687C38.2581 66.9387 38.1575 67.3342 38.1575 67.7508ZM45.3005 64.6511L45.4697 64.7914L45.1463 65.1741V65.6206C45.3733 65.3952 45.581 65.2251 45.7651 65.1125C45.9514 64.9998 46.1719 64.9445 46.431 64.9445C46.6281 64.9445 46.8679 64.9998 47.1483 65.1103V64.6108H47.3688V66.9366H47.1483V66.8452C47.1483 66.3774 47.1141 66.0414 47.0456 65.8353C46.9213 65.4972 46.6859 65.3017 46.3411 65.2506C46.0907 65.2506 45.8529 65.3421 45.6303 65.5271C45.4075 65.7098 45.247 65.9161 45.1463 66.1436V69.6515C45.1463 69.8321 45.172 69.9618 45.2256 70.0405C45.279 70.1212 45.3541 70.1681 45.4503 70.1872C45.5468 70.2042 45.6945 70.2127 45.8936 70.2127V70.4296H43.9901V70.2127H44.5682V65.8523L44.1207 66.3881L43.9494 66.2478L45.3005 64.6511ZM48.962 69.6515C48.962 69.9023 49.0069 70.0596 49.0989 70.1212C49.1888 70.183 49.3367 70.2127 49.5401 70.2127V70.4296H47.8035V70.2127H48.3837V65.8523L47.9319 66.386L47.765 66.2457L49.116 64.6362L49.281 64.7979L48.962 65.1614V69.6515ZM48.1012 62.9674C48.1012 62.8207 48.1524 62.6974 48.2554 62.6016C48.3581 62.5061 48.4822 62.4571 48.6257 62.4571C48.7735 62.4571 48.8955 62.5061 48.994 62.6037C49.0926 62.7016 49.1417 62.8185 49.1417 62.9546C49.1417 63.1034 49.0926 63.2309 48.994 63.3351C48.8955 63.4394 48.7735 63.4903 48.6257 63.4903C48.4801 63.4903 48.356 63.4394 48.2531 63.3394C48.1524 63.2395 48.1012 63.114 48.1012 62.9674ZM55.67 68.6586C55.501 69.0604 55.274 69.4091 54.9892 69.7003C54.7044 69.9915 54.3725 70.2148 53.9914 70.3659C53.6104 70.5188 53.1971 70.5955 52.7517 70.5955C52.2721 70.5955 51.8139 70.4784 51.3792 70.2446C50.9467 70.0108 50.5998 69.6918 50.3408 69.2837C50.0817 68.8777 49.9511 68.429 49.9511 67.9421C49.9511 67.4022 50.103 66.9003 50.4049 66.4411C50.7068 65.9819 51.1052 65.6164 51.6018 65.3484C52.0987 65.0784 52.6147 64.9445 53.15 64.9445C53.5053 64.9445 53.848 65.0147 54.1756 65.1572C54.5054 65.2996 54.7923 65.4995 55.0385 65.7567C55.2826 66.014 55.4645 66.3031 55.578 66.6282H50.6684C50.5205 66.9217 50.4414 67.2831 50.4264 67.7146C50.4264 68.1738 50.5463 68.5928 50.7883 68.9711C51.028 69.3496 51.3471 69.6494 51.7432 69.8683C52.1415 70.0873 52.559 70.1979 52.9958 70.2C53.5482 70.2 54.0385 70.0533 54.4625 69.7598C54.8885 69.4686 55.2269 69.071 55.4753 68.5672L55.67 68.6586ZM54.8073 66.3477C54.5887 66.0351 54.302 65.7907 53.9422 65.6099C53.5846 65.4293 53.2034 65.3399 52.8009 65.3399C52.5546 65.3399 52.3063 65.3803 52.058 65.459C51.8096 65.5376 51.5784 65.6524 51.3664 65.8055C51.1543 65.9566 50.9767 66.1372 50.8374 66.3477H54.8073ZM56.9119 70.2127V65.865L56.4602 66.4009L56.2931 66.2605L57.6442 64.6638L57.8092 64.8042L57.49 65.1869V65.5674C57.9269 65.1528 58.3723 64.9445 58.8261 64.9445C59.3314 64.9445 59.7211 65.1486 59.9952 65.5546C60.1237 65.763 60.203 65.9798 60.233 66.2031C60.2629 66.4285 60.2779 66.7133 60.2779 67.062V69.6515C60.2779 69.8321 60.3036 69.9618 60.357 70.0405C60.4106 70.1191 60.4855 70.1681 60.5798 70.1872C60.6761 70.2042 60.8218 70.2127 61.0208 70.2127V70.4296H59.1194V70.2127H59.6998V67.0365C59.6998 66.4837 59.6483 66.0925 59.5435 65.865C59.4686 65.678 59.3443 65.5292 59.1751 65.4165C59.0038 65.3059 58.8154 65.2506 58.6056 65.2506C58.2609 65.2506 57.989 65.4037 57.7898 65.7077C57.5906 66.014 57.49 66.3456 57.49 66.7049V69.6515C57.49 69.8321 57.5157 69.9618 57.5693 70.0405C57.6229 70.1212 57.6978 70.1681 57.7942 70.1872C57.8904 70.2042 58.0381 70.2127 58.2373 70.2127V70.4296H56.3317V70.2127H56.9119ZM62.5239 68.8096C62.5239 69.0859 62.5882 69.4006 62.7188 69.7556C62.8473 70.1107 63.1169 70.2892 63.526 70.2892C63.9906 70.2785 64.406 70.0236 64.7721 69.5239L64.9371 69.6004C64.9135 69.8874 64.7721 70.1256 64.5174 70.3127C64.2626 70.5018 63.9885 70.5955 63.6929 70.5955C63.4296 70.5955 63.1748 70.5381 62.9308 70.4254C62.6867 70.3127 62.4854 70.1553 62.3312 69.9576C62.0742 69.6302 61.9458 69.171 61.9458 68.58V65.3273H61.3035V65.0466H61.9458V62.9674L62.5239 62.3167V65.0466H63.6309V65.3273H62.5239V68.8096ZM68.2407 70.1616C67.7911 70.4507 67.3457 70.5955 66.9047 70.5955C66.4058 70.5955 65.984 70.4275 65.6393 70.0915C65.2924 69.7535 65.119 69.3411 65.119 68.8479C65.119 68.4715 65.226 68.1313 65.4359 67.8231C65.6479 67.5148 65.9241 67.2768 66.2665 67.1046C66.607 66.9324 66.9668 66.8452 67.3415 66.8452C67.6219 66.8452 67.9196 66.9217 68.2278 67.0769V66.9238C68.2278 66.4051 68.1723 66.0288 68.0609 65.7992C67.8639 65.4079 67.5362 65.2125 67.0824 65.2125C66.7847 65.2125 66.5256 65.308 66.3051 65.4972C66.0825 65.6886 65.9154 65.9289 65.8019 66.2201C65.6884 66.5092 65.6327 66.7962 65.6327 67.0769H65.4144V64.598H65.6327V65.6589C66.0996 65.1827 66.6178 64.9445 67.1873 64.9445C67.7953 64.9445 68.2493 65.1656 68.5491 65.6078C68.6711 65.797 68.746 66.0012 68.7739 66.2222C68.8038 66.4434 68.8188 66.7239 68.8188 67.062V69.6515C68.8188 69.8321 68.8445 69.9618 68.8981 70.0405C68.9517 70.1191 69.0266 70.166 69.123 70.1851C69.2192 70.2021 69.3669 70.2106 69.5661 70.2106V70.4296H68.2407V70.1616ZM68.2407 67.7402C67.9004 67.3553 67.5278 67.1641 67.1231 67.1641C66.8554 67.1641 66.6049 67.2236 66.3716 67.3448C66.1382 67.4638 65.9496 67.6339 65.8063 67.8529C65.665 68.0718 65.5922 68.3185 65.5922 68.5928C65.6114 68.8733 65.6884 69.1412 65.8256 69.4006C65.9604 69.6578 66.1446 69.8683 66.3758 70.032C66.607 70.1958 66.8598 70.2764 67.136 70.2764C67.5556 70.2764 67.9238 70.1063 68.2407 69.7663V67.7402ZM71.1291 69.6515C71.1291 69.9023 71.174 70.0596 71.2662 70.1212C71.3561 70.183 71.5038 70.2127 71.7093 70.2127V70.4296H69.9729V70.2127H70.551V62.4188L70.0115 63.0418L69.8444 62.9014L71.2084 61.3091L71.3732 61.4494L71.1291 61.7321V69.6515ZM82.1132 64.6638V66.7962H81.8948V66.6156C81.8712 66.1797 81.7834 65.829 81.6336 65.5611C81.4815 65.2952 81.2053 65.1614 80.8027 65.1614C80.5458 65.1614 80.3295 65.2422 80.154 65.4037C79.9784 65.5632 79.8907 65.7737 79.8907 66.0309C79.8907 66.1988 79.9377 66.3349 80.032 66.4411C80.1261 66.5475 80.2312 66.624 80.3447 66.673C80.4603 66.7218 80.6358 66.7878 80.8692 66.8706C81.231 67.0003 81.5137 67.1046 81.715 67.1875C81.9184 67.2682 82.1111 67.3746 82.2952 67.5022C82.4794 67.6296 82.6292 67.7955 82.747 68.0016C82.8647 68.2079 82.9225 68.4587 82.9225 68.7585C82.9225 69.1475 82.8155 69.4814 82.6014 69.7598C82.3872 70.0363 82.1068 70.2446 81.7621 70.3849C81.4173 70.5253 81.0555 70.5955 80.6743 70.5955C80.1411 70.5955 79.7022 70.506 79.3575 70.3275C79.0128 70.1489 78.7644 69.932 78.6123 69.6792C78.4625 69.424 78.3876 69.1774 78.3876 68.9393C78.3876 68.6799 78.4496 68.4438 78.5718 68.2291C78.6937 68.0165 78.8608 67.8487 79.0727 67.7232C79.2847 67.5977 79.5202 67.534 79.7772 67.534C80.0706 67.534 80.3295 67.6126 80.5565 67.7678C80.7814 67.923 80.8949 68.1399 80.8949 68.4141C80.8949 68.5863 80.8413 68.7415 80.7386 68.8861C80.6337 69.0306 80.4966 69.1029 80.3295 69.1029C80.2012 69.1029 80.1348 69.0562 80.1348 68.9627C80.1348 68.9351 80.154 68.8691 80.1926 68.765C80.2312 68.6607 80.2504 68.5693 80.2504 68.4907C80.2504 68.3227 80.1755 68.1866 80.0213 68.0783C79.867 67.9698 79.7044 67.9166 79.533 67.9166C79.2889 67.9166 79.0855 67.9974 78.925 68.1568C78.7644 68.3163 78.683 68.5161 78.683 68.7564C78.683 69.0285 78.7836 69.2879 78.987 69.5344C79.1904 69.7812 79.4624 69.9831 79.805 70.1363C80.1476 70.2892 80.5158 70.3701 80.9055 70.3785C81.1861 70.3785 81.441 70.3169 81.6699 70.1958C81.899 70.0745 82.079 69.9023 82.2117 69.6813C82.3423 69.458 82.4087 69.2072 82.4087 68.9244C82.4087 68.6267 82.3423 68.3885 82.2075 68.21C82.0725 68.0293 81.9077 67.8954 81.7171 67.804C81.5243 67.7146 81.2547 67.6105 80.9055 67.4957C80.5052 67.3597 80.2268 67.2575 80.0641 67.1875C79.9035 67.1151 79.7558 66.9982 79.6187 66.8324C79.4839 66.6686 79.4153 66.4455 79.4153 66.169C79.4153 65.7949 79.5609 65.4972 79.8521 65.2762C80.1434 65.0551 80.4816 64.9445 80.8692 64.9445C81.1068 64.9445 81.4194 65.0168 81.807 65.1614L81.8948 65.2018V64.6638H82.1132ZM87.524 70.5955H87.3162L86.6246 68.5056L85.841 70.5955H85.6611L84.2224 66.3584C84.111 66.0288 83.9846 65.7737 83.8432 65.595C83.6998 65.4165 83.4664 65.3273 83.1432 65.3273V65.1103H84.7747V65.3273H84.2994L85.8024 69.8449L86.4449 68.0676L85.9181 66.4476C85.8195 66.1309 85.7018 65.8692 85.5604 65.6652C85.4214 65.4611 85.2094 65.3484 84.9266 65.3273V65.1103H86.3913V65.3273H85.9695L86.6375 67.3193L87.1643 65.7354C87.1643 65.5717 87.1171 65.4632 87.0272 65.4079C86.9352 65.3549 86.7767 65.3273 86.5497 65.3273V65.1103H88.0764V65.3273H87.6781L86.8559 67.7381L87.4576 69.8449L88.5003 66.7281C88.6545 66.2478 88.7402 65.9289 88.7573 65.7737C88.7573 65.476 88.5817 65.3273 88.2306 65.3273V65.1103H89.785V65.3273H89.3333L87.524 70.5955ZM95.7866 68.6586C95.6176 69.0604 95.3906 69.4091 95.1058 69.7003C94.821 69.9915 94.4891 70.2148 94.108 70.3659C93.727 70.5188 93.3137 70.5955 92.8683 70.5955C92.3887 70.5955 91.9305 70.4784 91.4958 70.2446C91.0633 70.0108 90.7165 69.6918 90.4574 69.2837C90.1983 68.8777 90.0677 68.429 90.0677 67.9421C90.0677 67.4022 90.2196 66.9003 90.5215 66.4411C90.8234 65.9819 91.2218 65.6164 91.7184 65.3484C92.2153 65.0784 92.7313 64.9445 93.2666 64.9445C93.6219 64.9445 93.9646 65.0147 94.2922 65.1572C94.622 65.2996 94.9089 65.4995 95.1551 65.7567C95.3992 66.014 95.5811 66.3031 95.6946 66.6282H90.785C90.6371 66.9217 90.558 67.2831 90.543 67.7146C90.543 68.1738 90.6629 68.5928 90.9049 68.9711C91.1446 69.3496 91.4638 69.6494 91.8598 69.8683C92.2581 70.0873 92.6757 70.1979 93.1124 70.2C93.6648 70.2 94.1551 70.0533 94.5792 69.7598C95.0052 69.4686 95.3436 69.071 95.5919 68.5672L95.7866 68.6586ZM94.9239 66.3477C94.7054 66.0351 94.4186 65.7907 94.0589 65.6099C93.7013 65.4293 93.32 65.3399 92.9175 65.3399C92.6712 65.3399 92.4229 65.3803 92.1746 65.459C91.9262 65.5376 91.695 65.6524 91.483 65.8055C91.2709 65.9566 91.0933 66.1372 90.954 66.3477H94.9239ZM101.99 68.6586C101.821 69.0604 101.594 69.4091 101.309 69.7003C101.024 69.9915 100.692 70.2148 100.311 70.3659C99.9299 70.5188 99.5166 70.5955 99.0712 70.5955C98.5917 70.5955 98.1334 70.4784 97.6988 70.2446C97.2663 70.0108 96.9194 69.6918 96.6603 69.2837C96.4012 68.8777 96.2706 68.429 96.2706 67.9421C96.2706 67.4022 96.4226 66.9003 96.7245 66.4411C97.0264 65.9819 97.4247 65.6164 97.9214 65.3484C98.4182 65.0784 98.9343 64.9445 99.4696 64.9445C99.8249 64.9445 100.168 65.0147 100.495 65.1572C100.825 65.2996 101.112 65.4995 101.358 65.7567C101.602 66.014 101.784 66.3031 101.898 66.6282H96.988C96.8401 66.9217 96.761 67.2831 96.746 67.7146C96.746 68.1738 96.8658 68.5928 97.1078 68.9711C97.3475 69.3496 97.6667 69.6494 98.0627 69.8683C98.4611 70.0873 98.8786 70.1979 99.3153 70.2C99.8677 70.2 100.358 70.0533 100.782 69.7598C101.208 69.4686 101.546 69.071 101.795 68.5672L101.99 68.6586ZM101.127 66.3477C100.908 66.0351 100.622 65.7907 100.262 65.6099C99.9042 65.4293 99.523 65.3399 99.1204 65.3399C98.8742 65.3399 98.6259 65.3803 98.3775 65.459C98.1292 65.5376 97.8979 65.6524 97.6859 65.8055C97.4739 65.9566 97.2962 66.1372 97.157 66.3477H101.127ZM103.707 68.8096C103.707 69.0859 103.771 69.4006 103.902 69.7556C104.03 70.1107 104.3 70.2892 104.709 70.2892C105.174 70.2785 105.589 70.0236 105.955 69.5239L106.12 69.6004C106.096 69.8874 105.955 70.1256 105.7 70.3127C105.445 70.5018 105.171 70.5955 104.876 70.5955C104.613 70.5955 104.358 70.5381 104.114 70.4254C103.87 70.3127 103.668 70.1553 103.514 69.9576C103.257 69.6302 103.129 69.171 103.129 68.58V65.3273H102.486V65.0466H103.129V62.9674L103.707 62.3167V65.0466H104.814V65.3273H103.707V68.8096ZM109.681 64.6638V66.7962H109.462V66.6156C109.439 66.1797 109.351 65.829 109.201 65.5611C109.049 65.2952 108.773 65.1614 108.37 65.1614C108.113 65.1614 107.897 65.2422 107.721 65.4037C107.546 65.5632 107.458 65.7737 107.458 66.0309C107.458 66.1988 107.505 66.3349 107.599 66.4411C107.694 66.5475 107.799 66.624 107.912 66.673C108.028 66.7218 108.203 66.7878 108.437 66.8706C108.798 67.0003 109.081 67.1046 109.282 67.1875C109.486 67.2682 109.678 67.3746 109.863 67.5022C110.047 67.6296 110.197 67.7955 110.314 68.0016C110.432 68.2079 110.49 68.4587 110.49 68.7585C110.49 69.1475 110.383 69.4814 110.169 69.7598C109.955 70.0363 109.674 70.2446 109.33 70.3849C108.985 70.5253 108.623 70.5955 108.242 70.5955C107.709 70.5955 107.27 70.506 106.925 70.3275C106.58 70.1489 106.332 69.932 106.18 69.6792C106.03 69.424 105.955 69.1774 105.955 68.9393C105.955 68.6799 106.017 68.4438 106.139 68.2291C106.261 68.0165 106.428 67.8487 106.64 67.7232C106.852 67.5977 107.088 67.534 107.345 67.534C107.638 67.534 107.897 67.6126 108.124 67.7678C108.349 67.923 108.462 68.1399 108.462 68.4141C108.462 68.5863 108.409 68.7415 108.306 68.8861C108.201 69.0306 108.064 69.1029 107.897 69.1029C107.769 69.1029 107.702 69.0562 107.702 68.9627C107.702 68.9351 107.721 68.8691 107.76 68.765C107.799 68.6607 107.818 68.5693 107.818 68.4907C107.818 68.3227 107.743 68.1866 107.589 68.0783C107.434 67.9698 107.272 67.9166 107.1 67.9166C106.856 67.9166 106.653 67.9974 106.492 68.1568C106.332 68.3163 106.25 68.5161 106.25 68.7564C106.25 69.0285 106.351 69.2879 106.554 69.5344C106.758 69.7812 107.03 69.9831 107.372 70.1363C107.715 70.2892 108.083 70.3701 108.473 70.3785C108.754 70.3785 109.008 70.3169 109.237 70.1958C109.466 70.0745 109.646 69.9023 109.779 69.6813C109.91 69.458 109.976 69.2072 109.976 68.9244C109.976 68.6267 109.91 68.3885 109.775 68.21C109.64 68.0293 109.475 67.8954 109.285 67.804C109.092 67.7146 108.822 67.6105 108.473 67.4957C108.073 67.3597 107.794 67.2575 107.632 67.1875C107.471 67.1151 107.323 66.9982 107.186 66.8324C107.051 66.6686 106.983 66.4455 106.983 66.169C106.983 65.7949 107.128 65.4972 107.419 65.2762C107.711 65.0551 108.049 64.9445 108.437 64.9445C108.674 64.9445 108.987 65.0168 109.374 65.1614L109.462 65.2018V64.6638H109.681Z" fill="white"/>
<path fill-rule="evenodd" clip-rule="evenodd" d="M26.8076 67.8855C26.8076 67.8855 29.1576 68.4383 30.3712 67.4013C31.5847 66.3642 32.6089 64.5099 33.729 63.6841C34.8492 62.8583 36.228 61.8896 36.228 61.8896C36.228 61.8896 33.0236 62.426 32.0015 63.1902C29.7868 64.8464 29.8638 66.1248 26.731 67.4559L26.8076 67.8855Z" fill="#4F3528"/>
<path fill-rule="evenodd" clip-rule="evenodd" d="M25.3055 66.3933C25.3055 66.3933 24.4056 64.168 25.2581 62.8223C26.1106 61.4765 27.8051 60.1955 28.4611 58.9728C29.1171 57.7501 29.8769 56.2524 29.8769 56.2524C29.8769 56.2524 29.8189 59.4786 29.2098 60.5956C27.8895 63.0164 26.6048 63.1308 25.7447 66.4047L25.3055 66.3933Z" fill="#4F3528"/>
<path fill-rule="evenodd" clip-rule="evenodd" d="M35.2199 57.7993C35.2199 57.7993 32.1095 59.1074 29.8989 61.2942C27.6886 63.481 26.973 65.1351 26.7026 65.6411C26.4324 66.147 26.1177 66.9243 26.2985 66.897C26.4795 66.8697 28.6818 65.6768 28.9102 65.4262C29.1386 65.1756 30.9903 63.0917 32.055 61.527C33.1199 59.9623 34.0327 58.8318 34.4777 58.448C34.9228 58.0643 35.2199 57.7993 35.2199 57.7993Z" fill="#4F3528"/>
<path fill-rule="evenodd" clip-rule="evenodd" d="M26.1919 66.8647L25.7085 66.3604C25.7085 66.3604 25.2435 66.2041 25.1771 66.4295C25.1108 66.6547 25.3212 67.2212 25.3843 67.3754C25.4473 67.5294 25.7599 67.8419 26.0604 67.9033C26.3611 67.9646 26.8946 67.893 26.8946 67.893C26.8946 67.893 26.9887 67.4412 26.9011 67.3936C26.8134 67.3458 26.3884 67.078 26.3144 67.0147C26.2402 66.9515 26.1919 66.8647 26.1919 66.8647Z" fill="#4F3528"/>
<path fill-rule="evenodd" clip-rule="evenodd" d="M25.6339 67.1943L25.9679 67.4799L24.5256 69.2023L24.1917 68.9165L25.6339 67.1943Z" fill="#4F3528"/>
<path fill-rule="evenodd" clip-rule="evenodd" d="M0.625977 68.832H24.5257V69.5005H0.625977V68.832Z" fill="#4F3528"/>
<path fill-rule="evenodd" clip-rule="evenodd" d="M0.625977 69.5006V0.404297H1.29943V69.5006H0.625977Z" fill="#4F3528"/>
<path fill-rule="evenodd" clip-rule="evenodd" d="M0.625977 0.404297H132.374V1.07297H0.625977V0.404297Z" fill="#4F3528"/>
<path fill-rule="evenodd" clip-rule="evenodd" d="M131.701 69.5006V0.404297H132.374V69.5006H131.701Z" fill="#4F3528"/>
<path fill-rule="evenodd" clip-rule="evenodd" d="M114.782 68.832H132.374V69.5005H114.782V68.832Z" fill="#4F3528"/>
<path d="M47.522 53.122C46.1048 54.0334 44.7009 54.4891 43.3107 54.4891C41.7382 54.4891 40.4087 53.9598 39.3221 52.901C38.2287 51.8354 37.6821 50.5355 37.6821 48.9808C37.6821 47.7947 38.0195 46.7226 38.6809 45.7509C39.3491 44.7793 40.2196 44.0287 41.2995 43.486C42.3725 42.9432 43.5063 42.6684 44.6874 42.6684C45.5716 42.6684 46.5096 42.9097 47.4815 43.3989V42.9164C47.4815 41.2814 47.3061 40.0952 46.955 39.3716C46.3342 38.1385 45.3016 37.522 43.8708 37.522C42.9328 37.522 42.1161 37.8235 41.4209 38.4199C40.7191 39.0232 40.1926 39.7804 39.835 40.6984C39.4772 41.6097 39.3019 42.5144 39.3019 43.3989H38.6134V35.5854H39.3019V38.9294C40.773 37.4282 42.4063 36.6778 44.2014 36.6778C46.1182 36.6778 47.549 37.3747 48.4938 38.7685C48.8786 39.3648 49.1148 40.008 49.2025 40.7051C49.297 41.4019 49.3442 42.2866 49.3442 43.352V51.5138C49.3442 52.0834 49.4251 52.4922 49.594 52.7402C49.7627 52.988 49.9988 53.1355 50.3025 53.1957C50.6062 53.2494 51.0718 53.2762 51.6996 53.2762V53.9664H47.522V53.122ZM47.522 45.4896C46.449 44.2767 45.2746 43.6736 43.9991 43.6736C43.1554 43.6736 42.3658 43.8612 41.6301 44.2432C40.8946 44.6184 40.3007 45.1544 39.8484 45.8448C39.403 46.535 39.1736 47.3122 39.1736 48.1767C39.2344 49.0613 39.4772 49.9055 39.9092 50.7231C40.3343 51.5339 40.9147 52.1973 41.6437 52.7132C42.3725 53.2293 43.169 53.4839 44.0395 53.4839C45.3624 53.4839 46.5232 52.9479 47.522 51.8757V45.4896ZM56.5047 45.1613L62.4236 37.8839H60.6015V37.2003H66.5945V37.8839H64.4483L57.8411 45.0004C60.2504 45.0004 62.4978 47.1715 64.5631 51.5138C64.8262 52.05 65.1368 52.4787 65.5079 52.8004C65.8858 53.122 66.2706 53.2829 66.6754 53.2829H67.0805V53.9664H63.4696C62.4102 51.7082 61.5462 50.0329 60.8646 48.9339C60.1762 47.8416 59.5149 47.0777 58.867 46.649C58.2123 46.22 57.4294 46.0057 56.5047 46.0057V51.5138C56.5047 52.0901 56.5791 52.4989 56.7342 52.7468C56.8895 52.9948 57.1123 53.1422 57.4024 53.2025C57.6927 53.2561 58.1516 53.2829 58.7657 53.2829V53.9664H52.7727V53.2829H54.6827V39.653C54.6827 38.8555 54.5274 38.3597 54.2101 38.1721C53.8931 37.9777 53.2924 37.8839 52.4082 37.8839V37.2003H58.4012V37.8839H56.5047V45.1613ZM73.5864 36.6778H74.3559L79.0126 50.1133C79.404 51.1521 79.8022 51.9427 80.2072 52.4787C80.612 53.0149 81.2532 53.2829 82.1306 53.2829V53.9664H76.7449V53.2829H78.1622L73.4582 39.6127L70.266 49.9055C69.942 50.8572 69.7801 51.554 69.7801 51.9963C69.7801 52.5256 69.9354 52.8741 70.2524 53.0349C70.563 53.2025 71.0422 53.2829 71.6765 53.2829V53.9664H66.3786V53.2829H67.8297L73.5864 36.6778ZM92.9356 53.122C91.5184 54.0334 90.1146 54.4891 88.7243 54.4891C87.1518 54.4891 85.8223 53.9598 84.7358 52.901C83.6423 51.8354 83.0958 50.5355 83.0958 48.9808C83.0958 47.7947 83.4331 46.7226 84.0946 45.7509C84.7627 44.7793 85.6332 44.0287 86.7131 43.486C87.7861 42.9432 88.9199 42.6684 90.101 42.6684C90.9852 42.6684 91.9232 42.9097 92.8951 43.3989V42.9164C92.8951 41.2814 92.7197 40.0952 92.3686 39.3716C91.7479 38.1385 90.7152 37.522 89.2844 37.522C88.3464 37.522 87.5297 37.8235 86.8346 38.4199C86.1327 39.0232 85.6063 39.7804 85.2486 40.6984C84.8909 41.6097 84.7155 42.5144 84.7155 43.3989H84.0271V35.5854H84.7155V38.9294C86.1866 37.4282 87.82 36.6778 89.6151 36.6778C91.5318 36.6778 92.9626 37.3747 93.9075 38.7685C94.2922 39.3648 94.5284 40.008 94.6162 40.7051C94.7106 41.4019 94.7579 42.2866 94.7579 43.352V51.5138C94.7579 52.0834 94.8388 52.4922 95.0076 52.7402C95.1763 52.988 95.4125 53.1355 95.7161 53.1957C96.0198 53.2494 96.4855 53.2762 97.1133 53.2762V53.9664H92.9356V53.122ZM92.9356 45.4896C91.8626 44.2767 90.6883 43.6736 89.4127 43.6736C88.569 43.6736 87.7794 43.8612 87.0438 44.2432C86.3083 44.6184 85.7143 45.1544 85.262 45.8448C84.8167 46.535 84.5872 47.3122 84.5872 48.1767C84.648 49.0613 84.8909 49.9055 85.3229 50.7231C85.748 51.5339 86.3284 52.1973 87.0573 52.7132C87.7861 53.2293 88.5826 53.4839 89.4531 53.4839C90.776 53.4839 91.9368 52.9479 92.9356 51.8757V45.4896ZM98.1863 53.9664V53.2829H100.096V39.653C100.096 39.117 100.029 38.7215 99.9005 38.4668C99.7724 38.219 99.5631 38.0582 99.2662 37.9844C98.9692 37.9173 98.49 37.8839 97.8218 37.8839V37.2003H105.279C108.654 37.2003 110.341 38.1788 110.341 40.1354C110.341 41.6968 109.248 42.8361 107.061 43.553C108.289 43.553 109.396 43.7541 110.388 44.1627C111.374 44.5649 112.15 45.1478 112.703 45.9117C113.263 46.6757 113.54 47.5535 113.54 48.5386C113.54 50.1201 112.811 51.4536 111.353 52.5256C110.071 53.4839 108.229 53.9664 105.846 53.9664H98.1863ZM108.357 40.4974C108.357 38.8623 107.034 38.0447 104.389 38.0447C103.12 38.0447 102.296 38.0715 101.918 38.1252V43.9953C103.97 43.7875 105.556 43.4123 106.676 42.8829C107.797 42.3467 108.357 41.5561 108.357 40.4974ZM101.918 44.9536V51.2793C101.918 51.8489 101.966 52.2577 102.053 52.5123C102.141 52.7603 102.337 52.9344 102.641 53.0216C102.944 53.1154 103.457 53.1623 104.179 53.1623H106.326C107.196 53.1623 108.033 52.9747 108.843 52.5927C109.646 52.2108 110.294 51.6947 110.787 51.0381C111.272 50.3813 111.515 49.6509 111.515 48.8603C111.515 47.3861 111.043 46.2535 110.105 45.4829C109.167 44.7056 107.817 44.3169 106.049 44.3169C104.739 44.3169 103.363 44.5313 101.918 44.9536ZM125.324 53.122C123.906 54.0334 122.503 54.4891 121.112 54.4891C119.54 54.4891 118.21 53.9598 117.124 52.901C116.03 51.8354 115.484 50.5355 115.484 48.9808C115.484 47.7947 115.821 46.7226 116.483 45.7509C117.151 44.7793 118.021 44.0287 119.101 43.486C120.174 42.9432 121.308 42.6684 122.489 42.6684C123.373 42.6684 124.311 42.9097 125.283 43.3989V42.9164C125.283 41.2814 125.108 40.0952 124.757 39.3716C124.136 38.1385 123.103 37.522 121.672 37.522C120.734 37.522 119.918 37.8235 119.223 38.4199C118.521 39.0232 117.994 39.7804 117.637 40.6984C117.279 41.6097 117.104 42.5144 117.104 43.3989H116.415V35.5854H117.104V38.9294C118.575 37.4282 120.208 36.6778 122.003 36.6778C123.92 36.6778 125.351 37.3747 126.296 38.7685C126.68 39.3648 126.916 40.008 127.004 40.7051C127.099 41.4019 127.146 42.2866 127.146 43.352V51.5138C127.146 52.0834 127.227 52.4922 127.396 52.7402C127.564 52.988 127.801 53.1355 128.104 53.1957C128.408 53.2494 128.874 53.2762 129.501 53.2762V53.9664H125.324V53.122ZM125.324 45.4896C124.251 44.2767 123.076 43.6736 121.801 43.6736C120.957 43.6736 120.167 43.8612 119.432 44.2432C118.696 44.6184 118.102 45.1544 117.65 45.8448C117.205 46.535 116.975 47.3122 116.975 48.1767C117.036 49.0613 117.279 49.9055 117.711 50.7231C118.136 51.5339 118.716 52.1973 119.445 52.7132C120.174 53.2293 120.971 53.4839 121.841 53.4839C123.164 53.4839 124.325 52.9479 125.324 51.8757V45.4896Z" fill="#4F3528"/>
</svg>
