<svg width="744" height="340" viewBox="0 0 744 340" fill="none" xmlns="http://www.w3.org/2000/svg">
<path d="M1.84839 316.963C16.4342 316.65 52.8633 319.588 81.8926 333.839C118.179 351.653 139.525 316.963 177.946 316.963C216.367 316.963 236.645 336.652 252.654 336.652C268.663 336.652 302.815 310.399 335.9 316.963C368.985 323.526 390.33 336.652 411.675 336.652C433.02 336.652 458.634 312.275 494.921 316.963C531.208 321.65 548.284 336.652 569.629 336.652C590.974 336.652 624.059 313.212 650.74 316.963C677.422 320.713 704.103 336.652 715.843 336.652C725.235 336.652 729.717 336.652 730.785 336.652" stroke="#F4F4F4" stroke-width="2" stroke-linecap="round" stroke-linejoin="round"/>
<path d="M1.84839 298.327C16.4342 298.014 52.8633 300.952 81.8926 315.203C118.179 333.017 139.525 298.327 177.946 298.327C216.367 298.327 236.645 318.016 252.654 318.016C268.663 318.016 302.815 291.764 335.9 298.327C368.985 304.89 390.33 318.016 411.675 318.016C433.02 318.016 458.634 293.639 494.921 298.327C531.208 303.015 548.284 318.016 569.629 318.016C590.974 318.016 624.059 294.576 650.74 298.327C677.422 302.077 704.103 318.016 715.843 318.016C725.235 318.016 729.717 318.016 730.785 318.016" stroke="#F4F4F4" stroke-width="2" stroke-linecap="round" stroke-linejoin="round"/>
<path d="M1.84839 279.575C16.4342 279.263 52.8633 282.2 81.8926 296.451C118.179 314.265 139.524 279.575 177.946 279.575C216.367 279.575 236.645 299.264 252.654 299.264C268.663 299.264 302.815 273.012 335.9 279.575C368.985 286.138 390.33 299.264 411.675 299.264C433.02 299.264 458.634 274.887 494.921 279.575C531.208 284.263 548.284 299.264 569.629 299.264C590.974 299.264 624.059 275.825 650.74 279.575C677.422 283.325 704.103 299.264 715.843 299.264C725.235 299.264 729.717 299.264 730.785 299.264C752.13 299.264 777.744 274.888 814.031 279.576C850.317 284.263 867.394 299.265 888.739 299.265C910.084 299.265 943.169 275.825 969.85 279.576C996.532 283.326 1023.21 299.265 1034.95 299.265H1049.89C1071.24 299.265 1096.85 274.888 1133.14 279.576C1169.43 284.263 1186.5 299.265 1207.85 299.265" stroke="#F4F4F4" stroke-width="2" stroke-linecap="round" stroke-linejoin="round"/>
<path d="M1.84839 262.699C16.4342 262.386 52.8633 265.324 81.8926 279.575C118.179 297.389 139.524 262.699 177.946 262.699C216.367 262.699 236.645 282.388 252.654 282.388C268.663 282.388 302.815 256.136 335.9 262.699C368.985 269.262 390.33 282.388 411.675 282.388C433.02 282.388 458.634 258.011 494.921 262.699C531.208 267.387 548.284 282.388 569.629 282.388C590.974 282.388 624.059 258.948 650.74 262.699C677.422 266.449 704.103 282.388 715.843 282.388C725.235 282.388 729.717 282.388 730.785 282.388C752.13 282.388 777.744 258.011 814.031 262.699C850.317 267.387 867.394 282.388 888.739 282.388C910.084 282.388 943.169 258.949 969.85 262.699C996.532 266.449 1023.21 282.388 1034.95 282.388H1049.89C1071.24 282.388 1096.85 258.011 1133.14 262.699C1169.43 267.387 1186.5 282.388 1207.85 282.388" stroke="#F4F4F4" stroke-width="2" stroke-linecap="round" stroke-linejoin="round"/>
<path d="M1.84839 245.823C16.4342 245.51 52.8633 248.448 81.8926 262.699C118.179 280.513 139.524 245.823 177.946 245.823C216.367 245.823 236.645 265.512 252.654 265.512C268.663 265.512 302.815 239.26 335.9 245.823C368.985 252.386 390.33 265.512 411.675 265.512C433.02 265.512 458.634 241.135 494.921 245.823C531.208 250.511 548.284 265.512 569.629 265.512C590.974 265.512 624.059 242.072 650.74 245.823C677.422 249.573 704.103 265.512 715.843 265.512C725.235 265.512 729.717 265.512 730.785 265.512C752.13 265.512 777.744 241.135 814.031 245.823C850.317 250.511 867.394 265.512 888.739 265.512C910.084 265.512 943.169 242.072 969.85 245.823C996.532 249.573 1023.21 265.512 1034.95 265.512H1049.89C1071.24 265.512 1096.85 241.135 1133.14 245.823C1169.43 250.511 1186.5 265.512 1207.85 265.512" stroke="#F4F4F4" stroke-width="2" stroke-linecap="round" stroke-linejoin="round"/>
<path d="M1.84839 227.071C16.4342 226.759 52.8633 229.696 81.8926 243.947C118.179 261.761 139.524 227.071 177.946 227.071C216.367 227.071 236.645 246.76 252.654 246.76C268.663 246.76 302.815 220.508 335.9 227.071C368.985 233.634 390.33 246.76 411.675 246.76C433.02 246.76 458.634 222.383 494.921 227.071C531.208 231.759 548.284 246.76 569.629 246.76C590.974 246.76 624.059 223.321 650.74 227.071C677.422 230.822 704.103 246.76 715.843 246.76C725.235 246.76 729.717 246.76 730.785 246.76C752.13 246.76 777.744 222.383 814.031 227.071C850.317 231.759 867.394 246.76 888.739 246.76C910.084 246.76 943.169 223.321 969.85 227.071C996.532 230.822 1023.21 246.76 1034.95 246.76H1049.89C1071.24 246.76 1096.85 222.383 1133.14 227.071C1169.43 231.759 1186.5 246.76 1207.85 246.76C1229.19 246.76 1254.81 222.383 1291.09 227.071C1327.38 231.759 1344.46 246.76 1365.8 246.76C1387.15 246.76 1420.23 223.321 1446.91 227.071C1473.6 230.822 1500.28 246.76 1512.02 246.76H1526.96C1548.3 246.76 1573.92 222.383 1610.2 227.071C1646.49 231.759 1663.57 246.76 1684.91 246.76C1706.26 246.76 1739.34 223.321 1766.02 227.071C1792.7 230.822 1819.39 246.76 1831.13 246.76H1846.07C1867.41 246.76 1893.03 222.383 1929.31 227.071C1965.6 231.759 1982.68 246.76 2004.02 246.76C2025.37 246.76 2050.98 222.383 2087.27 227.071C2123.55 231.759 2140.63 246.76 2161.98 246.76" stroke="#F4F4F4" stroke-width="2" stroke-linecap="round" stroke-linejoin="round"/>
<path d="M1.84839 212.07C16.4342 211.758 52.8633 214.695 81.8926 228.947C118.179 246.76 139.525 212.07 177.946 212.07C216.367 212.07 236.645 231.759 252.654 231.759C268.663 231.759 302.815 205.507 335.9 212.07C368.985 218.633 390.33 231.759 411.675 231.759C433.02 231.759 458.634 207.382 494.921 212.07C531.208 216.758 548.284 231.759 569.629 231.759C590.974 231.759 624.059 208.32 650.74 212.07C677.422 215.821 704.103 231.759 715.843 231.759C725.235 231.759 729.717 231.759 730.785 231.759C752.13 231.759 777.744 207.382 814.031 212.07C850.317 216.758 867.394 231.759 888.739 231.759C910.084 231.759 943.169 208.32 969.85 212.07C996.532 215.821 1023.21 231.759 1034.95 231.759H1049.89C1071.24 231.759 1096.85 207.382 1133.14 212.07C1169.43 216.758 1186.5 231.759 1207.85 231.759C1229.19 231.759 1254.81 207.382 1291.09 212.07C1327.38 216.758 1344.46 231.759 1365.8 231.759C1387.15 231.759 1420.23 208.32 1446.91 212.07C1473.6 215.821 1500.28 231.759 1512.02 231.759H1526.96C1548.3 231.759 1573.92 207.382 1610.2 212.07C1646.49 216.758 1663.57 231.759 1684.91 231.759C1706.26 231.759 1739.34 208.32 1766.02 212.07C1792.7 215.821 1819.39 231.759 1831.13 231.759H1846.07C1867.41 231.759 1893.03 207.382 1929.31 212.07C1965.6 216.758 1982.68 231.759 2004.02 231.759C2025.37 231.759 2050.98 207.382 2087.27 212.07C2123.55 216.758 2140.63 231.759 2161.98 231.759" stroke="#F4F4F4" stroke-width="2" stroke-linecap="round" stroke-linejoin="round"/>
<path d="M1.84839 193.318C16.4342 193.006 52.8633 195.943 81.8926 210.195C118.179 228.008 139.525 193.318 177.946 193.318C216.367 193.318 236.645 213.007 252.654 213.007C268.663 213.007 302.815 186.755 335.9 193.318C368.985 199.881 390.33 213.007 411.675 213.007C433.02 213.007 458.634 188.63 494.921 193.318C531.208 198.006 548.284 213.007 569.629 213.007C590.974 213.007 624.059 189.568 650.74 193.318C677.422 197.069 704.103 213.007 715.843 213.007C725.235 213.007 729.717 213.007 730.785 213.007C752.13 213.007 777.744 188.63 814.031 193.318C850.317 198.006 867.394 213.007 888.739 213.007C910.084 213.007 943.169 189.568 969.85 193.318C996.532 197.069 1023.21 213.007 1034.95 213.007H1049.89C1071.24 213.007 1096.85 188.63 1133.14 193.318C1169.43 198.006 1186.5 213.007 1207.85 213.007C1229.19 213.007 1254.81 188.63 1291.09 193.318C1327.38 198.006 1344.46 213.007 1365.8 213.007C1387.15 213.007 1420.23 189.568 1446.91 193.318C1473.6 197.069 1500.28 213.007 1512.02 213.007H1526.96C1548.3 213.007 1573.92 188.63 1610.2 193.318C1646.49 198.006 1663.57 213.007 1684.91 213.007C1706.26 213.007 1739.34 189.568 1766.02 193.318C1792.7 197.069 1819.39 213.007 1831.13 213.007H1846.07C1867.41 213.007 1893.03 188.63 1929.31 193.318C1965.6 198.006 1982.68 213.007 2004.02 213.007C2025.37 213.007 2050.98 188.63 2087.27 193.318C2123.55 198.006 2140.63 213.007 2161.98 213.007" stroke="#F4F4F4" stroke-width="2" stroke-linecap="round" stroke-linejoin="round"/>
<path d="M1.84839 178.318C16.4342 178.005 52.8633 180.943 81.8926 195.194C118.179 213.008 139.525 178.318 177.946 178.318C216.367 178.318 236.645 198.007 252.654 198.007C268.663 198.007 302.815 171.755 335.9 178.318C368.985 184.881 390.33 198.007 411.675 198.007C433.02 198.007 458.634 173.63 494.921 178.318C531.208 183.006 548.284 198.007 569.629 198.007C590.974 198.007 624.059 174.567 650.74 178.318C677.422 182.068 704.103 198.007 715.843 198.007C725.235 198.007 729.717 198.007 730.785 198.007C752.13 198.007 777.744 173.63 814.031 178.318C850.317 183.006 867.394 198.007 888.739 198.007C910.084 198.007 943.169 174.567 969.85 178.318C996.532 182.068 1023.21 198.007 1034.95 198.007H1049.89C1071.24 198.007 1096.85 173.63 1133.14 178.318C1169.43 183.006 1186.5 198.007 1207.85 198.007C1229.19 198.007 1254.81 173.63 1291.09 178.318C1327.38 183.006 1344.46 198.007 1365.8 198.007C1387.15 198.007 1420.23 174.567 1446.91 178.318C1473.6 182.068 1500.28 198.007 1512.02 198.007H1526.96C1548.3 198.007 1573.92 173.63 1610.2 178.318C1646.49 183.006 1663.57 198.007 1684.91 198.007C1706.26 198.007 1739.34 174.567 1766.02 178.318C1792.7 182.068 1819.39 198.007 1831.13 198.007H1846.07C1867.41 198.007 1893.03 173.63 1929.31 178.318C1965.6 183.006 1982.68 198.007 2004.02 198.007C2025.37 198.007 2050.98 173.63 2087.27 178.318C2123.55 183.006 2140.63 198.007 2161.98 198.007" stroke="#F4F4F4" stroke-width="2" stroke-linecap="round" stroke-linejoin="round"/>
<path d="M1.84839 159.566C16.4342 159.253 52.8633 162.191 81.8926 176.442C118.179 194.256 139.525 159.566 177.946 159.566C216.367 159.566 236.645 179.255 252.654 179.255C268.663 179.255 302.815 153.003 335.9 159.566C368.985 166.129 390.33 179.255 411.675 179.255C433.02 179.255 458.634 154.878 494.921 159.566C531.208 164.254 548.284 179.255 569.629 179.255C590.974 179.255 624.059 155.815 650.74 159.566C677.422 163.316 704.103 179.255 715.843 179.255C725.235 179.255 729.717 179.255 730.785 179.255C752.13 179.255 777.744 154.878 814.031 159.566C850.317 164.254 867.394 179.255 888.739 179.255C910.084 179.255 943.169 155.815 969.85 159.566C996.532 163.316 1023.21 179.255 1034.95 179.255H1049.89C1071.24 179.255 1096.85 154.878 1133.14 159.566C1169.43 164.254 1186.5 179.255 1207.85 179.255C1229.19 179.255 1254.81 154.878 1291.09 159.566C1327.38 164.254 1344.46 179.255 1365.8 179.255C1387.15 179.255 1420.23 155.815 1446.91 159.566C1473.6 163.316 1500.28 179.255 1512.02 179.255H1526.96C1548.3 179.255 1573.92 154.878 1610.2 159.566C1646.49 164.254 1663.57 179.255 1684.91 179.255C1706.26 179.255 1739.34 155.815 1766.02 159.566C1792.7 163.316 1819.39 179.255 1831.13 179.255H1846.07C1867.41 179.255 1893.03 154.878 1929.31 159.566C1965.6 164.254 1982.68 179.255 2004.02 179.255C2025.37 179.255 2050.98 154.878 2087.27 159.566C2123.55 164.254 2140.63 179.255 2161.98 179.255" stroke="#F4F4F4" stroke-width="2" stroke-linecap="round" stroke-linejoin="round"/>
<path d="M1.84839 142.69C16.4342 142.377 52.8633 145.315 81.8926 159.566C118.179 177.38 139.525 142.69 177.946 142.69C216.367 142.69 236.645 162.379 252.654 162.379C268.663 162.379 302.815 136.127 335.9 142.69C368.985 149.253 390.33 162.379 411.675 162.379C433.02 162.379 458.634 138.002 494.921 142.69C531.208 147.377 548.284 162.379 569.629 162.379C590.974 162.379 624.059 138.939 650.74 142.69C677.422 146.44 704.103 162.379 715.843 162.379C725.235 162.379 729.717 162.379 730.785 162.379C752.13 162.379 777.744 138.002 814.031 142.69C850.317 147.377 867.394 162.379 888.739 162.379C910.084 162.379 943.169 138.939 969.85 142.69C996.532 146.44 1023.21 162.379 1034.95 162.379H1049.89C1071.24 162.379 1096.85 138.002 1133.14 142.69C1169.43 147.377 1186.5 162.379 1207.85 162.379C1229.19 162.379 1254.81 138.002 1291.09 142.69C1327.38 147.378 1344.46 162.379 1365.8 162.379C1387.15 162.379 1420.23 138.939 1446.91 142.69C1473.6 146.44 1500.28 162.379 1512.02 162.379H1526.96C1548.3 162.379 1573.92 138.002 1610.2 142.69C1646.49 147.378 1663.57 162.379 1684.91 162.379C1706.26 162.379 1739.34 138.939 1766.02 142.69C1792.7 146.44 1819.39 162.379 1831.13 162.379H1846.07C1867.41 162.379 1893.03 138.002 1929.31 142.69C1965.6 147.377 1982.68 162.379 2004.02 162.379C2025.37 162.379 2050.98 138.002 2087.27 142.69C2123.55 147.377 2140.63 162.379 2161.98 162.379" stroke="#F4F4F4" stroke-width="2" stroke-linecap="round" stroke-linejoin="round"/>
<path d="M1.84839 123.938C16.4342 123.626 52.8633 126.563 81.8926 140.814C118.179 158.628 139.525 123.938 177.946 123.938C216.367 123.938 236.645 143.627 252.654 143.627C268.663 143.627 302.815 117.375 335.9 123.938C368.985 130.501 390.33 143.627 411.675 143.627C433.02 143.627 458.634 119.25 494.921 123.938C531.208 128.626 548.284 143.627 569.629 143.627C590.974 143.627 624.059 120.188 650.74 123.938C677.422 127.688 704.103 143.627 715.843 143.627C725.235 143.627 729.717 143.627 730.785 143.627C752.13 143.627 777.744 119.25 814.031 123.938C850.317 128.626 867.394 143.627 888.739 143.627C910.084 143.627 943.169 120.188 969.85 123.938C996.532 127.688 1023.21 143.627 1034.95 143.627H1049.89C1071.24 143.627 1096.85 119.25 1133.14 123.938C1169.43 128.626 1186.5 143.627 1207.85 143.627C1229.19 143.627 1254.81 119.25 1291.09 123.938C1327.38 128.626 1344.46 143.627 1365.8 143.627C1387.15 143.627 1420.23 120.188 1446.91 123.938C1473.6 127.688 1500.28 143.627 1512.02 143.627H1526.96C1548.3 143.627 1573.92 119.25 1610.2 123.938C1646.49 128.626 1663.57 143.627 1684.91 143.627C1706.26 143.627 1739.34 120.188 1766.02 123.938C1792.7 127.688 1819.39 143.627 1831.13 143.627H1846.07C1867.41 143.627 1893.03 119.25 1929.31 123.938C1965.6 128.626 1982.68 143.627 2004.02 143.627C2025.37 143.627 2050.98 119.25 2087.27 123.938C2123.55 128.626 2140.63 143.627 2161.98 143.627" stroke="#F4F4F4" stroke-width="2" stroke-linecap="round" stroke-linejoin="round"/>
<path d="M1.84839 107.062C16.4342 106.749 52.8633 109.687 81.8926 123.938C118.179 141.752 139.525 107.062 177.946 107.062C216.367 107.062 236.645 126.751 252.654 126.751C268.663 126.751 302.815 100.499 335.9 107.062C368.985 113.625 390.33 126.751 411.675 126.751C433.02 126.751 458.634 102.374 494.921 107.062C531.208 111.75 548.284 126.751 569.629 126.751C590.974 126.751 624.059 103.312 650.74 107.062C677.422 110.812 704.103 126.751 715.843 126.751C725.235 126.751 729.717 126.751 730.785 126.751C752.13 126.751 777.744 102.374 814.031 107.062C850.317 111.75 867.394 126.751 888.739 126.751C910.084 126.751 943.169 103.312 969.85 107.062C996.532 110.812 1023.21 126.751 1034.95 126.751H1049.89C1071.24 126.751 1096.85 102.374 1133.14 107.062C1169.43 111.75 1186.5 126.751 1207.85 126.751C1229.19 126.751 1254.81 102.374 1291.09 107.062C1327.38 111.75 1344.46 126.751 1365.8 126.751C1387.15 126.751 1420.23 103.312 1446.91 107.062C1473.6 110.812 1500.28 126.751 1512.02 126.751H1526.96C1548.3 126.751 1573.92 102.374 1610.2 107.062C1646.49 111.75 1663.57 126.751 1684.91 126.751C1706.26 126.751 1739.34 103.312 1766.02 107.062C1792.7 110.812 1819.39 126.751 1831.13 126.751H1846.07C1867.41 126.751 1893.03 102.374 1929.31 107.062C1965.6 111.75 1982.68 126.751 2004.02 126.751C2025.37 126.751 2050.98 102.374 2087.27 107.062C2123.55 111.75 2140.63 126.751 2161.98 126.751" stroke="#F4F4F4" stroke-width="2" stroke-linecap="round" stroke-linejoin="round"/>
<path d="M1.84839 89.4276C16.4342 89.1151 52.8633 92.0528 81.8926 106.304C118.179 124.118 139.525 89.4276 177.946 89.4276C216.367 89.4276 236.645 109.117 252.654 109.117C268.663 109.117 302.815 82.8646 335.9 89.4276C368.985 95.9906 390.33 109.117 411.675 109.117C433.02 109.117 458.634 84.7397 494.921 89.4276C531.208 94.1155 548.284 109.117 569.629 109.117C590.974 109.117 624.059 85.6772 650.74 89.4276C677.422 93.178 704.103 109.117 715.843 109.117C725.235 109.117 729.717 109.117 730.785 109.117C752.13 109.117 777.744 84.7397 814.031 89.4276C850.317 94.1155 867.394 109.117 888.739 109.117C910.084 109.117 943.169 85.6772 969.85 89.4276C996.532 93.178 1023.21 109.117 1034.95 109.117H1049.89C1071.24 109.117 1096.85 84.7397 1133.14 89.4276C1169.43 94.1155 1186.5 109.117 1207.85 109.117C1229.19 109.117 1254.81 84.7396 1291.09 89.4276C1327.38 94.1155 1344.46 109.117 1365.8 109.117C1387.15 109.117 1420.23 85.6772 1446.91 89.4276C1473.6 93.1779 1500.28 109.117 1512.02 109.117H1526.96C1548.3 109.117 1573.92 84.7396 1610.2 89.4276C1646.49 94.1155 1663.57 109.117 1684.91 109.117C1706.26 109.117 1739.34 85.6772 1766.02 89.4276C1792.7 93.1779 1819.39 109.117 1831.13 109.117H1846.07C1867.41 109.117 1893.03 84.7396 1929.31 89.4276C1965.6 94.1155 1982.68 109.117 2004.02 109.117C2025.37 109.117 2050.98 84.7396 2087.27 89.4276C2123.55 94.1155 2140.63 109.117 2161.98 109.117" stroke="#F4F4F4" stroke-width="2" stroke-linecap="round" stroke-linejoin="round"/>
<path d="M1.84839 73.3089C16.4342 72.9964 52.8633 75.9342 81.8926 90.1853C118.179 107.999 139.525 73.3089 177.946 73.3089C216.367 73.3089 236.645 92.998 252.654 92.998C268.663 92.998 302.815 66.7459 335.9 73.3089C368.985 79.872 390.33 92.998 411.675 92.998C433.02 92.998 458.634 68.621 494.921 73.3089C531.208 77.9969 548.284 92.998 569.629 92.998C590.974 92.998 624.059 69.5586 650.74 73.3089C677.422 77.0593 704.103 92.998 715.843 92.998C725.235 92.998 729.717 92.998 730.785 92.998C752.13 92.998 777.744 68.621 814.031 73.3089C850.317 77.9969 867.394 92.998 888.739 92.998C910.084 92.998 943.169 69.5586 969.85 73.3089C996.532 77.0593 1023.21 92.998 1034.95 92.998H1049.89C1071.24 92.998 1096.85 68.621 1133.14 73.3089C1169.43 77.9969 1186.5 92.998 1207.85 92.998C1229.19 92.998 1254.81 68.621 1291.09 73.3089C1327.38 77.9969 1344.46 92.998 1365.8 92.998C1387.15 92.998 1420.23 69.5586 1446.91 73.3089C1473.6 77.0593 1500.28 92.998 1512.02 92.998H1526.96C1548.3 92.998 1573.92 68.621 1610.2 73.3089C1646.49 77.9969 1663.57 92.998 1684.91 92.998C1706.26 92.998 1739.34 69.5586 1766.02 73.3089C1792.7 77.0593 1819.39 92.998 1831.13 92.998H1846.07C1867.41 92.998 1893.03 68.621 1929.31 73.3089C1965.6 77.9969 1982.68 92.998 2004.02 92.998C2025.37 92.998 2050.98 68.621 2087.27 73.3089C2123.55 77.9969 2140.63 92.998 2161.98 92.998" stroke="#F4F4F4" stroke-width="2" stroke-linecap="round" stroke-linejoin="round"/>
<path d="M1.84839 54.5572C16.4342 54.2447 52.8633 57.1824 81.8926 71.4336C118.179 89.2475 139.525 54.5572 177.946 54.5572C216.367 54.5572 236.645 74.2463 252.654 74.2463C268.663 74.2463 302.815 47.9942 335.9 54.5572C368.985 61.1203 390.33 74.2463 411.675 74.2463C433.02 74.2463 458.634 49.8693 494.921 54.5572C531.208 59.2452 548.284 74.2463 569.629 74.2463C590.974 74.2463 624.059 50.8069 650.74 54.5572C677.422 58.3076 704.103 74.2463 715.843 74.2463C725.235 74.2463 729.717 74.2463 730.785 74.2463C752.13 74.2463 777.744 49.8693 814.031 54.5572C850.317 59.2452 867.394 74.2463 888.739 74.2463C910.084 74.2463 943.169 50.8069 969.85 54.5572C996.532 58.3076 1023.21 74.2463 1034.95 74.2463H1049.89C1071.24 74.2463 1096.85 49.8693 1133.14 54.5572C1169.43 59.2452 1186.5 74.2463 1207.85 74.2463C1229.19 74.2463 1254.81 49.8693 1291.09 54.5572C1327.38 59.2452 1344.46 74.2463 1365.8 74.2463C1387.15 74.2463 1420.23 50.8069 1446.91 54.5572C1473.6 58.3076 1500.28 74.2463 1512.02 74.2463H1526.96C1548.3 74.2463 1573.92 49.8693 1610.2 54.5572C1646.49 59.2452 1663.57 74.2463 1684.91 74.2463C1706.26 74.2463 1739.34 50.8069 1766.02 54.5572C1792.7 58.3076 1819.39 74.2463 1831.13 74.2463H1846.07C1867.41 74.2463 1893.03 49.8693 1929.31 54.5572C1965.6 59.2452 1982.68 74.2463 2004.02 74.2463C2025.37 74.2463 2050.98 49.8693 2087.27 54.5572C2123.55 59.2452 2140.63 74.2463 2161.98 74.2463" stroke="#F4F4F4" stroke-width="2" stroke-linecap="round" stroke-linejoin="round"/>
<path d="M1.84839 37.6808C16.4342 37.3682 52.8633 40.306 81.8926 54.5571C118.179 72.371 139.525 37.6808 177.946 37.6808C216.367 37.6808 236.645 57.3699 252.654 57.3699C268.663 57.3699 302.815 31.1177 335.9 37.6808C368.985 44.2438 390.33 57.3699 411.675 57.3699C433.02 57.3699 458.634 32.9928 494.921 37.6808C531.208 42.3687 548.284 57.3699 569.629 57.3699C590.974 57.3699 624.059 33.9304 650.74 37.6808C677.422 41.4311 704.103 57.3699 715.843 57.3699C725.235 57.3699 729.717 57.3699 730.785 57.3699C752.13 57.3699 777.744 32.9928 814.031 37.6808C850.317 42.3687 867.394 57.3699 888.739 57.3699C910.084 57.3699 943.169 33.9304 969.85 37.6808C996.532 41.4311 1023.21 57.3699 1034.95 57.3699H1049.89C1071.24 57.3699 1096.85 32.9928 1133.14 37.6808C1169.43 42.3687 1186.5 57.3699 1207.85 57.3699C1229.19 57.3699 1254.81 32.9928 1291.09 37.6808C1327.38 42.3687 1344.46 57.3698 1365.8 57.3698C1387.15 57.3698 1420.23 33.9304 1446.91 37.6808C1473.6 41.4311 1500.28 57.3698 1512.02 57.3698H1526.96C1548.3 57.3698 1573.92 32.9928 1610.2 37.6808C1646.49 42.3687 1663.57 57.3698 1684.91 57.3698C1706.26 57.3698 1739.34 33.9304 1766.02 37.6808C1792.7 41.4311 1819.39 57.3698 1831.13 57.3698H1846.07C1867.41 57.3698 1893.03 32.9928 1929.31 37.6808C1965.6 42.3687 1982.68 57.3698 2004.02 57.3698C2025.37 57.3698 2050.98 32.9928 2087.27 37.6808C2123.55 42.3687 2140.63 57.3699 2161.98 57.3699" stroke="#F4F4F4" stroke-width="2" stroke-linecap="round" stroke-linejoin="round"/>
<path d="M1.84839 20.805C16.4342 20.4925 52.8633 23.4302 81.8926 37.6814C118.179 55.4953 139.525 20.805 177.946 20.805C216.367 20.805 236.645 40.4941 252.654 40.4941C268.663 40.4941 302.815 14.242 335.9 20.805C368.985 27.3681 390.33 40.4941 411.675 40.4941C433.02 40.4941 458.634 16.1171 494.921 20.805C531.208 25.493 548.284 40.4941 569.629 40.4941C590.974 40.4941 624.059 17.0547 650.74 20.805C677.422 24.5554 704.103 40.4941 715.843 40.4941C725.235 40.4941 729.717 40.4941 730.785 40.4941C752.13 40.4941 777.744 16.1171 814.031 20.805C850.317 25.493 867.394 40.4941 888.739 40.4941C910.084 40.4941 943.169 17.0547 969.85 20.805C996.532 24.5554 1023.21 40.4941 1034.95 40.4941H1049.89C1071.24 40.4941 1096.85 16.1171 1133.14 20.805C1169.43 25.493 1186.5 40.4941 1207.85 40.4941C1229.19 40.4941 1254.81 16.1171 1291.09 20.805C1327.38 25.493 1344.46 40.4941 1365.8 40.4941C1387.15 40.4941 1420.23 17.0547 1446.91 20.805C1473.6 24.5554 1500.28 40.4941 1512.02 40.4941H1526.96C1548.3 40.4941 1573.92 16.1171 1610.2 20.805C1646.49 25.493 1663.57 40.4941 1684.91 40.4941C1706.26 40.4941 1739.34 17.0547 1766.02 20.805C1792.7 24.5554 1819.39 40.4941 1831.13 40.4941H1846.07C1867.41 40.4941 1893.03 16.1171 1929.31 20.805C1965.6 25.493 1982.68 40.4941 2004.02 40.4941C2025.37 40.4941 2050.98 16.1171 2087.27 20.805C2123.55 25.493 2140.63 40.4941 2161.98 40.4941" stroke="#F4F4F4" stroke-width="2" stroke-linecap="round" stroke-linejoin="round"/>
<path d="M1.84839 2.05333C16.4342 1.74081 52.8633 4.67854 81.8926 18.9297C118.179 36.7436 139.525 2.05333 177.946 2.05333C216.367 2.05333 236.645 21.7424 252.654 21.7424C268.663 21.7424 302.815 -4.50972 335.9 2.05333C368.985 8.61638 390.33 21.7424 411.675 21.7424C433.02 21.7424 458.634 -2.6346 494.921 2.05333C531.208 6.74127 548.284 21.7424 569.629 21.7424C590.974 21.7424 624.059 -1.69703 650.741 2.05333C677.422 5.80369 704.103 21.7424 715.843 21.7424C725.235 21.7424 729.717 21.7424 730.785 21.7424C752.13 21.7424 777.744 -2.63459 814.031 2.05334C850.317 6.74128 867.394 21.7424 888.739 21.7424C910.084 21.7424 943.169 -1.69702 969.85 2.05334C996.532 5.8037 1023.21 21.7424 1034.95 21.7424H1049.89C1071.24 21.7424 1096.85 -2.63459 1133.14 2.05334C1169.43 6.74128 1186.5 21.7424 1207.85 21.7424" stroke="#F4F4F4" stroke-width="2" stroke-linecap="round" stroke-linejoin="round"/>
</svg>
