<svg width="50" height="50" viewBox="0 0 50 50" fill="none" xmlns="http://www.w3.org/2000/svg">
<g clip-path="url(#clip0)">
<path d="M38.4803 31.6921C38.4803 38.1218 33.9107 43.6951 27.6142 44.944L27.3677 44.9928L24.9702 47.7619L22.5727 44.9925L22.3259 44.9436C16.0301 43.6947 11.4604 38.1214 11.4604 31.6921V23.8094H9.99561V31.6921C9.99561 38.7337 14.941 44.8486 21.7918 46.3288L24.9702 50L28.1482 46.3291C34.9998 44.849 39.9456 38.7341 39.9456 31.6921V23.8094H38.4803V31.6921Z" fill="white"/>
<path d="M15.8062 27.7691V31.6921C15.8062 35.492 16.6664 39.1091 18.2281 41.8766L19.5037 41.1568C18.0641 38.6051 17.2714 35.244 17.2714 31.6921V27.7691H15.8062Z" fill="white"/>
<path d="M34.1346 23.6671H32.6698C32.6698 32.2418 32.7338 32.8545 32.4512 34.8763L33.9023 35.0788C34.2017 32.9338 34.1346 32.2319 34.1346 23.6671Z" fill="white"/>
<path d="M28.8608 27.3785H27.3955C27.3955 31.7986 27.5001 35.7392 26.7783 40.0929L28.2237 40.3324C28.9649 35.8616 28.8608 31.8909 28.8608 27.3785Z" fill="white"/>
<path d="M21.0804 25.0019C21.0804 31.9031 21.0224 33.8802 21.3146 37.1223L22.7737 36.9907C22.4903 33.8478 22.5452 32.069 22.5452 25.0019H21.0804Z" fill="white"/>
<path d="M26.9657 7.82852V5.60608C26.9657 2.51503 24.4507 0 21.3593 0H18.8171V3.99017H21.3593C22.2504 3.99017 22.9752 4.71497 22.9752 5.60608V7.82852C14.7709 8.66776 8.39844 14.613 8.39844 21.8559V22.5883H41.5424V21.8559C41.5424 14.5905 35.1433 8.66508 26.9657 7.82852ZM32.1846 21.1235L21.4493 10.3878L20.4132 11.4239L30.1128 21.1235H24.6731L16.3097 12.7602L15.2737 13.7962L22.6009 21.1235H17.1608L12.7762 16.7385L11.7405 17.775L15.089 21.1235H9.88884C10.323 14.8891 16.2579 9.73282 23.7564 9.23271L24.4404 9.18694V5.60608C24.4404 3.90739 23.0583 2.52533 21.3593 2.52533H20.282V1.46484H21.3593C23.6427 1.46484 25.5005 3.3226 25.5005 5.60608V9.18694L26.1845 9.23271C33.683 9.73282 39.6179 14.8891 40.052 21.1235H32.1846Z" fill="white"/>
<path d="M32.4662 41.7374L31.5876 40.5647C34.375 38.477 36.039 35.1601 36.039 31.6921V29.1805H37.5039V31.6921C37.5039 35.619 35.6205 39.3742 32.4662 41.7374ZM37.5039 28.2044H36.039V26.7391H37.5039V28.2044ZM37.5039 25.7626H36.039V24.2977H37.5039V25.7626Z" fill="white"/>
<path d="M37.3249 19.6125C36.8565 17.9439 35.8597 16.3803 34.4433 15.0898C33.3351 14.0804 32.0244 13.2698 30.547 12.6808L31.0894 11.3201C32.7309 11.9743 34.1911 12.8784 35.4298 14.0068C37.0495 15.4819 38.1924 17.2836 38.7352 19.2161L37.3249 19.6125ZM29.673 12.3653C29.2355 12.223 28.7827 12.0998 28.3272 11.9984L28.6453 10.5686C29.1458 10.6796 29.644 10.8154 30.1258 10.9722L29.673 12.3653ZM27.4117 11.8244C26.955 11.7523 26.4874 11.7 26.022 11.6688L26.1196 10.207C26.6289 10.2409 27.1408 10.2985 27.6413 10.3779L27.4117 11.8244Z" fill="white"/>
</g>
<defs>
<clipPath id="clip0">
<rect width="50" height="50" fill="white"/>
</clipPath>
</defs>
</svg>
