<svg width="15" height="15" viewBox="0 0 15 15" fill="none" xmlns="http://www.w3.org/2000/svg">
<g clip-path="url(#clip0)">
<path d="M0.711914 3.72022V11.3911C0.711914 12.8972 1.93285 14.1182 3.43897 14.1182H11.1099C12.616 14.1182 13.8369 12.8972 13.8369 11.3911V3.72022C13.8369 2.2141 12.616 0.993164 11.1099 0.993164H3.43897C1.93285 0.993164 0.711914 2.2141 0.711914 3.72022ZM8.6647 11.2745C5.42743 12.3914 2.43866 9.40265 3.55561 6.16538C3.93196 5.0743 4.79297 4.21321 5.88405 3.83686C9.1214 2.71991 12.1102 5.70868 10.9932 8.94603C10.6169 10.0371 9.75586 10.8981 8.6647 11.2745ZM11.8287 3.58692C11.7772 3.85665 11.554 4.01358 11.3231 4.01358C11.1826 4.01358 11.0394 3.95558 10.9297 3.82973C10.92 3.8186 10.9109 3.80666 10.9029 3.79424C10.7897 3.62121 10.7862 3.41565 10.8824 3.24894C10.9505 3.13094 11.0604 3.04667 11.192 3.01142C11.3235 2.97601 11.461 2.9942 11.5788 3.06237C11.7456 3.1585 11.8453 3.33834 11.8339 3.54454C11.8331 3.55864 11.8314 3.57298 11.8287 3.58692Z" fill="#FBA73D"/>
<path d="M7.27442 4.36719C5.5162 4.36719 4.08594 5.79745 4.08594 7.55567C4.08594 9.3139 5.5162 10.7442 7.27442 10.7442C9.03265 10.7442 10.4629 9.3139 10.4629 7.55567C10.4629 5.79745 9.03265 4.36719 7.27442 4.36719Z" fill="#FBA73D"/>
</g>
<defs>
<clipPath id="clip0">
<rect width="14" height="14" fill="white" transform="translate(0.28125 0.5625)"/>
</clipPath>
</defs>
</svg>
