<svg width="58" height="58" viewBox="0 0 58 58" fill="none" xmlns="http://www.w3.org/2000/svg">
<path d="M54.9755 20.0716C53.5588 16.2645 51.0062 13.324 47.5936 11.5674C46.9403 11.2386 46.3859 10.7422 45.9873 10.1289C45.5886 9.51556 45.36 8.80741 45.3247 8.0768L45.3099 7.52172C45.3046 7.3197 45.232 7.12525 45.1035 6.96926C44.975 6.81327 44.7981 6.7047 44.6008 6.6608C44.4036 6.6169 44.1973 6.64018 44.0148 6.72696C43.8323 6.81374 43.684 6.95903 43.5936 7.13973L43.3451 7.635C43.0032 8.28177 42.4956 8.82614 41.8744 9.21248C41.2531 9.59882 40.5404 9.81327 39.8091 9.8339C35.732 9.98525 32.0084 11.7897 29.1153 14.8107C27.8388 11.8801 25.842 9.32001 23.3104 7.36838C20.7789 5.41674 17.7949 4.13701 14.6361 3.64818L2.85763 1.82367C2.70575 1.80014 2.55038 1.81563 2.40613 1.86867C2.26188 1.92171 2.13349 2.01057 2.03303 2.12689C1.93257 2.24321 1.86334 2.38316 1.83186 2.5336C1.80038 2.68403 1.80767 2.84 1.85306 2.98684L5.37395 14.3735C6.8298 19.0827 10.0618 23.04 14.3852 25.4071C13.4675 25.8117 12.5834 26.2886 11.7413 26.8333C8.33342 29.0437 6.01795 32.1743 5.04521 35.8872C4.86618 36.5966 4.50199 37.2456 3.98988 37.7681C3.47777 38.2905 2.8361 38.6676 2.13048 38.8608L1.59285 38.9956C1.39669 39.0445 1.22253 39.1576 1.09807 39.317C0.973611 39.4763 0.906006 39.6727 0.906006 39.8748C0.906006 40.077 0.973611 40.2734 1.09807 40.4327C1.22253 40.592 1.39669 40.7052 1.59285 40.7541L2.13048 40.8889C2.83609 41.0821 3.47774 41.4591 3.98986 41.9816C4.50197 42.504 4.86616 43.153 5.04521 43.8623C6.01795 47.5753 8.33342 50.7059 11.7413 52.9162C15.0408 55.0563 19.1286 56.1873 23.5626 56.1873C31.1803 56.1873 37.4969 52.9417 40.5631 47.5926C40.5798 47.5926 40.5971 47.5941 40.6131 47.5941C40.9137 47.594 41.2138 47.5696 41.5104 47.5212C48.3611 46.4048 53.7593 40.5805 55.5987 32.3211C56.5626 27.9931 56.347 23.7573 54.9755 20.0716ZM27.789 16.3566C26.7239 17.7524 25.8369 19.2756 25.1486 20.8908L24.4055 20.2492L24.5944 11.0422C25.9728 12.6052 27.0553 14.406 27.789 16.3566ZM7.8829 15.8761L14.8157 14.3624L17.3241 16.5286L8.99204 17.93C8.57612 17.2713 8.20554 16.5851 7.8829 15.8761ZM9.61611 9.87219L6.08252 10.5292L4.51811 5.46985L9.61611 9.87219ZM5.70269 4.09802L10.9357 4.90877L10.8007 8.50047L5.70269 4.09802ZM7.10557 13.8381L6.6214 12.2723L11.3728 11.3894L13.1007 12.8817L7.21364 14.1671C7.17727 14.058 7.13966 13.9485 7.10557 13.8381ZM18.6817 6.70983L18.5085 15.1569L16.0001 12.9907L16.4881 5.91165C17.2366 6.12751 17.9695 6.39419 18.6817 6.70983ZM20.4757 7.63273C21.3013 8.12272 22.0844 8.68108 22.8168 9.30193L22.6242 18.7108L20.2906 16.6952L20.4757 7.63273ZM14.6998 5.49829L14.2854 11.5099L12.5573 10.0175L12.7386 5.18824L14.3585 5.43927C14.4728 5.45694 14.5862 5.47824 14.6998 5.49829ZM10.1664 19.5705L19.1052 18.0671L21.4388 20.0826L12.1584 21.6436C11.4376 21.0095 10.7713 20.316 10.1664 19.5705ZM14.1411 23.1482L23.2206 21.621L24.4599 22.6913C24.3625 22.9808 24.2702 23.2742 24.1829 23.5715C23.9769 23.5668 23.7706 23.5623 23.5626 23.5623C21.2533 23.5512 18.9548 23.8795 16.7409 24.5366C15.836 24.1495 14.9661 23.685 14.1411 23.1482ZM12.7276 28.3541C14.0362 27.5126 15.4503 26.8477 16.9332 26.3766C16.9597 26.3693 16.9854 26.3602 17.0111 26.3505C19.132 25.6914 21.3417 25.3623 23.5626 25.3748C31.2674 25.3748 37.4811 28.9416 39.7788 34.6833C40.0788 35.4222 40.1326 36.2381 39.9323 37.01C39.732 37.782 39.2883 38.4688 38.6669 38.9686H37.7532C37.9929 38.2885 38.095 37.5677 38.0536 36.8478C38.0123 36.128 37.8284 35.4235 37.5125 34.7753C37.1967 34.1271 36.7552 33.5482 36.2137 33.0721C35.6722 32.5959 35.0416 32.2321 34.3583 32.0018C33.5174 30.8611 32.2424 29.9588 30.7315 29.4423C29.824 29.1291 28.8678 28.9808 27.9081 29.0043C26.7132 27.8594 24.8972 27.1873 22.9498 27.1873C20.9577 27.1873 19.1095 27.8876 17.9162 29.0773C17.2124 29.1408 16.5198 29.2957 15.8559 29.5379C13.5546 30.372 11.876 32.0769 11.4335 33.9767C10.4577 34.3955 9.62675 35.0921 9.04403 35.9797C8.46131 36.8673 8.15261 37.9068 8.15636 38.9686H5.34767C6.04327 38.2299 6.54218 37.3283 6.79857 36.3466C7.65487 33.078 9.70503 30.3139 12.7276 28.3541ZM20.578 46.4842L19.6921 45.5982C18.9356 44.839 17.9164 44.3993 16.845 44.37L12.7174 44.234C12.6538 44.2321 12.5902 44.2369 12.5275 44.2482C12.5219 44.2463 12.5162 44.2434 12.5109 44.2416C11.7724 44.0131 11.1269 43.5535 10.6692 42.9305C10.2116 42.3076 9.9661 41.5541 9.96886 40.7811H35.7659C36.0814 41.3286 36.2483 41.9491 36.25 42.581C36.2517 43.2128 36.0883 43.8342 35.7758 44.3834L30.1167 44.3977C29.3391 44.3984 28.5772 44.616 27.9165 45.026C27.2558 45.4361 26.7227 46.0224 26.3771 46.719C26.3228 46.8255 26.2901 46.9418 26.2809 47.061C26.2717 47.1803 26.2862 47.3002 26.3236 47.4138C26.361 47.5274 26.4204 47.6325 26.4986 47.723C26.5768 47.8135 26.6721 47.8877 26.7791 47.9412C26.8861 47.9946 27.0026 48.0264 27.1219 48.0347C27.2412 48.0429 27.361 48.0275 27.4743 47.9892C27.5877 47.951 27.6923 47.8907 27.7822 47.8118C27.8721 47.7329 27.9455 47.637 27.9981 47.5296C28.1945 47.1339 28.4973 46.8007 28.8726 46.5676C29.2479 46.3346 29.6807 46.2108 30.1225 46.2102L33.316 46.2021C33.2037 46.2717 33.1079 46.3651 33.0354 46.4756C32.4325 47.3988 31.379 48.1701 30.1449 48.5918C29.3379 48.8741 28.4806 48.9835 27.6286 48.9129C27.4855 48.8994 27.3412 48.9202 27.2077 48.9735C27.0742 49.0269 26.9553 49.1112 26.8609 49.2196C26.0383 50.1632 24.5395 50.7489 22.9498 50.7489C21.3462 50.7489 19.841 50.1555 19.0216 49.2002C18.9403 49.1054 18.8404 49.0284 18.7279 48.9741C18.6155 48.9198 18.4931 48.8893 18.3683 48.8846C17.721 48.8574 17.0817 48.7299 16.4735 48.5068C15.113 48.0136 14.0024 47.0877 13.4707 46.0712L16.7899 46.1804C17.3998 46.1965 17.9802 46.4464 18.411 46.8785L19.2969 47.7643C19.3807 47.85 19.4807 47.9183 19.591 47.9651C19.7013 48.0119 19.8199 48.0363 19.9397 48.037C20.0596 48.0377 20.1784 48.0146 20.2893 47.969C20.4002 47.9235 20.5009 47.8564 20.5857 47.7716C20.6704 47.6869 20.7375 47.5862 20.7831 47.4753C20.8287 47.3644 20.8518 47.2456 20.8511 47.1258C20.8505 47.0059 20.826 46.8874 20.7793 46.777C20.7325 46.6667 20.6643 46.5667 20.5786 46.4829L20.578 46.4842ZM12.5109 35.5081C12.5168 35.5063 12.5222 35.5033 12.528 35.5014C12.5803 35.5109 12.6334 35.5158 12.6866 35.516H12.717L16.8404 35.3801C17.9134 35.3517 18.9345 34.9119 19.6924 34.1518L20.5782 33.2658C20.6639 33.182 20.7321 33.082 20.7789 32.9716C20.8257 32.8613 20.8501 32.7428 20.8508 32.6229C20.8515 32.503 20.8283 32.3842 20.7828 32.2734C20.7372 32.1625 20.6701 32.0618 20.5853 31.977C20.5006 31.8923 20.3998 31.8252 20.2889 31.7796C20.1781 31.7341 20.0593 31.711 19.9394 31.7117C19.8195 31.7123 19.701 31.7368 19.5907 31.7836C19.4803 31.8304 19.3804 31.8986 19.2966 31.9844L18.4107 32.8701C17.9787 33.3031 17.3966 33.5531 16.7851 33.5684L13.4705 33.6775C14.0022 32.6613 15.1131 31.7354 16.4732 31.2419C17.0815 31.0187 17.7207 30.8913 18.3681 30.8641C18.4929 30.8593 18.6153 30.8289 18.7277 30.7745C18.8401 30.7202 18.9401 30.6433 19.0214 30.5485C19.841 29.5933 21.3462 28.9998 22.9498 28.9998C24.5395 28.9998 26.0383 29.586 26.8609 30.5291C26.9555 30.6374 27.0744 30.7216 27.2078 30.775C27.3413 30.8283 27.4855 30.8492 27.6286 30.8359C28.4806 30.7653 29.3379 30.8747 30.1449 31.1569C31.379 31.5787 32.4325 32.35 33.0354 33.2732C33.1079 33.3837 33.2037 33.4771 33.316 33.5467L30.1237 33.5386C29.6818 33.5382 29.2487 33.4145 28.8732 33.1814C28.4976 32.9483 28.1946 32.6151 27.9981 32.2192C27.8895 32.0061 27.7011 31.8447 27.474 31.77C27.2468 31.6952 26.9993 31.7133 26.7854 31.8203C26.5716 31.9272 26.4086 32.1144 26.3321 32.3409C26.2556 32.5675 26.2718 32.8151 26.3771 33.0298C26.7229 33.7265 27.2562 34.3129 27.9171 34.723C28.578 35.1331 29.3402 35.3506 30.118 35.3511L35.7758 35.3653C36.0883 35.9146 36.2517 36.5359 36.25 37.1678C36.2483 37.7997 36.0814 38.4202 35.7659 38.9677L9.96886 38.9686C9.9661 38.1956 10.2116 37.4421 10.6692 36.8192C11.1269 36.1962 11.7724 35.7366 12.5109 35.5081ZM23.5626 54.3748C19.4794 54.3748 15.7327 53.3447 12.7276 51.3955C9.70503 49.4358 7.65487 46.6717 6.79857 43.4031C6.54218 42.4214 6.04327 41.5198 5.34767 40.7811H8.15636C8.15261 41.8429 8.46131 42.8823 9.04403 43.77C9.62675 44.6576 10.4577 45.3542 11.4335 45.7729C11.876 47.6728 13.5546 49.3777 15.8559 50.2118C16.5198 50.454 17.2124 50.6088 17.9162 50.6724C19.109 51.862 20.9577 52.5623 22.9498 52.5623C24.8972 52.5623 26.7132 51.8902 27.9076 50.7457C28.8673 50.7695 29.8236 50.6213 30.731 50.308C32.242 49.7916 33.517 48.8893 34.3579 47.7486C35.0412 47.5183 35.672 47.1545 36.2136 46.6783C36.7552 46.2022 37.1968 45.6232 37.5127 44.9749C37.8286 44.3267 38.0125 43.6221 38.0538 42.9021C38.0951 42.1822 37.9929 41.4612 37.7532 40.7811H38.6669C39.2883 41.2809 39.732 41.9677 39.9323 42.7397C40.1326 43.5116 40.0788 44.3275 39.7788 45.0664C37.4811 50.8081 31.2674 54.3748 23.5626 54.3748ZM53.8295 31.9271C52.179 39.3386 47.4613 44.5807 41.4831 45.6832C41.721 45.073 41.8497 44.4256 41.8633 43.7708L43.9689 41.3362C44.4799 40.745 44.9596 40.1274 45.406 39.4861C45.5419 39.2887 45.5941 39.0456 45.5512 38.8098C45.5084 38.574 45.3738 38.3648 45.1771 38.228C44.9804 38.0912 44.7374 38.0378 44.5015 38.0796C44.2655 38.1214 44.0557 38.255 43.918 38.4511C43.5079 39.0402 43.0673 39.6074 42.5979 40.1503L41.4251 41.5061C41.1681 40.9028 40.8052 40.3503 40.3536 39.8748C41.0817 39.1067 41.5733 38.1452 41.7698 37.1052C41.9663 36.0652 41.8593 34.9907 41.4616 34.0098C41.0822 33.0639 40.6057 32.1599 40.0397 31.3124L41.7216 23.7593C41.7484 23.6428 41.7519 23.5222 41.7319 23.4043C41.7119 23.2865 41.6687 23.1737 41.6049 23.0726C41.5412 22.9715 41.458 22.884 41.3603 22.8152C41.2625 22.7463 41.1521 22.6975 41.0354 22.6715C40.9187 22.6455 40.7981 22.6429 40.6803 22.6637C40.5626 22.6846 40.4502 22.7285 40.3495 22.793C40.2489 22.8575 40.162 22.9413 40.0938 23.0395C40.0257 23.1377 39.9776 23.2485 39.9525 23.3653L38.5931 29.4712C36.8056 27.5239 34.4884 25.9996 31.7923 24.9876C32.3257 23.383 33.0563 21.8507 33.9673 20.426C34.0314 20.3258 34.0752 20.2139 34.096 20.0967C34.1169 19.9795 34.1145 19.8594 34.089 19.7431C34.0634 19.6269 34.0152 19.5168 33.9471 19.4192C33.879 19.3216 33.7924 19.2383 33.6921 19.1742C33.5918 19.11 33.4799 19.0663 33.3627 19.0454C33.2456 19.0245 33.1254 19.0269 33.0092 19.0525C32.8929 19.078 32.7829 19.1262 32.6852 19.1943C32.5876 19.2624 32.5044 19.3491 32.4402 19.4493C31.447 21.0034 30.6506 22.6749 30.0696 24.4254C28.7523 24.0598 27.4052 23.8112 26.0442 23.6824C28.2885 16.5634 33.6279 11.8775 39.8768 11.6455C41.3749 11.5937 42.7996 10.9844 43.8719 9.93699C44.3985 11.3404 45.43 12.4968 46.7645 13.1794C49.7688 14.7256 52.0208 17.3276 53.2772 20.704C54.526 24.0608 54.7171 27.9416 53.8295 31.9271Z" fill="white"/>
<path d="M42.8505 14.5214C42.6159 14.4692 42.3702 14.5123 42.1674 14.6412C41.9645 14.7702 41.8212 14.9744 41.769 15.209L40.7599 19.7403C40.7331 19.8568 40.7296 19.9774 40.7496 20.0953C40.7696 20.2132 40.8128 20.3259 40.8766 20.427C40.9403 20.5281 41.0235 20.6156 41.1212 20.6845C41.219 20.7533 41.3294 20.8021 41.4461 20.8281C41.5628 20.8541 41.6834 20.8567 41.8011 20.8359C41.9189 20.815 42.0313 20.7711 42.132 20.7066C42.2326 20.6421 42.3195 20.5583 42.3877 20.4601C42.4558 20.3619 42.5039 20.2511 42.529 20.1343L43.5381 15.603C43.564 15.4869 43.5667 15.3667 43.5462 15.2495C43.5256 15.1323 43.4822 15.0202 43.4183 14.9198C43.3545 14.8194 43.2715 14.7325 43.174 14.6641C43.0766 14.5958 42.9667 14.5473 42.8505 14.5214Z" fill="white"/>
<path d="M38.4279 12.9281L36.083 15.0963C35.5632 15.5769 35.0609 16.088 34.5902 16.6149C34.5103 16.7036 34.4487 16.8072 34.4089 16.9197C34.3692 17.0323 34.352 17.1516 34.3585 17.2708C34.365 17.3899 34.3949 17.5067 34.4467 17.6143C34.4984 17.7218 34.5708 17.8181 34.6599 17.8976C34.7489 17.9771 34.8528 18.0382 34.9655 18.0775C35.0782 18.1167 35.1976 18.1333 35.3167 18.1263C35.4359 18.1193 35.5525 18.0888 35.6598 18.0366C35.7672 17.9844 35.8631 17.9115 35.9422 17.8221C36.3744 17.3381 36.8358 16.8687 37.3129 16.4271L39.6578 14.2589C39.7465 14.1785 39.8184 14.0813 39.8693 13.9729C39.9202 13.8645 39.9491 13.7471 39.9544 13.6275C39.9596 13.5079 39.9411 13.3884 39.9 13.276C39.8588 13.1635 39.7957 13.0604 39.7144 12.9724C39.6332 12.8845 39.5353 12.8136 39.4264 12.7637C39.3175 12.7139 39.1999 12.6861 39.0802 12.6819C38.9606 12.6778 38.8413 12.6974 38.7292 12.7397C38.6172 12.7819 38.5146 12.846 38.4275 12.9281H38.4279Z" fill="white"/>
<path d="M48.4862 28.3553C48.3685 28.3378 48.2485 28.3436 48.133 28.3725C48.0176 28.4014 47.9089 28.4527 47.8133 28.5235C47.7177 28.5944 47.6369 28.6834 47.5757 28.7854C47.5145 28.8875 47.4739 29.0006 47.4564 29.1183L47.3572 29.7852C47.0385 31.9283 46.3808 34.007 45.4087 35.9434C45.3535 36.0499 45.32 36.1664 45.3102 36.286C45.3003 36.4056 45.3144 36.526 45.3514 36.6401C45.3885 36.7542 45.4478 36.8599 45.526 36.9509C45.6042 37.0419 45.6997 37.1165 45.807 37.1703C45.9143 37.2241 46.0312 37.2561 46.1509 37.2644C46.2706 37.2727 46.3908 37.2571 46.5044 37.2185C46.6181 37.18 46.7229 37.1193 46.8129 37.0399C46.9029 36.9605 46.9762 36.864 47.0286 36.7561C48.0869 34.6481 48.8029 32.3851 49.1496 30.0521L49.249 29.3853C49.2844 29.1476 49.2239 28.9055 49.0809 28.7124C48.9379 28.5192 48.724 28.3908 48.4862 28.3553Z" fill="white"/>
<path d="M49.1992 22.5088C49.1476 22.1939 49.0886 21.8764 49.0236 21.565C48.9997 21.4481 48.9529 21.3371 48.886 21.2383C48.8191 21.1395 48.7334 21.0549 48.6337 20.9894C48.534 20.9238 48.4224 20.8786 48.3052 20.8563C48.188 20.834 48.0675 20.8351 47.9507 20.8594C47.834 20.8838 47.7231 20.9309 47.6246 20.9982C47.5261 21.0655 47.4418 21.1516 47.3767 21.2515C47.3115 21.3514 47.2667 21.4632 47.2448 21.5805C47.223 21.6978 47.2245 21.8182 47.2493 21.9349C47.309 22.2209 47.3632 22.5127 47.4106 22.8021C47.5514 23.6635 47.6372 24.5331 47.6674 25.4054C47.6754 25.6402 47.7743 25.8626 47.9432 26.0259C48.112 26.1891 48.3376 26.2805 48.5725 26.2806H48.6042C48.8444 26.2724 49.0715 26.169 49.2355 25.9934C49.3995 25.8177 49.487 25.5841 49.4788 25.3439C49.4459 24.3942 49.3526 23.4475 49.1993 22.5097L49.1992 22.5088Z" fill="white"/>
<path d="M46.5247 19.3313C46.5641 19.4436 46.6253 19.5471 46.7047 19.6357C46.7841 19.7244 46.8802 19.7966 46.9875 19.8481C47.0948 19.8997 47.2112 19.9296 47.33 19.9362C47.4489 19.9427 47.5678 19.9258 47.6802 19.8864C47.7925 19.847 47.8959 19.7858 47.9846 19.7064C48.0733 19.627 48.1455 19.5309 48.197 19.4236C48.2485 19.3163 48.2785 19.1999 48.285 19.0811C48.2916 18.9622 48.2747 18.8432 48.2352 18.7309C48.1162 18.3911 47.9869 18.0512 47.8511 17.7168L46.772 15.0646C46.6806 14.8431 46.5052 14.6669 46.2842 14.5744C46.0633 14.4819 45.8147 14.4807 45.5928 14.571C45.3709 14.6613 45.1938 14.8357 45.1002 15.0562C45.0065 15.2767 45.004 15.5253 45.0932 15.7476L46.1723 18.3999C46.2961 18.7066 46.4148 19.0198 46.5247 19.3313Z" fill="white"/>
<path d="M20.5784 37.7969L21.1093 37.2659C21.76 36.6153 22.6424 36.2498 23.5626 36.2498C24.4827 36.2498 25.3652 36.6153 26.0159 37.2659L26.5467 37.7968C26.6308 37.8809 26.7308 37.9477 26.8407 37.9932C26.9507 38.0388 27.0685 38.0622 27.1875 38.0622C27.3065 38.0622 27.4244 38.0388 27.5343 37.9932C27.6443 37.9477 27.7442 37.8809 27.8284 37.7968C27.9125 37.7126 27.9793 37.6127 28.0248 37.5028C28.0704 37.3928 28.0938 37.275 28.0938 37.156C28.0938 37.0369 28.0704 36.9191 28.0248 36.8091C27.9793 36.6992 27.9125 36.5993 27.8284 36.5151L27.2975 35.9843C26.3069 34.9937 24.9634 34.4373 23.5626 34.4373C22.1617 34.4373 20.8182 34.9937 19.8276 35.9843L19.2967 36.5152C19.1267 36.6852 19.0313 36.9157 19.0312 37.1561C19.0312 37.3964 19.1267 37.6269 19.2967 37.7969C19.4667 37.9669 19.6972 38.0623 19.9375 38.0623C20.1779 38.0623 20.4084 37.9669 20.5784 37.7969Z" fill="white"/>
<path d="M27.2974 43.7653L27.8284 43.2344C27.9125 43.1502 27.9793 43.0503 28.0248 42.9403C28.0704 42.8304 28.0938 42.7125 28.0938 42.5935C28.0938 42.4745 28.0704 42.3567 28.0248 42.2467C27.9793 42.1368 27.9125 42.0369 27.8284 41.9527C27.7442 41.8685 27.6443 41.8018 27.5343 41.7562C27.4244 41.7107 27.3065 41.6873 27.1875 41.6873C27.0685 41.6873 26.9507 41.7107 26.8407 41.7562C26.7308 41.8018 26.6308 41.8685 26.5467 41.9527L26.0157 42.4836C25.3651 43.1343 24.4826 43.4998 23.5625 43.4998C22.6423 43.4998 21.7598 43.1343 21.1092 42.4836L20.5784 41.9528C20.4084 41.7829 20.1779 41.6874 19.9375 41.6874C19.6972 41.6874 19.4666 41.7829 19.2967 41.9528C19.1267 42.1228 19.0313 42.3533 19.0313 42.5936C19.0312 42.834 19.1267 43.0645 19.2967 43.2345L19.8275 43.7653C20.8181 44.7559 22.1616 45.3123 23.5625 45.3123C24.9633 45.3123 26.3068 44.7559 27.2974 43.7653Z" fill="white"/>
</svg>
