<svg width="46" height="46" viewBox="0 0 46 46" fill="none" xmlns="http://www.w3.org/2000/svg">
<g clip-path="url(#clip0)">
<path d="M10.9541 17.2517C10.8609 17.2266 10.7633 17.223 10.6686 17.2413C10.5738 17.2595 10.4845 17.299 10.4073 17.3569C10.3301 17.4147 10.2671 17.4894 10.223 17.5752C10.179 17.6611 10.155 17.7558 10.153 17.8522C10.153 18.1354 10.1563 18.4068 10.1577 18.6846C6.86655 16.6843 5.76542 16.708 5.18323 16.9804C4.60105 17.2528 3.87331 18.0765 3.29076 21.8805C3.08209 21.7034 2.87054 21.526 2.65611 21.3482C2.58088 21.2878 2.49288 21.2452 2.39878 21.2238C2.30468 21.2024 2.20693 21.2027 2.11295 21.2246C2.01897 21.2466 1.93122 21.2897 1.85634 21.3505C1.78147 21.4114 1.72142 21.4886 1.68076 21.5761C-0.570719 26.6138 -0.573594 32.9826 1.67358 37.8022C4.05408 42.9075 8.88084 45.996 13.6807 45.996C15.2574 45.9995 16.8156 45.6559 18.2447 44.9897C19.7068 44.2921 21.0011 43.2873 22.0395 42.0439C23.0778 40.8004 23.8357 39.3476 24.2614 37.7846C25.2101 34.4213 24.9 30.8275 23.3892 27.6765C21.142 22.8562 16.261 18.7651 10.9541 17.2517ZM5.71403 18.1207C5.74637 18.1085 6.50465 17.8465 10.1803 20.1792C10.2318 23.7336 10.704 27.2694 11.5869 30.7128C9.51704 27.8209 7.11134 25.1848 4.42028 22.8598C4.99528 18.5476 5.686 18.1354 5.71403 18.1207ZM23.0546 37.4299C22.6784 38.8213 22.0066 40.1153 21.0849 41.2234C20.1631 42.3316 19.0132 43.2279 17.7136 43.8512C12.3556 46.3478 5.67126 43.398 2.81387 37.2711C0.859593 33.0793 0.758249 27.398 2.50733 22.8641C8.04601 27.5586 11.4532 31.9146 14.1658 37.7314C14.2401 37.8762 14.3676 37.9865 14.5216 38.0393C14.6755 38.0921 14.8439 38.0831 14.9914 38.0144C15.1389 37.9457 15.254 37.8225 15.3126 37.6707C15.3713 37.5189 15.3688 37.3503 15.3057 37.2003C12.5932 31.3838 11.4464 25.9734 11.4101 18.7122C16.008 20.2866 20.2949 24.0162 22.2492 28.2076C23.6306 31.0814 23.9169 34.3603 23.0542 37.4299H23.0546Z" fill="white"/>
<path d="M44.3192 4.72537C44.2785 4.63782 44.2185 4.56067 44.1436 4.49978C44.0687 4.43889 43.9809 4.39585 43.8869 4.37393C43.7929 4.352 43.6952 4.35177 43.6011 4.37325C43.507 4.39472 43.419 4.43735 43.3438 4.49788C43.1282 4.67577 42.918 4.85294 42.7088 5.02976C42.1263 1.22397 41.4 0.401365 40.8167 0.130037C40.2334 -0.141291 39.1359 -0.167166 35.8422 1.83276C35.8422 1.55496 35.8487 1.28327 35.8469 1.00008C35.8449 0.903596 35.8209 0.808831 35.7769 0.722973C35.7328 0.637116 35.6698 0.56242 35.5925 0.504547C35.5153 0.446675 35.4259 0.407147 35.3311 0.388958C35.2363 0.370769 35.1387 0.374397 35.0455 0.399568C29.7386 1.91326 24.8576 6.00582 22.6111 10.8247C19.4605 17.5809 21.7684 25.347 27.7556 28.1394C29.1847 28.8054 30.7429 29.1489 32.3196 29.1456C37.1191 29.1456 41.9462 26.055 44.3267 20.9519C46.575 16.1326 46.5707 9.76344 44.3192 4.72537ZM40.2859 1.26962C40.315 1.28507 41.0047 1.69727 41.5797 6.00941C38.8888 8.33455 36.4832 10.9707 34.4134 13.8625C35.2963 10.4191 35.7685 6.88326 35.8199 3.32883C39.4953 0.99685 40.255 1.25776 40.2859 1.26962ZM43.1875 20.4203C40.3301 26.5473 33.6472 29.5 28.2878 27.0009C22.9284 24.5018 20.8937 17.4843 23.7507 11.3562C25.7046 7.16624 29.992 3.43665 34.5898 1.86187C34.5539 9.1234 33.4067 14.5334 30.6945 20.3496C30.6333 20.4993 30.632 20.6669 30.691 20.8175C30.7501 20.9682 30.8649 21.0903 31.0116 21.1585C31.1583 21.2267 31.3256 21.2358 31.4789 21.1839C31.6321 21.132 31.7595 21.023 31.8345 20.8796C34.547 15.0628 37.9543 10.7068 43.493 6.01193C45.2421 10.548 45.1407 16.229 43.1864 20.4203H43.1875Z" fill="white"/>
</g>
<defs>
<clipPath id="clip0">
<rect width="46" height="46" fill="white"/>
</clipPath>
</defs>
</svg>
