<svg width="73" height="48" viewBox="0 0 73 48" fill="none" xmlns="http://www.w3.org/2000/svg">
<path fill-rule="evenodd" clip-rule="evenodd" d="M43.1716 22.9415C46.0858 17.6683 54.1552 6.11005 58.548 0H73.0002C69.738 4.64984 63.8581 14.0828 64.2764 17.5203C69.4305 20.2117 72.9446 25.5751 72.9446 31.7523C72.9446 40.6299 65.6864 47.8267 56.733 47.8267C47.7796 47.8267 40.5215 40.6299 40.5215 31.7523C40.5215 28.4992 41.4961 25.4718 43.1716 22.9415ZM1.25861 25.3531C1.61437 22.884 12.3757 7.42232 17.7119 0.000153639H32.1641C28.9534 4.57652 23.2071 13.786 23.4251 17.3531C28.7585 19.985 32.4231 25.4444 32.4231 31.7524C32.4231 40.6301 25.1649 47.8269 16.2115 47.8269C7.25815 47.8269 0 40.6301 0 31.7524C0 29.5047 0.465311 27.3646 1.30564 25.4219L1.25861 25.3531Z" fill="#F24F4B"/>
</svg>
