<svg width="16" height="17" viewBox="0 0 16 17" fill="none" xmlns="http://www.w3.org/2000/svg">
<g clip-path="url(#clip0)">
<path d="M7.80036 12.9203H8.75836C8.75836 12.9203 9.04702 12.8889 9.19436 12.7309C9.33436 12.5836 9.33436 12.3109 9.33436 12.3109C9.33436 12.3109 9.31369 11.0263 9.91369 10.8376C10.505 10.6503 11.255 12.0776 12.0544 12.6263C12.665 13.0456 13.1244 12.9556 13.1244 12.9556L15.265 12.9263C15.265 12.9263 16.3864 12.8563 15.8564 11.9756C15.8157 11.9056 15.5557 11.3256 14.2757 10.1356C12.9344 8.89495 13.1144 9.09495 14.7264 6.94428C15.7057 5.63428 16.1064 4.83361 15.9764 4.49361C15.8657 4.17361 15.1364 4.25295 15.1364 4.25295L12.735 4.27361C12.735 4.27361 12.555 4.25295 12.425 4.33361C12.295 4.41295 12.2157 4.59428 12.2157 4.59428C12.2157 4.59428 11.8344 5.61362 11.325 6.47428C10.243 8.29362 9.81302 8.39362 9.64302 8.27361C9.24036 8.01295 9.34369 7.22028 9.34369 6.65228C9.34369 4.89162 9.61302 4.15228 8.82302 3.96228C8.56302 3.90161 8.36902 3.86228 7.69969 3.85161C6.83969 3.84228 6.11436 3.85828 5.70302 4.05895C5.43302 4.19428 5.22302 4.49361 5.34369 4.50895C5.50369 4.52895 5.86302 4.60628 6.05302 4.86695C6.30302 5.20428 6.29236 5.95761 6.29236 5.95761C6.29236 5.95761 6.43302 8.03495 5.96302 8.29295C5.63302 8.46762 5.19302 8.10628 4.23302 6.45562C3.74302 5.61562 3.37236 4.67561 3.37236 4.67561C3.37236 4.67561 3.30236 4.50495 3.17302 4.40495C3.02169 4.29495 2.80169 4.25495 2.80169 4.25495L0.511689 4.27495C0.511689 4.27495 0.171689 4.28561 0.0523557 4.43495C-0.058311 4.56495 0.041689 4.84495 0.041689 4.84495C0.041689 4.84495 1.83236 9.03628 3.86302 11.1469C5.72302 13.0816 7.83369 12.9569 7.83369 12.9569L7.80036 12.9203Z" fill="white"/>
</g>
<defs>
<clipPath id="clip0">
<rect width="16" height="16" fill="white" transform="translate(0 0.40625)"/>
</clipPath>
</defs>
</svg>
