<svg width="16" height="16" viewBox="0 0 16 16" fill="none" xmlns="http://www.w3.org/2000/svg">
<path d="M15.3764 3.31439C14.7988 2.6437 13.7325 2.37012 11.6961 2.37012H4.30379C2.22075 2.37012 1.13636 2.66135 0.560981 3.3754C0 4.0716 0 5.0974 0 6.51714V9.22315C0 11.9736 0.6656 13.3701 4.30379 13.3701H11.6961C13.4621 13.3701 14.4407 13.1287 15.0738 12.5368C15.723 11.9299 16 10.9388 16 9.22315V6.51714C16 5.01991 15.9566 3.98805 15.3764 3.31439ZM10.2721 8.24373L6.91525 9.95757C6.84021 9.99589 6.75814 10.0149 6.67618 10.0149C6.58338 10.0149 6.49079 9.99049 6.40877 9.94199C6.25435 9.85058 6.16005 9.68706 6.16005 9.51069V6.09401C6.16005 5.91794 6.25409 5.75458 6.40821 5.66312C6.56237 5.57166 6.75412 5.5654 6.91406 5.64658L10.2709 7.34938C10.4417 7.436 10.5489 7.60823 10.5492 7.79615C10.5494 7.98422 10.4426 8.15671 10.2721 8.24373Z" fill="#FBA73D"/>
</svg>
